<mxfile host="65bd71144e" pages="6">
    <diagram id="zNMGI6wU0Mi8Qe2H5Q59" name="context">
        <mxGraphModel dx="519" dy="613" grid="1" gridSize="10" guides="1" tooltips="1" connect="1" arrows="1" fold="1" page="1" pageScale="1" pageWidth="1169" pageHeight="827" math="0" shadow="0">
            <root>
                <mxCell id="0"/>
                <mxCell id="1" parent="0"/>
                <object placeholders="1" label="&lt;font size=&quot;1&quot; style=&quot;&quot;&gt;&lt;b style=&quot;font-size: 16px;&quot;&gt;%Name%&lt;/b&gt;&lt;/font&gt;&lt;div&gt;&lt;font style=&quot;font-size: 11px;&quot;&gt;[Software system]&lt;/font&gt;&lt;/div&gt;&lt;br&gt;&lt;div&gt;&lt;font style=&quot;font-size: 12px;&quot;&gt;%Description%&lt;/font&gt;&lt;/div&gt;" Name="Loyalty program" Description="A system for providing customers with loyalty programs" UID="Loyalty" Type="Software system" id="U60GGCc10YC7kli0hXQL-1">
                    <mxCell style="rounded=1;whiteSpace=wrap;html=1;labelBackgroundColor=none;fillColor=#1061B0;fontColor=#ffffff;align=center;arcSize=10;strokeColor=#0D5091;metaEdit=1;resizable=1;points=[[0.25,0,0],[0.5,0,0],[0.75,0,0],[1,0.25,0],[1,0.5,0],[1,0.75,0],[0.75,1,0],[0.5,1,0],[0.25,1,0],[0,0.75,0],[0,0.5,0],[0,0.25,0]];fontSize=16;backgroundOutline=0;collapsible=0;dropTarget=0;movableLabel=0;perimeter=rectanglePerimeter;snapToPoint=0;autosize=0;treeMoving=0;enumerate=0;rotatable=0;" parent="1" vertex="1">
                        <mxGeometry x="440" y="440" width="200" height="120" as="geometry"/>
                    </mxCell>
                </object>
                <object placeholders="1" label="&lt;font style=&quot;font-size: 16px&quot;&gt;&lt;b&gt;&lt;div style=&quot;text-align: left&quot;&gt;[System context]: %Name%&lt;/div&gt;&lt;/b&gt;&lt;/font&gt;&lt;div style=&quot;text-align: left&quot;&gt;&lt;font color=&quot;#4f5a5b&quot;&gt;%Description%&lt;/font&gt;&lt;/div&gt;" Name="Loyalty program context" Description="A system for providing customers with loyalty programs" id="U60GGCc10YC7kli0hXQL-3">
                    <mxCell style="text;html=1;strokeColor=none;fillColor=none;align=left;verticalAlign=top;whiteSpace=wrap;rounded=0;metaEdit=1;allowArrows=0;resizable=1;rotatable=0;connectable=0;recursiveResize=0;expand=0;pointerEvents=0;points=[[0.25,0,0],[0.5,0,0],[0.75,0,0],[1,0.25,0],[1,0.5,0],[1,0.75,0],[0.75,1,0],[0.5,1,0],[0.25,1,0],[0,0.75,0],[0,0.5,0],[0,0.25,0]];" parent="1" vertex="1">
                        <mxGeometry x="80" y="80" width="470" height="40" as="geometry"/>
                    </mxCell>
                </object>
                <object placeholders="1" label="&lt;font style=&quot;font-size: 16px&quot;&gt;&lt;b&gt;%Name%&lt;/b&gt;&lt;/font&gt;&lt;div&gt;[%Type%]&lt;/div&gt;&lt;br&gt;&lt;div&gt;&lt;font style=&quot;font-size: 11px&quot;&gt;%Description%&lt;/font&gt;&lt;/div&gt;" Name="Employee" Description="" Type="Person" UID="Employee" id="VNVTj4tJlUMc3JKADqYf-1">
                    <mxCell style="html=1;fontSize=11;dashed=0;whiteSpace=wrap;fillColor=#083F75;strokeColor=#06315C;fontColor=#ffffff;shape=mxgraph.c4.person2;align=center;metaEdit=1;points=[[0,0.55,0,0,0],[0,0.68,0,0,0],[0,0.81,0,0,0],[0.25,1,0,0,0],[0.5,0,0,0,0],[0.5,1,0,0,0],[0.75,1,0,0,0],[1,0.53,0,0,0],[1,0.68,0,0,0],[1,0.81,0,0,0]];resizable=1;autosize=0;resizeWidth=0;fillStyle=auto;rotatable=0;strokeWidth=1;" parent="1" vertex="1">
                        <mxGeometry x="440" y="170" width="200" height="190" as="geometry"/>
                    </mxCell>
                </object>
                <object placeholders="1" label="&lt;font style=&quot;font-size: 16px&quot;&gt;&lt;b&gt;%Name%&lt;/b&gt;&lt;/font&gt;&lt;div&gt;[&lt;span style=&quot;background-color: initial;&quot;&gt;%Type%&lt;/span&gt;&lt;span style=&quot;background-color: initial;&quot;&gt;]&lt;/span&gt;&lt;/div&gt;&lt;br&gt;&lt;div&gt;&lt;font style=&quot;font-size: 11px&quot;&gt;%Description%&lt;/font&gt;&lt;/div&gt;" Name="Client" Description="" UID="Client" Type="External person" id="VNVTj4tJlUMc3JKADqYf-2">
                    <mxCell style="html=1;fontSize=11;dashed=0;whiteSpace=wrap;fillColor=#6C6477;strokeColor=#4D4D4D;fontColor=#ffffff;shape=mxgraph.c4.person2;align=center;metaEdit=1;points=[[0,0.68,0,-2,0],[0.01,0.52,0,0,0],[0.01,0.84,0,0,0],[0.25,1,0,0,0],[0.5,0,0,0,0],[0.5,1,0,0,0],[0.75,1,0,0,0],[0.98,0.52,0,0,0],[0.98,0.84,0,0,0],[1,0.68,0,0,0]];resizable=1;rotatable=0;" parent="1" vertex="1">
                        <mxGeometry x="200" y="170" width="200" height="190" as="geometry"/>
                    </mxCell>
                </object>
                <object placeholders="1" label="&lt;div style=&quot;text-align: left&quot;&gt;&lt;div style=&quot;text-align: center&quot;&gt;&lt;b&gt;&lt;font color=&quot;#000000&quot;&gt;%Description%&lt;/font&gt;&lt;/b&gt;&lt;/div&gt;&lt;/div&gt;" Description="Sends messages" UID="" Type="ConnectionSimple" id="VNVTj4tJlUMc3JKADqYf-3">
                    <mxCell style="endArrow=block;html=1;fontSize=10;fontColor=#404040;strokeWidth=1;endFill=1;strokeColor=#828282;elbow=vertical;metaEdit=1;endSize=8;startSize=8;jumpStyle=line;jumpSize=16;rounded=0;edgeStyle=orthogonalEdgeStyle;fontStyle=0;comic=0;entryX=1;entryY=0.68;entryDx=0;entryDy=0;entryPerimeter=0;exitX=0.5;exitY=0;exitDx=0;exitDy=0;exitPerimeter=0;" parent="1" source="zF_HRekSxzChXtDlF1Q--1" target="VNVTj4tJlUMc3JKADqYf-1" edge="1">
                        <mxGeometry x="-0.1321" width="240" relative="1" as="geometry">
                            <mxPoint x="860" y="440" as="sourcePoint"/>
                            <mxPoint x="1080" y="240" as="targetPoint"/>
                            <mxPoint as="offset"/>
                        </mxGeometry>
                    </mxCell>
                </object>
                <object placeholders="1" label="&lt;div style=&quot;text-align: left&quot;&gt;&lt;div style=&quot;text-align: center&quot;&gt;&lt;b&gt;&lt;font color=&quot;#000000&quot;&gt;%Description%&lt;/font&gt;&lt;/b&gt;&lt;/div&gt;&lt;/div&gt;" Description="Uses" UID="" Type="ConnectionSimple" id="VNVTj4tJlUMc3JKADqYf-4">
                    <mxCell style="endArrow=block;html=1;fontSize=10;fontColor=#404040;strokeWidth=1;endFill=1;strokeColor=#828282;elbow=vertical;metaEdit=1;endSize=8;startSize=8;jumpStyle=line;jumpSize=16;rounded=0;edgeStyle=orthogonalEdgeStyle;fontStyle=0;comic=0;exitX=0.5;exitY=1;exitDx=0;exitDy=0;exitPerimeter=0;entryX=0.5;entryY=0;entryDx=0;entryDy=0;entryPerimeter=0;" parent="1" source="VNVTj4tJlUMc3JKADqYf-1" target="U60GGCc10YC7kli0hXQL-1" edge="1">
                        <mxGeometry x="-0.1321" width="240" relative="1" as="geometry">
                            <mxPoint x="650" y="309" as="sourcePoint"/>
                            <mxPoint x="870" y="450" as="targetPoint"/>
                            <mxPoint as="offset"/>
                        </mxGeometry>
                    </mxCell>
                </object>
                <object placeholders="1" label="&lt;div style=&quot;text-align: left&quot;&gt;&lt;div style=&quot;text-align: center&quot;&gt;&lt;b&gt;&lt;font color=&quot;#000000&quot;&gt;%Description%&lt;/font&gt;&lt;/b&gt;&lt;/div&gt;&lt;/div&gt;" Description="Uses" UID="" Type="ConnectionSimple" id="VNVTj4tJlUMc3JKADqYf-5">
                    <mxCell style="endArrow=block;html=1;fontSize=10;fontColor=#404040;strokeWidth=1;endFill=1;strokeColor=#828282;elbow=vertical;metaEdit=1;endSize=8;startSize=8;jumpStyle=line;jumpSize=16;rounded=0;edgeStyle=orthogonalEdgeStyle;fontStyle=0;comic=0;exitX=0.5;exitY=1;exitDx=0;exitDy=0;exitPerimeter=0;entryX=0;entryY=0.5;entryDx=0;entryDy=0;entryPerimeter=0;" parent="1" source="VNVTj4tJlUMc3JKADqYf-2" target="U60GGCc10YC7kli0hXQL-1" edge="1">
                        <mxGeometry x="-0.1321" width="240" relative="1" as="geometry">
                            <mxPoint x="550" y="370" as="sourcePoint"/>
                            <mxPoint x="550" y="450" as="targetPoint"/>
                            <mxPoint as="offset"/>
                        </mxGeometry>
                    </mxCell>
                </object>
                <object placeholders="1" label="&lt;div style=&quot;text-align: left&quot;&gt;&lt;div style=&quot;text-align: center&quot;&gt;&lt;b&gt;&lt;font color=&quot;#000000&quot;&gt;%Description%&lt;/font&gt;&lt;/b&gt;&lt;/div&gt;&lt;/div&gt;" Description="Sends messages" UID="" Type="ConnectionSimple" id="VNVTj4tJlUMc3JKADqYf-6">
                    <mxCell style="endArrow=block;html=1;fontSize=10;fontColor=#404040;strokeWidth=1;endFill=1;strokeColor=#828282;elbow=vertical;metaEdit=1;endSize=8;startSize=8;jumpStyle=line;jumpSize=16;rounded=0;edgeStyle=orthogonalEdgeStyle;fontStyle=0;comic=0;exitX=1;exitY=0.5;exitDx=0;exitDy=0;exitPerimeter=0;" parent="1" source="U60GGCc10YC7kli0hXQL-1" target="zF_HRekSxzChXtDlF1Q--1" edge="1">
                        <mxGeometry x="-0.1321" width="240" relative="1" as="geometry">
                            <mxPoint x="870" y="450" as="sourcePoint"/>
                            <mxPoint x="760" y="500" as="targetPoint"/>
                            <mxPoint as="offset"/>
                        </mxGeometry>
                    </mxCell>
                </object>
                <object label="&lt;font size=&quot;1&quot; style=&quot;&quot;&gt;&lt;b style=&quot;font-size: 16px;&quot;&gt;%Name%&lt;/b&gt;&lt;/font&gt;&lt;div&gt;&lt;font style=&quot;font-size: 11px;&quot;&gt;[External software system]&lt;/font&gt;&lt;/div&gt;&lt;br&gt;&lt;div&gt;&lt;font style=&quot;font-size: 12px;&quot;&gt;%Description%&lt;/font&gt;&lt;/div&gt;" Name="Push service" Description="" placeholders="1" UID="PushService" Type="External system" id="VNVTj4tJlUMc3JKADqYf-8">
                    <mxCell style="rounded=1;whiteSpace=wrap;html=1;labelBackgroundColor=none;fillColor=#8C8496;fontColor=#ffffff;align=center;arcSize=10;strokeColor=#736782;metaEdit=1;resizable=1;points=[[0.25,0,0],[0.5,0,0],[0.75,0,0],[1,0.25,0],[1,0.5,0],[1,0.75,0],[0.75,1,0],[0.5,1,0],[0.25,1,0],[0,0.75,0],[0,0.5,0],[0,0.25,0]];fontSize=16;backgroundOutline=0;collapsible=0;dropTarget=0;movableLabel=0;perimeter=rectanglePerimeter;snapToPoint=0;autosize=0;treeMoving=0;enumerate=0;rotatable=1;editable=1;movable=1;deletable=1;locked=0;connectable=1;" parent="1" vertex="1">
                        <mxGeometry x="440" y="640" width="200" height="120" as="geometry"/>
                    </mxCell>
                </object>
                <object placeholders="1" label="&lt;div style=&quot;text-align: left&quot;&gt;&lt;div style=&quot;text-align: center&quot;&gt;&lt;b&gt;&lt;font color=&quot;#000000&quot;&gt;%Description%&lt;/font&gt;&lt;/b&gt;&lt;/div&gt;&lt;/div&gt;" Description="Sends messages" UID="" Type="ConnectionSimple" id="VNVTj4tJlUMc3JKADqYf-12">
                    <mxCell style="endArrow=block;html=1;fontSize=10;fontColor=#404040;strokeWidth=1;endFill=1;strokeColor=#828282;elbow=vertical;metaEdit=1;endSize=8;startSize=8;jumpStyle=line;jumpSize=16;rounded=0;edgeStyle=orthogonalEdgeStyle;fontStyle=0;comic=0;exitX=0.5;exitY=1;exitDx=0;exitDy=0;exitPerimeter=0;" parent="1" source="U60GGCc10YC7kli0hXQL-1" target="VNVTj4tJlUMc3JKADqYf-8" edge="1">
                        <mxGeometry x="-0.1321" width="240" relative="1" as="geometry">
                            <mxPoint x="650" y="510" as="sourcePoint"/>
                            <mxPoint x="770" y="510" as="targetPoint"/>
                            <mxPoint as="offset"/>
                        </mxGeometry>
                    </mxCell>
                </object>
                <object label="&lt;font size=&quot;1&quot; style=&quot;&quot;&gt;&lt;b style=&quot;font-size: 16px;&quot;&gt;%Name%&lt;/b&gt;&lt;/font&gt;&lt;div&gt;&lt;font style=&quot;font-size: 11px;&quot;&gt;[External software system]&lt;/font&gt;&lt;/div&gt;&lt;br&gt;&lt;div&gt;&lt;font style=&quot;font-size: 12px;&quot;&gt;%Description%&lt;/font&gt;&lt;/div&gt;" Name="E-mail server" Description="Internal Microsoft Exchange Server" placeholders="1" UID="MailServer" Type="External system" id="zF_HRekSxzChXtDlF1Q--1">
                    <mxCell style="rounded=1;whiteSpace=wrap;html=1;labelBackgroundColor=none;fillColor=#8C8496;fontColor=#ffffff;align=center;arcSize=10;strokeColor=#736782;metaEdit=1;resizable=1;points=[[0.25,0,0],[0.5,0,0],[0.75,0,0],[1,0.25,0],[1,0.5,0],[1,0.75,0],[0.75,1,0],[0.5,1,0],[0.25,1,0],[0,0.75,0],[0,0.5,0],[0,0.25,0]];fontSize=16;backgroundOutline=0;collapsible=0;dropTarget=0;movableLabel=0;perimeter=rectanglePerimeter;snapToPoint=0;autosize=0;treeMoving=0;enumerate=0;rotatable=1;editable=1;movable=1;deletable=1;locked=0;connectable=1;" parent="1" vertex="1">
                        <mxGeometry x="760" y="440" width="200" height="120" as="geometry"/>
                    </mxCell>
                </object>
            </root>
        </mxGraphModel>
    </diagram>
    <diagram id="7UhaJ9ljh7ebol46HkWr" name="container">
        <mxGraphModel dx="519" dy="613" grid="1" gridSize="10" guides="1" tooltips="1" connect="1" arrows="1" fold="1" page="1" pageScale="1" pageWidth="1169" pageHeight="827" math="0" shadow="0">
            <root>
                <mxCell id="6M9tTkYtrs8H_QPtwX7E-0"/>
                <mxCell id="6M9tTkYtrs8H_QPtwX7E-1" parent="6M9tTkYtrs8H_QPtwX7E-0"/>
                <object placeholders="1" label="&lt;font style=&quot;font-size: 16px&quot;&gt;&lt;b&gt;&lt;div style=&quot;text-align: left&quot;&gt;[Containers]: %Name%&lt;/div&gt;&lt;/b&gt;&lt;/font&gt;&lt;div style=&quot;text-align: left&quot;&gt;&lt;font color=&quot;#4f5a5b&quot;&gt;%Description%&lt;/font&gt;&lt;/div&gt;" Name="loyalty program components" Description="loyalty program components for UI, business logic and storing data" id="CIt8JdF0HeUSTsswacwt-1">
                    <mxCell style="text;html=1;strokeColor=none;fillColor=none;align=left;verticalAlign=top;whiteSpace=wrap;rounded=0;metaEdit=1;allowArrows=0;resizable=1;rotatable=0;connectable=0;recursiveResize=0;expand=0;pointerEvents=0;points=[[0.25,0,0],[0.5,0,0],[0.75,0,0],[1,0.25,0],[1,0.5,0],[1,0.75,0],[0.75,1,0],[0.5,1,0],[0.25,1,0],[0,0.75,0],[0,0.5,0],[0,0.25,0]];" parent="6M9tTkYtrs8H_QPtwX7E-1" vertex="1">
                        <mxGeometry x="80" y="40" width="440" height="40" as="geometry"/>
                    </mxCell>
                </object>
                <object placeholders="1" label="&lt;font style=&quot;font-size: 16px&quot;&gt;&lt;b&gt;&lt;div style=&quot;text-align: left&quot;&gt;%Name%&lt;/div&gt;&lt;/b&gt;&lt;/font&gt;&lt;div style=&quot;text-align: left&quot;&gt;[Software system]&lt;/div&gt;" Name="Loyalty program" id="jtPvm4RudPLqQ_439Zoe-5">
                    <mxCell style="rounded=1;fontSize=11;whiteSpace=wrap;html=1;dashed=1;arcSize=20;fillColor=none;strokeColor=#666666;fontColor=#333333;labelBackgroundColor=none;align=left;verticalAlign=bottom;labelBorderColor=none;spacingTop=0;spacing=10;dashPattern=8 4;metaEdit=1;rotatable=0;perimeter=rectanglePerimeter;noLabel=0;labelPadding=0;allowArrows=0;connectable=0;expand=0;recursiveResize=0;editable=1;pointerEvents=0;absoluteArcSize=1;points=[[0.25,0,0],[0.5,0,0],[0.75,0,0],[1,0.25,0],[1,0.5,0],[1,0.75,0],[0.75,1,0],[0.5,1,0],[0.25,1,0],[0,0.75,0],[0,0.5,0],[0,0.25,0]];container=0;collapsible=0;" parent="6M9tTkYtrs8H_QPtwX7E-1" vertex="1">
                        <mxGeometry x="320" y="360" width="1000" height="480" as="geometry">
                            <mxRectangle x="640" y="200" width="160" height="80" as="alternateBounds"/>
                        </mxGeometry>
                    </mxCell>
                </object>
                <object label="&lt;font size=&quot;1&quot; style=&quot;&quot;&gt;&lt;b style=&quot;font-size: 16px;&quot;&gt;%Name%&lt;/b&gt;&lt;/font&gt;&lt;div&gt;&lt;font style=&quot;font-size: 11px;&quot;&gt;[External software system]&lt;/font&gt;&lt;/div&gt;&lt;br&gt;&lt;div&gt;&lt;font style=&quot;font-size: 12px;&quot;&gt;%Description%&lt;/font&gt;&lt;/div&gt;" Name="E-mail server" Description="Internal Microsoft Exchange Server" placeholders="1" UID="MailServer" Type="External system" id="E5um7t-vtuKX7y-Cxjin-1">
                    <mxCell style="rounded=1;whiteSpace=wrap;html=1;labelBackgroundColor=none;fillColor=#8C8496;fontColor=#ffffff;align=center;arcSize=10;strokeColor=#736782;metaEdit=1;resizable=1;points=[[0.25,0,0],[0.5,0,0],[0.75,0,0],[1,0.25,0],[1,0.5,0],[1,0.75,0],[0.75,1,0],[0.5,1,0],[0.25,1,0],[0,0.75,0],[0,0.5,0],[0,0.25,0]];fontSize=16;backgroundOutline=0;collapsible=0;dropTarget=0;movableLabel=0;perimeter=rectanglePerimeter;snapToPoint=0;autosize=0;treeMoving=0;enumerate=0;rotatable=1;editable=1;movable=1;deletable=1;locked=0;connectable=1;" parent="6M9tTkYtrs8H_QPtwX7E-1" vertex="1">
                        <mxGeometry x="720" y="200" width="200" height="120" as="geometry"/>
                    </mxCell>
                </object>
                <object placeholders="1" label="&lt;div style=&quot;text-align: left&quot;&gt;&lt;div style=&quot;text-align: center&quot;&gt;&lt;b&gt;&lt;font color=&quot;#000000&quot;&gt;%Description%&lt;/font&gt;&lt;/b&gt;&lt;/div&gt;&lt;div style=&quot;text-align: center&quot;&gt;&lt;font color=&quot;#000000&quot;&gt;[%Technology%]&lt;/font&gt;&lt;/div&gt;&lt;/div&gt;" Description="Send messages" Technology="TCP/SMTP" UID="" Type="Connection" Format="HTML" id="E5um7t-vtuKX7y-Cxjin-3">
                    <mxCell style="endArrow=blockThin;html=1;fontSize=10;fontColor=#404040;strokeWidth=1;endFill=1;strokeColor=#828282;elbow=vertical;metaEdit=1;endSize=10;startSize=10;jumpStyle=line;jumpSize=16;rounded=1;edgeStyle=orthogonalEdgeStyle;" parent="6M9tTkYtrs8H_QPtwX7E-1" source="E5um7t-vtuKX7y-Cxjin-4" target="E5um7t-vtuKX7y-Cxjin-1" edge="1">
                        <mxGeometry x="-0.14" width="240" relative="1" as="geometry">
                            <mxPoint x="820" y="470" as="sourcePoint"/>
                            <mxPoint x="1410" y="300" as="targetPoint"/>
                            <mxPoint as="offset"/>
                        </mxGeometry>
                    </mxCell>
                </object>
                <object placeholders="1" label="&lt;font style=&quot;font-size: 16px&quot;&gt;&lt;b&gt;%Name%&lt;/b&gt;&lt;/font&gt;&lt;div&gt;&lt;font style=&quot;font-size: 11px;&quot;&gt;[%Type%: %Technology%]&lt;/font&gt;&lt;/div&gt;&lt;br&gt;&lt;div&gt;&lt;font style=&quot;font-size: 12px;&quot;&gt;%Description%&lt;/font&gt;&lt;/div&gt;" Name="Loyalty service" Description="" Technology="Spring" Type="Component" UID="LoyaltyService" Parent="Loyalty" id="E5um7t-vtuKX7y-Cxjin-4">
                    <mxCell style="rounded=1;whiteSpace=wrap;html=1;labelBackgroundColor=none;fillColor=#23A2D9;fontColor=#ffffff;align=center;arcSize=6;strokeColor=#0077CC;metaEdit=1;resizable=1;points=[[0.25,0,0],[0.5,0,0],[0.75,0,0],[1,0.25,0],[1,0.5,0],[1,0.75,0],[0.75,1,0],[0.5,1,0],[0.25,1,0],[0,0.75,0],[0,0.5,0],[0,0.25,0]];fontSize=16;resizeWidth=0;resizeHeight=0;fixedWidth=0;portConstraintRotation=0;rotatable=0;" parent="6M9tTkYtrs8H_QPtwX7E-1" vertex="1">
                        <mxGeometry x="720" y="480" width="200" height="120" as="geometry"/>
                    </mxCell>
                </object>
                <object label="&lt;font style=&quot;color: rgb(255, 255, 255); text-wrap: wrap; font-size: 16px; border-color: var(--border-color);&quot;&gt;&lt;b style=&quot;border-color: var(--border-color);&quot;&gt;%Name%&lt;/b&gt;&lt;/font&gt;&lt;div style=&quot;color: rgb(255, 255, 255); text-wrap: wrap; font-size: 16px; border-color: var(--border-color); line-height: 16px;&quot;&gt;&lt;font style=&quot;border-color: var(--border-color); font-size: 11px;&quot;&gt;[%Type%: %Technology%]&lt;/font&gt;&lt;/div&gt;&lt;br style=&quot;color: rgb(255, 255, 255); text-wrap: wrap; font-size: 16px; border-color: var(--border-color);&quot;&gt;&lt;div style=&quot;color: rgb(255, 255, 255); text-wrap: wrap; font-size: 16px; border-color: var(--border-color); line-height: 16px;&quot;&gt;&lt;font style=&quot;border-color: var(--border-color); font-size: 12px;&quot;&gt;%Description%&lt;/font&gt;&lt;/div&gt;" placeholders="1" Description="" Name="Mobile application" Technology="Swift" Type="Mobile application" UID="MobileApp" Parent="Loyalty" id="E5um7t-vtuKX7y-Cxjin-5">
                    <mxCell style="shape=image;aspect=fixed;image=data:image/svg+xml,PD94bWwgdmVyc2lvbj0iMS4wIiBlbmNvZGluZz0iVVRGLTgiPz4KPCFET0NUWVBFIHN2ZyBQVUJMSUMgIi0vL1czQy8vRFREIFNWRyAxLjEvL0VOIiAiaHR0cDovL3d3dy53My5vcmcvR3JhcGhpY3MvU1ZHLzEuMS9EVEQvc3ZnMTEuZHRkIj4KPHN2ZyB4bWxucz0iaHR0cDovL3d3dy53My5vcmcvMjAwMC9zdmciIHhtbG5zOnhsaW5rPSJodHRwOi8vd3d3LnczLm9yZy8xOTk5L3hsaW5rIiB2ZXJzaW9uPSIxLjEiIHdpZHRoPSIyMDFweCIgaGVpZ2h0PSIxMjFweCIgdmlld0JveD0iLTAuNSAtMC41IDIwMSAxMjEiPjxkZWZzLz48Zz48Zy8+PGc+PHJlY3QgeD0iMCIgeT0iMCIgd2lkdGg9IjIwMCIgaGVpZ2h0PSIxMjAiIHJ4PSI4LjQiIHJ5PSI4LjQiIGZpbGw9IiMxMThhY2QiIHN0cm9rZT0ibm9uZSIgcG9pbnRlci1ldmVudHM9ImFsbCIvPjwvZz48Zz48ZyB0cmFuc2Zvcm09InRyYW5zbGF0ZSgtMC41IC0wLjUpIj48c3dpdGNoPjxmb3JlaWduT2JqZWN0IHBvaW50ZXItZXZlbnRzPSJub25lIiB3aWR0aD0iMTAwJSIgaGVpZ2h0PSIxMDAlIiByZXF1aXJlZEZlYXR1cmVzPSJodHRwOi8vd3d3LnczLm9yZy9UUi9TVkcxMS9mZWF0dXJlI0V4dGVuc2liaWxpdHkiIHN0eWxlPSJvdmVyZmxvdzogdmlzaWJsZTsgdGV4dC1hbGlnbjogbGVmdDsiPjxkaXYgeG1sbnM9Imh0dHA6Ly93d3cudzMub3JnLzE5OTkveGh0bWwiIHN0eWxlPSJkaXNwbGF5OiBmbGV4OyBhbGlnbi1pdGVtczogdW5zYWZlIGNlbnRlcjsganVzdGlmeS1jb250ZW50OiB1bnNhZmUgY2VudGVyOyB3aWR0aDogMTk4cHg7IGhlaWdodDogMXB4OyBwYWRkaW5nLXRvcDogNjBweDsgbWFyZ2luLWxlZnQ6IDFweDsiPjxkaXYgZGF0YS1kcmF3aW8tY29sb3JzPSJjb2xvcjogcmdiKDAsIDAsIDApOyAiIHN0eWxlPSJib3gtc2l6aW5nOiBib3JkZXItYm94OyBmb250LXNpemU6IDBweDsgdGV4dC1hbGlnbjogY2VudGVyOyI+PGRpdiBzdHlsZT0iZGlzcGxheTogaW5saW5lLWJsb2NrOyBmb250LXNpemU6IDE2cHg7IGZvbnQtZmFtaWx5OiBIZWx2ZXRpY2E7IGNvbG9yOiByZ2IoMCwgMCwgMCk7IGxpbmUtaGVpZ2h0OiAxLjI7IHBvaW50ZXItZXZlbnRzOiBhbGw7IHdoaXRlLXNwYWNlOiBub3JtYWw7IG92ZXJmbG93LXdyYXA6IG5vcm1hbDsiPjxmb250IHN0eWxlPSJib3JkZXItY29sb3I6IHZhcigtLWJvcmRlci1jb2xvcik7IGNvbG9yOiByZ2IoMjU1LCAyNTUsIDI1NSk7Ij48YiBzdHlsZT0iYm9yZGVyLWNvbG9yOiB2YXIoLS1ib3JkZXItY29sb3IpOyI+JU5hbWUlPC9iPjwvZm9udD48ZGl2IHN0eWxlPSJib3JkZXItY29sb3I6IHZhcigtLWJvcmRlci1jb2xvcik7IGNvbG9yOiByZ2IoMjU1LCAyNTUsIDI1NSk7IGZvbnQtc2l6ZTogMTJweDsiPltDb250YWluZXI6wqAlVGVjaG5vbG9neSVdPC9kaXY+PGJyIHN0eWxlPSJib3JkZXItY29sb3I6IHZhcigtLWJvcmRlci1jb2xvcik7IGNvbG9yOiByZ2IoMjU1LCAyNTUsIDI1NSk7IGZvbnQtc2l6ZTogMTJweDsiIC8+PGRpdiBzdHlsZT0iYm9yZGVyLWNvbG9yOiB2YXIoLS1ib3JkZXItY29sb3IpOyBmb250LXNpemU6IDEycHg7Ij48Zm9udCBzdHlsZT0iYm9yZGVyLWNvbG9yOiB2YXIoLS1ib3JkZXItY29sb3IpOyBmb250LXNpemU6IDExcHg7Ij48Zm9udCBzdHlsZT0iYm9yZGVyLWNvbG9yOiB2YXIoLS1ib3JkZXItY29sb3IpOyIgY29sb3I9IiNmZmZmZmYiPiVEZXNjcmlwdGlvbiU8L2ZvbnQ+PC9mb250PjwvZGl2PjwvZGl2PjwvZGl2PjwvZGl2PjwvZm9yZWlnbk9iamVjdD48dGV4dCB4PSIxMDAiIHk9IjY1IiBmaWxsPSJyZ2IoMCwgMCwgMCkiIGZvbnQtZmFtaWx5PSJIZWx2ZXRpY2EiIGZvbnQtc2l6ZT0iMTZweCIgdGV4dC1hbmNob3I9Im1pZGRsZSI+JU5hbWUlLi4uPC90ZXh0Pjwvc3dpdGNoPjwvZz48L2c+PGc+PHJlY3QgeD0iMjAiIHk9IjUiIHdpZHRoPSIxNjAiIGhlaWdodD0iMTEwIiByeD0iMy4zIiByeT0iMy4zIiBmaWxsPSIjMjNhMmQ5IiBzdHJva2U9Im5vbmUiIHBvaW50ZXItZXZlbnRzPSJhbGwiLz48L2c+PGc+PGVsbGlwc2UgY3g9IjEwIiBjeT0iNjAiIHJ4PSI1IiByeT0iNSIgZmlsbD0iIzIzYTJkOSIgc3Ryb2tlPSJub25lIiBwb2ludGVyLWV2ZW50cz0iYWxsIi8+PC9nPjxnPjxyZWN0IHg9IjE4OS4yNSIgeT0iNTAiIHdpZHRoPSIxLjUiIGhlaWdodD0iMjAiIHJ4PSIwLjMyIiByeT0iMC4zMiIgZmlsbD0iIzIzYTJkOSIgc3Ryb2tlPSJub25lIiBwb2ludGVyLWV2ZW50cz0iYWxsIi8+PC9nPjwvZz48L3N2Zz4=;html=1;whiteSpace=wrap;metaEdit=1;" parent="6M9tTkYtrs8H_QPtwX7E-1" vertex="1">
                        <mxGeometry x="360" y="479" width="201" height="121" as="geometry"/>
                    </mxCell>
                </object>
                <object placeholders="1" label="&lt;div style=&quot;text-align: left&quot;&gt;&lt;div style=&quot;text-align: center&quot;&gt;&lt;b&gt;&lt;font color=&quot;#000000&quot;&gt;%Description%&lt;/font&gt;&lt;/b&gt;&lt;/div&gt;&lt;div style=&quot;text-align: center&quot;&gt;&lt;font color=&quot;#000000&quot;&gt;[%Technology%]&lt;/font&gt;&lt;/div&gt;&lt;/div&gt;" Description="Makes API calls" Technology="HTTP/REST" UID="" Type="Connection" Format="JSON" id="E5um7t-vtuKX7y-Cxjin-6">
                    <mxCell style="endArrow=blockThin;html=1;fontSize=10;fontColor=#404040;strokeWidth=1;endFill=1;strokeColor=#828282;elbow=vertical;metaEdit=1;endSize=10;startSize=10;jumpStyle=line;jumpSize=16;rounded=1;edgeStyle=orthogonalEdgeStyle;" parent="6M9tTkYtrs8H_QPtwX7E-1" source="E5um7t-vtuKX7y-Cxjin-5" target="E5um7t-vtuKX7y-Cxjin-4" edge="1">
                        <mxGeometry x="-0.1348" width="240" relative="1" as="geometry">
                            <mxPoint x="830" y="490" as="sourcePoint"/>
                            <mxPoint x="830" y="330" as="targetPoint"/>
                            <mxPoint as="offset"/>
                        </mxGeometry>
                    </mxCell>
                </object>
                <object placeholders="1" label="&lt;font style=&quot;font-size: 16px&quot;&gt;&lt;b&gt;%Name%&lt;/b&gt;&lt;/font&gt;&lt;div&gt;[%Type%]&lt;/div&gt;&lt;br&gt;&lt;div&gt;&lt;font style=&quot;font-size: 11px&quot;&gt;%Description%&lt;/font&gt;&lt;/div&gt;" Name="Employee" Description="Description" Type="Person" UID="Employee" id="E5um7t-vtuKX7y-Cxjin-8">
                    <mxCell style="html=1;fontSize=11;dashed=0;whiteSpace=wrap;fillColor=#083F75;strokeColor=#06315C;fontColor=#ffffff;shape=mxgraph.c4.person2;align=center;metaEdit=1;points=[[0,0.55,0,0,0],[0,0.68,0,0,0],[0,0.81,0,0,0],[0.25,1,0,0,0],[0.5,0,0,0,0],[0.5,1,0,0,0],[0.75,1,0,0,0],[1,0.53,0,0,0],[1,0.68,0,0,0],[1,0.81,0,0,0]];resizable=1;autosize=0;resizeWidth=0;fillStyle=auto;rotatable=0;strokeWidth=1;" parent="6M9tTkYtrs8H_QPtwX7E-1" vertex="1">
                        <mxGeometry x="80" y="410" width="200" height="190" as="geometry"/>
                    </mxCell>
                </object>
                <object placeholders="1" label="&lt;div style=&quot;text-align: left&quot;&gt;&lt;div style=&quot;text-align: center&quot;&gt;&lt;b&gt;&lt;font color=&quot;#000000&quot;&gt;%Description%&lt;/font&gt;&lt;/b&gt;&lt;/div&gt;&lt;/div&gt;" Description="Uses" UID="" Type="ConnectionSimple" id="nbfsE5orrtUMZ71C661m-0">
                    <mxCell style="endArrow=block;html=1;fontSize=10;fontColor=#404040;strokeWidth=1;endFill=1;strokeColor=#828282;elbow=vertical;metaEdit=1;endSize=8;startSize=8;jumpStyle=line;jumpSize=16;rounded=0;edgeStyle=orthogonalEdgeStyle;fontStyle=0;comic=0;entryX=0;entryY=0.5;entryDx=0;entryDy=0;exitX=1;exitY=0.68;exitDx=0;exitDy=0;exitPerimeter=0;" parent="6M9tTkYtrs8H_QPtwX7E-1" source="E5um7t-vtuKX7y-Cxjin-8" target="E5um7t-vtuKX7y-Cxjin-5" edge="1">
                        <mxGeometry x="-0.1321" width="240" relative="1" as="geometry">
                            <mxPoint x="280" y="539.1999999999998" as="sourcePoint"/>
                            <mxPoint x="540" y="520" as="targetPoint"/>
                            <mxPoint as="offset"/>
                        </mxGeometry>
                    </mxCell>
                </object>
                <object placeholders="1" label="&lt;font style=&quot;font-size: 16px&quot;&gt;&lt;b&gt;%Name%&lt;/b&gt;&lt;/font&gt;&lt;div&gt;&lt;font style=&quot;font-size: 11px;&quot;&gt;[%Type%:&amp;nbsp;%Technology%]&lt;/font&gt;&lt;/div&gt;&lt;br&gt;&lt;div&gt;&lt;font style=&quot;&quot;&gt;&lt;font style=&quot;font-size: 12px;&quot;&gt;%Description%&lt;/font&gt;&lt;/font&gt;&lt;/div&gt;" Description="" Technology="Kafka" Name="Message broker" Type="Message broker" UID="Kafka" Parent="Loyalty" id="nbfsE5orrtUMZ71C661m-1">
                    <mxCell style="shape=cylinder3;size=15;direction=south;whiteSpace=wrap;html=1;boundedLbl=1;rounded=0;labelBackgroundColor=none;fillColor=#23A2D9;fontSize=12;fontColor=#ffffff;align=center;strokeColor=#0077CC;metaEdit=1;points=[[0.5,0,0],[1,0.25,0],[1,0.5,0],[1,0.75,0],[0.5,1,0],[0,0.75,0],[0,0.5,0],[0,0.25,0]];resizable=1;shadow=0;rotatable=0;" parent="6M9tTkYtrs8H_QPtwX7E-1" vertex="1">
                        <mxGeometry x="1080" y="640" width="200" height="120" as="geometry"/>
                    </mxCell>
                </object>
                <object placeholders="1" label="&lt;div style=&quot;text-align: left&quot;&gt;&lt;div style=&quot;text-align: center&quot;&gt;&lt;b&gt;&lt;font color=&quot;#000000&quot;&gt;%Description%&lt;/font&gt;&lt;/b&gt;&lt;/div&gt;&lt;div style=&quot;text-align: center&quot;&gt;&lt;font color=&quot;#000000&quot;&gt;[%Technology%]&lt;/font&gt;&lt;/div&gt;&lt;/div&gt;" Description="Send messages" Technology="TCP" UID="" Type="Connection" Format="" id="nbfsE5orrtUMZ71C661m-2">
                    <mxCell style="endArrow=blockThin;html=1;fontSize=10;fontColor=#404040;strokeWidth=1;endFill=1;strokeColor=#828282;elbow=vertical;metaEdit=1;endSize=10;startSize=10;jumpStyle=line;jumpSize=16;rounded=1;edgeStyle=orthogonalEdgeStyle;entryX=0.5;entryY=1;entryDx=0;entryDy=0;entryPerimeter=0;exitX=0.5;exitY=1;exitDx=0;exitDy=0;exitPerimeter=0;" parent="6M9tTkYtrs8H_QPtwX7E-1" source="E5um7t-vtuKX7y-Cxjin-4" target="nbfsE5orrtUMZ71C661m-1" edge="1">
                        <mxGeometry x="0.1875" width="240" relative="1" as="geometry">
                            <mxPoint x="571" y="550" as="sourcePoint"/>
                            <mxPoint x="730" y="550" as="targetPoint"/>
                            <mxPoint as="offset"/>
                        </mxGeometry>
                    </mxCell>
                </object>
                <object placeholders="1" label="&lt;font style=&quot;font-size: 16px&quot;&gt;&lt;b&gt;%Name%&lt;/b&gt;&lt;/font&gt;&lt;div&gt;&lt;font style=&quot;font-size: 11px;&quot;&gt;[%Type%:&amp;nbsp;%Technology%]&lt;/font&gt;&lt;/div&gt;&lt;br&gt;&lt;div&gt;&lt;font style=&quot;&quot;&gt;&lt;font style=&quot;font-size: 12px;&quot;&gt;%Description%&lt;/font&gt;&lt;/font&gt;&lt;/div&gt;" Name="Loyalty Database" Description="" Technology="Oracle Database 12" Type="Storage" UID="OracleDB" Parent="Loyalty" id="nbfsE5orrtUMZ71C661m-3">
                    <mxCell style="shape=cylinder3;size=15;whiteSpace=wrap;html=1;boundedLbl=1;rounded=0;labelBackgroundColor=none;fillColor=#23A2D9;fontSize=12;fontColor=#ffffff;align=center;strokeColor=#0077CC;metaEdit=1;points=[[0.5,0,0],[1,0.25,0],[1,0.5,0],[1,0.75,0],[0.5,1,0],[0,0.75,0],[0,0.5,0],[0,0.25,0]];resizable=1;rotatable=0;" parent="6M9tTkYtrs8H_QPtwX7E-1" vertex="1">
                        <mxGeometry x="1080" y="480" width="200" height="120" as="geometry"/>
                    </mxCell>
                </object>
                <object placeholders="1" label="&lt;div style=&quot;text-align: left&quot;&gt;&lt;div style=&quot;text-align: center&quot;&gt;&lt;b&gt;&lt;font color=&quot;#000000&quot;&gt;%Description%&lt;/font&gt;&lt;/b&gt;&lt;/div&gt;&lt;div style=&quot;text-align: center&quot;&gt;&lt;font color=&quot;#000000&quot;&gt;[%Technology%]&lt;/font&gt;&lt;/div&gt;&lt;/div&gt;" Description="Make SQL requests" Technology="TCP" UID="" Type="Connection" Format="" id="nbfsE5orrtUMZ71C661m-4">
                    <mxCell style="endArrow=blockThin;html=1;fontSize=10;fontColor=#404040;strokeWidth=1;endFill=1;strokeColor=#828282;elbow=vertical;metaEdit=1;endSize=10;startSize=10;jumpStyle=line;jumpSize=16;rounded=1;edgeStyle=orthogonalEdgeStyle;" parent="6M9tTkYtrs8H_QPtwX7E-1" source="E5um7t-vtuKX7y-Cxjin-4" target="nbfsE5orrtUMZ71C661m-3" edge="1">
                        <mxGeometry width="240" relative="1" as="geometry">
                            <mxPoint x="571" y="550" as="sourcePoint"/>
                            <mxPoint x="730" y="550" as="targetPoint"/>
                            <mxPoint as="offset"/>
                        </mxGeometry>
                    </mxCell>
                </object>
                <object Name="Web application" placeholders="1" Description="" Technology="Typescript, React" label="&lt;font style=&quot;font-size: 16px; text-wrap: wrap; border-color: var(--border-color);&quot;&gt;&lt;b style=&quot;border-color: var(--border-color);&quot;&gt;%Name%&lt;/b&gt;&lt;/font&gt;&lt;div style=&quot;font-size: 16px; text-wrap: wrap; border-color: var(--border-color); line-height: 100%;&quot;&gt;&lt;font style=&quot;border-color: var(--border-color); font-size: 11px;&quot;&gt;[%Type%: %Technology%]&lt;/font&gt;&lt;/div&gt;&lt;br style=&quot;font-size: 16px; text-wrap: wrap; border-color: var(--border-color);&quot;&gt;&lt;div style=&quot;font-size: 16px; text-wrap: wrap; border-color: var(--border-color); line-height: 100%;&quot;&gt;&lt;font style=&quot;border-color: var(--border-color); font-size: 12px;&quot;&gt;%Description%&lt;/font&gt;&lt;/div&gt;" Type="Web application" UID="WebApp" Parent="Loyalty" id="hWk2N7ny4WaX2SblqAHJ-0">
                    <mxCell style="shape=image;image=data:image/svg+xml,PD94bWwgdmVyc2lvbj0iMS4wIiBlbmNvZGluZz0iVVRGLTgiPz4KPCFET0NUWVBFIHN2ZyBQVUJMSUMgIi0vL1czQy8vRFREIFNWRyAxLjEvL0VOIiAiaHR0cDovL3d3dy53My5vcmcvR3JhcGhpY3MvU1ZHLzEuMS9EVEQvc3ZnMTEuZHRkIj4KPHN2ZyB4bWxucz0iaHR0cDovL3d3dy53My5vcmcvMjAwMC9zdmciIHhtbG5zOnhsaW5rPSJodHRwOi8vd3d3LnczLm9yZy8xOTk5L3hsaW5rIiB2ZXJzaW9uPSIxLjEiIHdpZHRoPSIyMDFweCIgaGVpZ2h0PSIxMjBweCIgdmlld0JveD0iLTAuNSAtMC41IDIwMSAxMjAiPjxkZWZzLz48Zz48Zy8+PGc+PHJlY3QgeD0iMCIgeT0iMCIgd2lkdGg9IjIwMCIgaGVpZ2h0PSIxMjAiIHJ4PSI4LjQiIHJ5PSI4LjQiIGZpbGw9IiMxMThhY2QiIHN0cm9rZT0ibm9uZSIgcG9pbnRlci1ldmVudHM9ImFsbCIvPjwvZz48Zz48cmVjdCB4PSI2IiB5PSIyMCIgd2lkdGg9IjE4OSIgaGVpZ2h0PSI5NSIgcng9IjIuODUiIHJ5PSIyLjg1IiBmaWxsPSIjMjNhMmQ5IiBzdHJva2U9Im5vbmUiIHBvaW50ZXItZXZlbnRzPSJhbGwiLz48L2c+PGc+PHJlY3QgeD0iNTAiIHk9IjUiIHdpZHRoPSIxNDUiIGhlaWdodD0iMTAiIHJ4PSI1IiByeT0iNSIgZmlsbD0iIzIzYTJkOSIgc3Ryb2tlPSJub25lIiBwb2ludGVyLWV2ZW50cz0iYWxsIi8+PC9nPjxnPjxlbGxpcHNlIGN4PSIxMSIgY3k9IjEwIiByeD0iNSIgcnk9IjUiIGZpbGw9IiMyM2EyZDkiIHN0cm9rZT0ibm9uZSIgcG9pbnRlci1ldmVudHM9ImFsbCIvPjwvZz48Zz48ZWxsaXBzZSBjeD0iMjQiIGN5PSIxMCIgcng9IjUiIHJ5PSI1IiBmaWxsPSIjMjNhMmQ5IiBzdHJva2U9Im5vbmUiIHBvaW50ZXItZXZlbnRzPSJhbGwiLz48L2c+PGc+PGVsbGlwc2UgY3g9IjM3IiBjeT0iMTAiIHJ4PSI1IiByeT0iNSIgZmlsbD0iIzIzYTJkOSIgc3Ryb2tlPSJub25lIiBwb2ludGVyLWV2ZW50cz0iYWxsIi8+PC9nPjwvZz48L3N2Zz4=;fontColor=#FFFFFF;fontSize=13;strokeWidth=2;metaEdit=1;editable=1;movable=1;resizable=1;rotatable=1;deletable=1;locked=0;connectable=1;html=1;align=center;autosize=0;fillOpacity=100;imageAspect=1;perimeter=rectanglePerimeter;fixDash=0;container=0;recursiveResize=1;expand=1;backgroundOutline=0;fixedWidth=0;resizeWidth=0;resizeHeight=0;imageBorder=none;imageBackground=none;aspect=fixed;verticalAlign=middle;horizontal=1;spacingTop=0;whiteSpace=wrap;" parent="6M9tTkYtrs8H_QPtwX7E-1" vertex="1">
                        <mxGeometry x="360" y="640" width="201" height="120" as="geometry"/>
                    </mxCell>
                </object>
                <object placeholders="1" label="&lt;div style=&quot;text-align: left&quot;&gt;&lt;div style=&quot;text-align: center&quot;&gt;&lt;b&gt;&lt;font color=&quot;#000000&quot;&gt;%Description%&lt;/font&gt;&lt;/b&gt;&lt;/div&gt;&lt;div style=&quot;text-align: center&quot;&gt;&lt;font color=&quot;#000000&quot;&gt;[%Technology%]&lt;/font&gt;&lt;/div&gt;&lt;/div&gt;" Description="Makes API calls" Technology="HTTP/REST" UID="" Type="Connection" Format="JSON" id="hWk2N7ny4WaX2SblqAHJ-1">
                    <mxCell style="endArrow=blockThin;html=1;fontSize=10;fontColor=#404040;strokeWidth=1;endFill=1;strokeColor=#828282;elbow=vertical;metaEdit=1;endSize=10;startSize=10;jumpStyle=line;jumpSize=16;rounded=1;edgeStyle=orthogonalEdgeStyle;entryX=0.25;entryY=1;entryDx=0;entryDy=0;entryPerimeter=0;" parent="6M9tTkYtrs8H_QPtwX7E-1" source="hWk2N7ny4WaX2SblqAHJ-0" target="E5um7t-vtuKX7y-Cxjin-4" edge="1">
                        <mxGeometry x="-0.1348" width="240" relative="1" as="geometry">
                            <mxPoint x="571" y="550" as="sourcePoint"/>
                            <mxPoint x="730" y="550" as="targetPoint"/>
                            <mxPoint as="offset"/>
                        </mxGeometry>
                    </mxCell>
                </object>
                <object placeholders="1" label="&lt;div style=&quot;text-align: left&quot;&gt;&lt;div style=&quot;text-align: center&quot;&gt;&lt;b&gt;&lt;font color=&quot;#000000&quot;&gt;%Description%&lt;/font&gt;&lt;/b&gt;&lt;/div&gt;&lt;/div&gt;" Description="Uses" UID="" Type="ConnectionSimple" id="hWk2N7ny4WaX2SblqAHJ-2">
                    <mxCell style="endArrow=block;html=1;fontSize=10;fontColor=#404040;strokeWidth=1;endFill=1;strokeColor=#828282;elbow=vertical;metaEdit=1;endSize=8;startSize=8;jumpStyle=line;jumpSize=16;rounded=0;edgeStyle=orthogonalEdgeStyle;fontStyle=0;comic=0;entryX=0;entryY=0.5;entryDx=0;entryDy=0;exitX=0.5;exitY=1;exitDx=0;exitDy=0;exitPerimeter=0;" parent="6M9tTkYtrs8H_QPtwX7E-1" source="E5um7t-vtuKX7y-Cxjin-8" target="hWk2N7ny4WaX2SblqAHJ-0" edge="1">
                        <mxGeometry x="-0.1321" width="240" relative="1" as="geometry">
                            <mxPoint x="180" y="599.9999999999998" as="sourcePoint"/>
                            <mxPoint x="370" y="550" as="targetPoint"/>
                            <mxPoint as="offset"/>
                        </mxGeometry>
                    </mxCell>
                </object>
                <object placeholders="1" label="&lt;font style=&quot;font-size: 16px&quot;&gt;&lt;b&gt;%Name%&lt;/b&gt;&lt;/font&gt;&lt;div&gt;[&lt;span style=&quot;background-color: initial;&quot;&gt;%Type%&lt;/span&gt;&lt;span style=&quot;background-color: initial;&quot;&gt;]&lt;/span&gt;&lt;/div&gt;&lt;br&gt;&lt;div&gt;&lt;font style=&quot;font-size: 11px&quot;&gt;%Description%&lt;/font&gt;&lt;/div&gt;" Name="Client" Description="" UID="Client" Type="External person" id="yzK9g_A47Ki_ACVhjlbD-0">
                    <mxCell style="html=1;fontSize=11;dashed=0;whiteSpace=wrap;fillColor=#6C6477;strokeColor=#4D4D4D;fontColor=#ffffff;shape=mxgraph.c4.person2;align=center;metaEdit=1;points=[[0,0.68,0,-2,0],[0.01,0.52,0,0,0],[0.01,0.84,0,0,0],[0.25,1,0,0,0],[0.5,0,0,0,0],[0.5,1,0,0,0],[0.75,1,0,0,0],[0.98,0.52,0,0,0],[0.98,0.84,0,0,0],[1,0.68,0,0,0]];resizable=1;rotatable=0;" parent="6M9tTkYtrs8H_QPtwX7E-1" vertex="1">
                        <mxGeometry x="361" y="130" width="200" height="190" as="geometry"/>
                    </mxCell>
                </object>
                <object placeholders="1" label="&lt;div style=&quot;text-align: left&quot;&gt;&lt;div style=&quot;text-align: center&quot;&gt;&lt;b&gt;&lt;font color=&quot;#000000&quot;&gt;%Description%&lt;/font&gt;&lt;/b&gt;&lt;/div&gt;&lt;/div&gt;" Description="Uses" UID="" Type="ConnectionSimple" id="yzK9g_A47Ki_ACVhjlbD-1">
                    <mxCell style="endArrow=block;html=1;fontSize=10;fontColor=#404040;strokeWidth=1;endFill=1;strokeColor=#828282;elbow=vertical;metaEdit=1;endSize=8;startSize=8;jumpStyle=line;jumpSize=16;rounded=0;edgeStyle=orthogonalEdgeStyle;fontStyle=0;comic=0;" parent="6M9tTkYtrs8H_QPtwX7E-1" source="yzK9g_A47Ki_ACVhjlbD-0" target="E5um7t-vtuKX7y-Cxjin-5" edge="1">
                        <mxGeometry x="-0.1321" width="240" relative="1" as="geometry">
                            <mxPoint x="290" y="539" as="sourcePoint"/>
                            <mxPoint x="370" y="540" as="targetPoint"/>
                            <mxPoint as="offset"/>
                        </mxGeometry>
                    </mxCell>
                </object>
                <object label="&lt;font size=&quot;1&quot; style=&quot;&quot;&gt;&lt;b style=&quot;font-size: 16px;&quot;&gt;%Name%&lt;/b&gt;&lt;/font&gt;&lt;div&gt;&lt;font style=&quot;font-size: 11px;&quot;&gt;[External software system]&lt;/font&gt;&lt;/div&gt;&lt;br&gt;&lt;div&gt;&lt;font style=&quot;font-size: 12px;&quot;&gt;%Description%&lt;/font&gt;&lt;/div&gt;" Name="Push service" Description="" placeholders="1" UID="PushService" Type="External system" id="uZQOyGppR4lhjXN7y-o7-0">
                    <mxCell style="rounded=1;whiteSpace=wrap;html=1;labelBackgroundColor=none;fillColor=#8C8496;fontColor=#ffffff;align=center;arcSize=10;strokeColor=#736782;metaEdit=1;resizable=1;points=[[0.25,0,0],[0.5,0,0],[0.75,0,0],[1,0.25,0],[1,0.5,0],[1,0.75,0],[0.75,1,0],[0.5,1,0],[0.25,1,0],[0,0.75,0],[0,0.5,0],[0,0.25,0]];fontSize=16;backgroundOutline=0;collapsible=0;dropTarget=0;movableLabel=0;perimeter=rectanglePerimeter;snapToPoint=0;autosize=0;treeMoving=0;enumerate=0;rotatable=1;editable=1;movable=1;deletable=1;locked=0;connectable=1;" parent="6M9tTkYtrs8H_QPtwX7E-1" vertex="1">
                        <mxGeometry x="960" y="200" width="200" height="120" as="geometry"/>
                    </mxCell>
                </object>
                <object placeholders="1" label="&lt;div style=&quot;text-align: left&quot;&gt;&lt;div style=&quot;text-align: center&quot;&gt;&lt;b&gt;&lt;font color=&quot;#000000&quot;&gt;%Description%&lt;/font&gt;&lt;/b&gt;&lt;/div&gt;&lt;div style=&quot;text-align: center&quot;&gt;&lt;font color=&quot;#000000&quot;&gt;[%Technology%]&lt;/font&gt;&lt;/div&gt;&lt;/div&gt;" Description="Send messages" Technology="HTTP/REST" UID="" Type="Connection" Format="JSON" id="uZQOyGppR4lhjXN7y-o7-1">
                    <mxCell style="endArrow=blockThin;html=1;fontSize=10;fontColor=#404040;strokeWidth=1;endFill=1;strokeColor=#828282;elbow=vertical;metaEdit=1;endSize=10;startSize=10;jumpStyle=line;jumpSize=16;rounded=1;edgeStyle=orthogonalEdgeStyle;entryX=0.5;entryY=1;entryDx=0;entryDy=0;entryPerimeter=0;exitX=0.75;exitY=0;exitDx=0;exitDy=0;exitPerimeter=0;" parent="6M9tTkYtrs8H_QPtwX7E-1" source="E5um7t-vtuKX7y-Cxjin-4" target="uZQOyGppR4lhjXN7y-o7-0" edge="1">
                        <mxGeometry x="-0.14" width="240" relative="1" as="geometry">
                            <mxPoint x="830" y="490" as="sourcePoint"/>
                            <mxPoint x="830" y="330" as="targetPoint"/>
                            <mxPoint as="offset"/>
                        </mxGeometry>
                    </mxCell>
                </object>
            </root>
        </mxGraphModel>
    </diagram>
    <diagram id="2XVK7RYDKxdhMDquu4st" name="component">
        <mxGraphModel dx="519" dy="613" grid="1" gridSize="10" guides="1" tooltips="1" connect="1" arrows="0" fold="1" page="1" pageScale="1" pageWidth="1169" pageHeight="827" background="none" math="0" shadow="0">
            <root>
                <mxCell id="AVTp8zRlv71y_wTY7c-L-0"/>
                <mxCell id="AVTp8zRlv71y_wTY7c-L-1" parent="AVTp8zRlv71y_wTY7c-L-0"/>
                <object placeholders="1" label="&lt;font style=&quot;font-size: 16px&quot;&gt;&lt;b&gt;&lt;div style=&quot;text-align: left&quot;&gt;%Name%&lt;/div&gt;&lt;/b&gt;&lt;/font&gt;&lt;div style=&quot;text-align: left&quot;&gt;[Container]&lt;/div&gt;" Name="Loyalty service" id="hT-xEElClosBMQLVf1Me-0">
                    <mxCell style="rounded=1;fontSize=11;whiteSpace=wrap;html=1;dashed=1;arcSize=20;fillColor=none;strokeColor=#666666;fontColor=#333333;labelBackgroundColor=none;align=left;verticalAlign=bottom;labelBorderColor=none;spacingTop=0;spacing=10;dashPattern=8 4;metaEdit=1;rotatable=0;perimeter=rectanglePerimeter;noLabel=0;labelPadding=0;allowArrows=0;connectable=0;expand=0;recursiveResize=0;editable=1;pointerEvents=0;absoluteArcSize=1;points=[[0.25,0,0],[0.5,0,0],[0.75,0,0],[1,0.25,0],[1,0.5,0],[1,0.75,0],[0.75,1,0],[0.5,1,0],[0.25,1,0],[0,0.75,0],[0,0.5,0],[0,0.25,0]];container=1;collapsible=0;" parent="AVTp8zRlv71y_wTY7c-L-1" vertex="1">
                        <mxGeometry x="120" y="360" width="640" height="480" as="geometry">
                            <mxRectangle x="120" y="360" width="180" height="60" as="alternateBounds"/>
                        </mxGeometry>
                    </mxCell>
                </object>
                <object placeholders="1" label="&lt;font style=&quot;font-size: 16px&quot;&gt;&lt;b&gt;%Name%&lt;/b&gt;&lt;/font&gt;&lt;div&gt;&lt;font style=&quot;font-size: 11px;&quot;&gt;[%Type%: %Technology%]&lt;/font&gt;&lt;/div&gt;&lt;br&gt;&lt;div&gt;&lt;font style=&quot;font-size: 12px;&quot;&gt;%Description%&lt;/font&gt;&lt;/div&gt;" Name="Web API module" Description="Description" Technology="Spring " Type="Module" UID="WebAPIModule" Parent="LoyaltyService" id="ekK7P1Wmv2pGepNzAtNq-1">
                    <mxCell style="rounded=1;whiteSpace=wrap;html=1;labelBackgroundColor=none;fillColor=#63BEF2;fontColor=#ffffff;align=center;arcSize=0;strokeColor=#2086C9;metaEdit=1;resizable=1;points=[[0.25,0,0],[0.5,0,0],[0.75,0,0],[1,0.25,0],[1,0.5,0],[1,0.75,0],[0.75,1,0],[0.5,1,0],[0.25,1,0],[0,0.75,0],[0,0.5,0],[0,0.25,0]];fontSize=16;movableLabel=0;movable=1;backgroundOutline=0;rotatable=0;gradientColor=none;" parent="hT-xEElClosBMQLVf1Me-0" vertex="1">
                        <mxGeometry x="360" y="80" width="200" height="120" as="geometry"/>
                    </mxCell>
                </object>
                <object placeholders="1" label="&lt;font style=&quot;font-size: 16px&quot;&gt;&lt;b&gt;%Name%&lt;/b&gt;&lt;/font&gt;&lt;div&gt;&lt;font style=&quot;font-size: 11px;&quot;&gt;[%Type%: %Technology%]&lt;/font&gt;&lt;/div&gt;&lt;br&gt;&lt;div&gt;&lt;font style=&quot;font-size: 12px;&quot;&gt;%Description%&lt;/font&gt;&lt;/div&gt;" Name="Mobile API module" Description="Description" Technology="Spring " Type="Module" UID="MobileAPIModule" Parent="LoyaltyService" id="ekK7P1Wmv2pGepNzAtNq-6">
                    <mxCell style="rounded=1;whiteSpace=wrap;html=1;labelBackgroundColor=none;fillColor=#63BEF2;fontColor=#ffffff;align=center;arcSize=0;strokeColor=#2086C9;metaEdit=1;resizable=1;points=[[0.25,0,0],[0.5,0,0],[0.75,0,0],[1,0.25,0],[1,0.5,0],[1,0.75,0],[0.75,1,0],[0.5,1,0],[0.25,1,0],[0,0.75,0],[0,0.5,0],[0,0.25,0]];fontSize=16;movableLabel=0;movable=1;backgroundOutline=0;rotatable=0;gradientColor=none;" parent="hT-xEElClosBMQLVf1Me-0" vertex="1">
                        <mxGeometry x="40" y="80" width="200" height="120" as="geometry"/>
                    </mxCell>
                </object>
                <object placeholders="1" label="&lt;div style=&quot;text-align: left&quot;&gt;&lt;div style=&quot;text-align: center&quot;&gt;&lt;b&gt;&lt;font color=&quot;#000000&quot;&gt;%Description%&lt;/font&gt;&lt;/b&gt;&lt;/div&gt;&lt;div style=&quot;text-align: center&quot;&gt;&lt;font color=&quot;#000000&quot;&gt;[%Technology%]&lt;/font&gt;&lt;/div&gt;&lt;/div&gt;" Description="Makes API calls" Technology="TCP/gRPC" UID="" Type="Connection" Format="Protobuf" id="ekK7P1Wmv2pGepNzAtNq-7">
                    <mxCell style="endArrow=blockThin;html=1;fontSize=10;fontColor=#404040;strokeWidth=1;endFill=1;strokeColor=#828282;elbow=vertical;metaEdit=1;endSize=10;startSize=10;jumpStyle=line;jumpSize=16;rounded=1;edgeStyle=orthogonalEdgeStyle;exitX=1;exitY=0.5;exitDx=0;exitDy=0;exitPerimeter=0;" parent="hT-xEElClosBMQLVf1Me-0" source="ekK7P1Wmv2pGepNzAtNq-6" target="ekK7P1Wmv2pGepNzAtNq-1" edge="1">
                        <mxGeometry width="240" relative="1" as="geometry">
                            <mxPoint x="470" y="90" as="sourcePoint"/>
                            <mxPoint x="470" y="-29" as="targetPoint"/>
                            <mxPoint as="offset"/>
                        </mxGeometry>
                    </mxCell>
                </object>
                <object placeholders="1" label="&lt;font style=&quot;font-size: 16px&quot;&gt;&lt;b&gt;%Name%&lt;/b&gt;&lt;/font&gt;&lt;div&gt;&lt;font style=&quot;font-size: 11px;&quot;&gt;[%Type%: %Technology%]&lt;/font&gt;&lt;/div&gt;&lt;br&gt;&lt;div&gt;&lt;font style=&quot;font-size: 12px;&quot;&gt;%Description%&lt;/font&gt;&lt;/div&gt;" Name="DB Connection module" Description="Description" Technology="Spring " Type="Module" UID="DBConnectionModule" Parent="LoyaltyService" id="ekK7P1Wmv2pGepNzAtNq-8">
                    <mxCell style="rounded=1;whiteSpace=wrap;html=1;labelBackgroundColor=none;fillColor=#63BEF2;fontColor=#ffffff;align=center;arcSize=0;strokeColor=#2086C9;metaEdit=1;resizable=1;points=[[0.25,0,0],[0.5,0,0],[0.75,0,0],[1,0.25,0],[1,0.5,0],[1,0.75,0],[0.75,1,0],[0.5,1,0],[0.25,1,0],[0,0.75,0],[0,0.5,0],[0,0.25,0]];fontSize=16;movableLabel=0;movable=1;backgroundOutline=0;rotatable=0;gradientColor=none;" parent="hT-xEElClosBMQLVf1Me-0" vertex="1">
                        <mxGeometry x="40" y="280" width="200" height="120" as="geometry"/>
                    </mxCell>
                </object>
                <object placeholders="1" label="&lt;font style=&quot;font-size: 16px&quot;&gt;&lt;b&gt;%Name%&lt;/b&gt;&lt;/font&gt;&lt;div&gt;&lt;font style=&quot;font-size: 11px;&quot;&gt;[%Type%: %Technology%]&lt;/font&gt;&lt;/div&gt;&lt;br&gt;&lt;div&gt;&lt;font style=&quot;font-size: 12px;&quot;&gt;%Description%&lt;/font&gt;&lt;/div&gt;" Name="Message broker connection module" Description="" Technology="Spring " Type="Module" UID="MessageBrokerConnectionModule" Parent="LoyaltyService" id="ekK7P1Wmv2pGepNzAtNq-9">
                    <mxCell style="rounded=1;whiteSpace=wrap;html=1;labelBackgroundColor=none;fillColor=#63BEF2;fontColor=#ffffff;align=center;arcSize=0;strokeColor=#2086C9;metaEdit=1;resizable=1;points=[[0.25,0,0],[0.5,0,0],[0.75,0,0],[1,0.25,0],[1,0.5,0],[1,0.75,0],[0.75,1,0],[0.5,1,0],[0.25,1,0],[0,0.75,0],[0,0.5,0],[0,0.25,0]];fontSize=16;movableLabel=0;movable=1;backgroundOutline=0;rotatable=0;gradientColor=none;" parent="hT-xEElClosBMQLVf1Me-0" vertex="1">
                        <mxGeometry x="360" y="280" width="200" height="120" as="geometry"/>
                    </mxCell>
                </object>
                <object placeholders="1" label="&lt;div style=&quot;text-align: left&quot;&gt;&lt;div style=&quot;text-align: center&quot;&gt;&lt;b&gt;&lt;font color=&quot;#000000&quot;&gt;%Description%&lt;/font&gt;&lt;/b&gt;&lt;/div&gt;&lt;div style=&quot;text-align: center&quot;&gt;&lt;font color=&quot;#000000&quot;&gt;[%Technology%]&lt;/font&gt;&lt;/div&gt;&lt;/div&gt;" Description="Makes API calls" Technology="TCP/gRPC" UID="" Type="Connection" Format="Protobuf" id="ekK7P1Wmv2pGepNzAtNq-10">
                    <mxCell style="endArrow=blockThin;html=1;fontSize=10;fontColor=#404040;strokeWidth=1;endFill=1;strokeColor=#828282;elbow=vertical;metaEdit=1;endSize=10;startSize=10;jumpStyle=line;jumpSize=16;rounded=1;edgeStyle=orthogonalEdgeStyle;exitX=0.5;exitY=1;exitDx=0;exitDy=0;exitPerimeter=0;" parent="hT-xEElClosBMQLVf1Me-0" source="ekK7P1Wmv2pGepNzAtNq-1" target="ekK7P1Wmv2pGepNzAtNq-9" edge="1">
                        <mxGeometry width="240" relative="1" as="geometry">
                            <mxPoint x="370" y="150" as="sourcePoint"/>
                            <mxPoint x="250" y="150" as="targetPoint"/>
                            <mxPoint as="offset"/>
                        </mxGeometry>
                    </mxCell>
                </object>
                <object placeholders="1" label="&lt;div style=&quot;text-align: left&quot;&gt;&lt;div style=&quot;text-align: center&quot;&gt;&lt;b&gt;&lt;font color=&quot;#000000&quot;&gt;%Description%&lt;/font&gt;&lt;/b&gt;&lt;/div&gt;&lt;div style=&quot;text-align: center&quot;&gt;&lt;font color=&quot;#000000&quot;&gt;[%Technology%]&lt;/font&gt;&lt;/div&gt;&lt;/div&gt;" Description="Makes API calls" Technology="TCP/gRPC" UID="" Type="Connection" Format="Protobuf" id="ekK7P1Wmv2pGepNzAtNq-11">
                    <mxCell style="endArrow=blockThin;html=1;fontSize=10;fontColor=#404040;strokeWidth=1;endFill=1;strokeColor=#828282;elbow=vertical;metaEdit=1;endSize=10;startSize=10;jumpStyle=line;jumpSize=16;rounded=1;edgeStyle=orthogonalEdgeStyle;exitX=0.5;exitY=1;exitDx=0;exitDy=0;exitPerimeter=0;" parent="hT-xEElClosBMQLVf1Me-0" source="ekK7P1Wmv2pGepNzAtNq-6" target="ekK7P1Wmv2pGepNzAtNq-8" edge="1">
                        <mxGeometry width="240" relative="1" as="geometry">
                            <mxPoint x="470" y="210" as="sourcePoint"/>
                            <mxPoint x="470" y="290" as="targetPoint"/>
                            <mxPoint as="offset"/>
                        </mxGeometry>
                    </mxCell>
                </object>
                <object placeholders="1" label="&lt;font style=&quot;font-size: 16px&quot;&gt;&lt;b&gt;&lt;div style=&quot;text-align: left&quot;&gt;[Components]: %Name%&lt;/div&gt;&lt;/b&gt;&lt;/font&gt;&lt;div style=&quot;text-align: left&quot;&gt;&lt;font color=&quot;#4f5a5b&quot;&gt;%Description%&lt;/font&gt;&lt;/div&gt;" Name="Component with modules" Description="Description" id="4HpPDa6LB_JdCuOY2lBH-0">
                    <mxCell style="text;html=1;strokeColor=none;fillColor=none;align=left;verticalAlign=top;whiteSpace=wrap;rounded=0;metaEdit=0;allowArrows=0;resizable=1;rotatable=0;connectable=0;recursiveResize=0;expand=0;pointerEvents=0;points=[[0.25,0,0],[0.5,0,0],[0.75,0,0],[1,0.25,0],[1,0.5,0],[1,0.75,0],[0.75,1,0],[0.5,1,0],[0.25,1,0],[0,0.75,0],[0,0.5,0],[0,0.25,0]];" parent="AVTp8zRlv71y_wTY7c-L-1" vertex="1">
                        <mxGeometry x="80" y="80" width="440" height="40" as="geometry"/>
                    </mxCell>
                </object>
                <object label="&lt;font style=&quot;color: rgb(255, 255, 255); text-wrap: wrap; font-size: 16px; border-color: var(--border-color);&quot;&gt;&lt;b style=&quot;border-color: var(--border-color);&quot;&gt;%Name%&lt;/b&gt;&lt;/font&gt;&lt;div style=&quot;color: rgb(255, 255, 255); text-wrap: wrap; font-size: 16px; border-color: var(--border-color); line-height: 16px;&quot;&gt;&lt;font style=&quot;border-color: var(--border-color); font-size: 11px;&quot;&gt;[%Type%: %Technology%]&lt;/font&gt;&lt;/div&gt;&lt;br style=&quot;color: rgb(255, 255, 255); text-wrap: wrap; font-size: 16px; border-color: var(--border-color);&quot;&gt;&lt;div style=&quot;color: rgb(255, 255, 255); text-wrap: wrap; font-size: 16px; border-color: var(--border-color); line-height: 16px;&quot;&gt;&lt;font style=&quot;border-color: var(--border-color); font-size: 12px;&quot;&gt;%Description%&lt;/font&gt;&lt;/div&gt;" placeholders="1" Description="" Name="Mobile application" Technology="Swift" Type="Mobile application" UID="MobileApp" Parent="Loyalty" id="74amKj05ZpYrs_921tMG-0">
                    <mxCell style="shape=image;aspect=fixed;image=data:image/svg+xml,PD94bWwgdmVyc2lvbj0iMS4wIiBlbmNvZGluZz0iVVRGLTgiPz4KPCFET0NUWVBFIHN2ZyBQVUJMSUMgIi0vL1czQy8vRFREIFNWRyAxLjEvL0VOIiAiaHR0cDovL3d3dy53My5vcmcvR3JhcGhpY3MvU1ZHLzEuMS9EVEQvc3ZnMTEuZHRkIj4KPHN2ZyB4bWxucz0iaHR0cDovL3d3dy53My5vcmcvMjAwMC9zdmciIHhtbG5zOnhsaW5rPSJodHRwOi8vd3d3LnczLm9yZy8xOTk5L3hsaW5rIiB2ZXJzaW9uPSIxLjEiIHdpZHRoPSIyMDFweCIgaGVpZ2h0PSIxMjFweCIgdmlld0JveD0iLTAuNSAtMC41IDIwMSAxMjEiPjxkZWZzLz48Zz48Zy8+PGc+PHJlY3QgeD0iMCIgeT0iMCIgd2lkdGg9IjIwMCIgaGVpZ2h0PSIxMjAiIHJ4PSI4LjQiIHJ5PSI4LjQiIGZpbGw9IiMxMThhY2QiIHN0cm9rZT0ibm9uZSIgcG9pbnRlci1ldmVudHM9ImFsbCIvPjwvZz48Zz48ZyB0cmFuc2Zvcm09InRyYW5zbGF0ZSgtMC41IC0wLjUpIj48c3dpdGNoPjxmb3JlaWduT2JqZWN0IHBvaW50ZXItZXZlbnRzPSJub25lIiB3aWR0aD0iMTAwJSIgaGVpZ2h0PSIxMDAlIiByZXF1aXJlZEZlYXR1cmVzPSJodHRwOi8vd3d3LnczLm9yZy9UUi9TVkcxMS9mZWF0dXJlI0V4dGVuc2liaWxpdHkiIHN0eWxlPSJvdmVyZmxvdzogdmlzaWJsZTsgdGV4dC1hbGlnbjogbGVmdDsiPjxkaXYgeG1sbnM9Imh0dHA6Ly93d3cudzMub3JnLzE5OTkveGh0bWwiIHN0eWxlPSJkaXNwbGF5OiBmbGV4OyBhbGlnbi1pdGVtczogdW5zYWZlIGNlbnRlcjsganVzdGlmeS1jb250ZW50OiB1bnNhZmUgY2VudGVyOyB3aWR0aDogMTk4cHg7IGhlaWdodDogMXB4OyBwYWRkaW5nLXRvcDogNjBweDsgbWFyZ2luLWxlZnQ6IDFweDsiPjxkaXYgZGF0YS1kcmF3aW8tY29sb3JzPSJjb2xvcjogcmdiKDAsIDAsIDApOyAiIHN0eWxlPSJib3gtc2l6aW5nOiBib3JkZXItYm94OyBmb250LXNpemU6IDBweDsgdGV4dC1hbGlnbjogY2VudGVyOyI+PGRpdiBzdHlsZT0iZGlzcGxheTogaW5saW5lLWJsb2NrOyBmb250LXNpemU6IDE2cHg7IGZvbnQtZmFtaWx5OiBIZWx2ZXRpY2E7IGNvbG9yOiByZ2IoMCwgMCwgMCk7IGxpbmUtaGVpZ2h0OiAxLjI7IHBvaW50ZXItZXZlbnRzOiBhbGw7IHdoaXRlLXNwYWNlOiBub3JtYWw7IG92ZXJmbG93LXdyYXA6IG5vcm1hbDsiPjxmb250IHN0eWxlPSJib3JkZXItY29sb3I6IHZhcigtLWJvcmRlci1jb2xvcik7IGNvbG9yOiByZ2IoMjU1LCAyNTUsIDI1NSk7Ij48YiBzdHlsZT0iYm9yZGVyLWNvbG9yOiB2YXIoLS1ib3JkZXItY29sb3IpOyI+JU5hbWUlPC9iPjwvZm9udD48ZGl2IHN0eWxlPSJib3JkZXItY29sb3I6IHZhcigtLWJvcmRlci1jb2xvcik7IGNvbG9yOiByZ2IoMjU1LCAyNTUsIDI1NSk7IGZvbnQtc2l6ZTogMTJweDsiPltDb250YWluZXI6wqAlVGVjaG5vbG9neSVdPC9kaXY+PGJyIHN0eWxlPSJib3JkZXItY29sb3I6IHZhcigtLWJvcmRlci1jb2xvcik7IGNvbG9yOiByZ2IoMjU1LCAyNTUsIDI1NSk7IGZvbnQtc2l6ZTogMTJweDsiIC8+PGRpdiBzdHlsZT0iYm9yZGVyLWNvbG9yOiB2YXIoLS1ib3JkZXItY29sb3IpOyBmb250LXNpemU6IDEycHg7Ij48Zm9udCBzdHlsZT0iYm9yZGVyLWNvbG9yOiB2YXIoLS1ib3JkZXItY29sb3IpOyBmb250LXNpemU6IDExcHg7Ij48Zm9udCBzdHlsZT0iYm9yZGVyLWNvbG9yOiB2YXIoLS1ib3JkZXItY29sb3IpOyIgY29sb3I9IiNmZmZmZmYiPiVEZXNjcmlwdGlvbiU8L2ZvbnQ+PC9mb250PjwvZGl2PjwvZGl2PjwvZGl2PjwvZGl2PjwvZm9yZWlnbk9iamVjdD48dGV4dCB4PSIxMDAiIHk9IjY1IiBmaWxsPSJyZ2IoMCwgMCwgMCkiIGZvbnQtZmFtaWx5PSJIZWx2ZXRpY2EiIGZvbnQtc2l6ZT0iMTZweCIgdGV4dC1hbmNob3I9Im1pZGRsZSI+JU5hbWUlLi4uPC90ZXh0Pjwvc3dpdGNoPjwvZz48L2c+PGc+PHJlY3QgeD0iMjAiIHk9IjUiIHdpZHRoPSIxNjAiIGhlaWdodD0iMTEwIiByeD0iMy4zIiByeT0iMy4zIiBmaWxsPSIjMjNhMmQ5IiBzdHJva2U9Im5vbmUiIHBvaW50ZXItZXZlbnRzPSJhbGwiLz48L2c+PGc+PGVsbGlwc2UgY3g9IjEwIiBjeT0iNjAiIHJ4PSI1IiByeT0iNSIgZmlsbD0iIzIzYTJkOSIgc3Ryb2tlPSJub25lIiBwb2ludGVyLWV2ZW50cz0iYWxsIi8+PC9nPjxnPjxyZWN0IHg9IjE4OS4yNSIgeT0iNTAiIHdpZHRoPSIxLjUiIGhlaWdodD0iMjAiIHJ4PSIwLjMyIiByeT0iMC4zMiIgZmlsbD0iIzIzYTJkOSIgc3Ryb2tlPSJub25lIiBwb2ludGVyLWV2ZW50cz0iYWxsIi8+PC9nPjwvZz48L3N2Zz4=;html=1;whiteSpace=wrap;metaEdit=1;" parent="AVTp8zRlv71y_wTY7c-L-1" vertex="1">
                        <mxGeometry x="160" y="201" width="201" height="121" as="geometry"/>
                    </mxCell>
                </object>
                <object Name="Web application" placeholders="1" Description="" Technology="Typescript" label="&lt;font style=&quot;font-size: 16px; text-wrap: wrap; border-color: var(--border-color);&quot;&gt;&lt;b style=&quot;border-color: var(--border-color);&quot;&gt;%Name%&lt;/b&gt;&lt;/font&gt;&lt;div style=&quot;font-size: 16px; text-wrap: wrap; border-color: var(--border-color); line-height: 100%;&quot;&gt;&lt;font style=&quot;border-color: var(--border-color); font-size: 11px;&quot;&gt;[%Type%: %Technology%]&lt;/font&gt;&lt;/div&gt;&lt;br style=&quot;font-size: 16px; text-wrap: wrap; border-color: var(--border-color);&quot;&gt;&lt;div style=&quot;font-size: 16px; text-wrap: wrap; border-color: var(--border-color); line-height: 100%;&quot;&gt;&lt;font style=&quot;border-color: var(--border-color); font-size: 12px;&quot;&gt;%Description%&lt;/font&gt;&lt;/div&gt;" Type="Web application" UID="WebApp" Parent="Loyalty" id="74amKj05ZpYrs_921tMG-1">
                    <mxCell style="shape=image;image=data:image/svg+xml,PD94bWwgdmVyc2lvbj0iMS4wIiBlbmNvZGluZz0iVVRGLTgiPz4KPCFET0NUWVBFIHN2ZyBQVUJMSUMgIi0vL1czQy8vRFREIFNWRyAxLjEvL0VOIiAiaHR0cDovL3d3dy53My5vcmcvR3JhcGhpY3MvU1ZHLzEuMS9EVEQvc3ZnMTEuZHRkIj4KPHN2ZyB4bWxucz0iaHR0cDovL3d3dy53My5vcmcvMjAwMC9zdmciIHhtbG5zOnhsaW5rPSJodHRwOi8vd3d3LnczLm9yZy8xOTk5L3hsaW5rIiB2ZXJzaW9uPSIxLjEiIHdpZHRoPSIyMDFweCIgaGVpZ2h0PSIxMjBweCIgdmlld0JveD0iLTAuNSAtMC41IDIwMSAxMjAiPjxkZWZzLz48Zz48Zy8+PGc+PHJlY3QgeD0iMCIgeT0iMCIgd2lkdGg9IjIwMCIgaGVpZ2h0PSIxMjAiIHJ4PSI4LjQiIHJ5PSI4LjQiIGZpbGw9IiMxMThhY2QiIHN0cm9rZT0ibm9uZSIgcG9pbnRlci1ldmVudHM9ImFsbCIvPjwvZz48Zz48cmVjdCB4PSI2IiB5PSIyMCIgd2lkdGg9IjE4OSIgaGVpZ2h0PSI5NSIgcng9IjIuODUiIHJ5PSIyLjg1IiBmaWxsPSIjMjNhMmQ5IiBzdHJva2U9Im5vbmUiIHBvaW50ZXItZXZlbnRzPSJhbGwiLz48L2c+PGc+PHJlY3QgeD0iNTAiIHk9IjUiIHdpZHRoPSIxNDUiIGhlaWdodD0iMTAiIHJ4PSI1IiByeT0iNSIgZmlsbD0iIzIzYTJkOSIgc3Ryb2tlPSJub25lIiBwb2ludGVyLWV2ZW50cz0iYWxsIi8+PC9nPjxnPjxlbGxpcHNlIGN4PSIxMSIgY3k9IjEwIiByeD0iNSIgcnk9IjUiIGZpbGw9IiMyM2EyZDkiIHN0cm9rZT0ibm9uZSIgcG9pbnRlci1ldmVudHM9ImFsbCIvPjwvZz48Zz48ZWxsaXBzZSBjeD0iMjQiIGN5PSIxMCIgcng9IjUiIHJ5PSI1IiBmaWxsPSIjMjNhMmQ5IiBzdHJva2U9Im5vbmUiIHBvaW50ZXItZXZlbnRzPSJhbGwiLz48L2c+PGc+PGVsbGlwc2UgY3g9IjM3IiBjeT0iMTAiIHJ4PSI1IiByeT0iNSIgZmlsbD0iIzIzYTJkOSIgc3Ryb2tlPSJub25lIiBwb2ludGVyLWV2ZW50cz0iYWxsIi8+PC9nPjwvZz48L3N2Zz4=;fontColor=#FFFFFF;fontSize=13;strokeWidth=2;metaEdit=1;editable=1;movable=1;resizable=1;rotatable=1;deletable=1;locked=0;connectable=1;html=1;align=center;autosize=0;fillOpacity=100;imageAspect=1;perimeter=rectanglePerimeter;fixDash=0;container=0;recursiveResize=1;expand=1;backgroundOutline=0;fixedWidth=0;resizeWidth=0;resizeHeight=0;imageBorder=none;imageBackground=none;aspect=fixed;verticalAlign=middle;horizontal=1;spacingTop=0;whiteSpace=wrap;" parent="AVTp8zRlv71y_wTY7c-L-1" vertex="1">
                        <mxGeometry x="479" y="201" width="201" height="120" as="geometry"/>
                    </mxCell>
                </object>
                <object placeholders="1" label="&lt;div style=&quot;text-align: left&quot;&gt;&lt;div style=&quot;text-align: center&quot;&gt;&lt;b&gt;&lt;font color=&quot;#000000&quot;&gt;%Description%&lt;/font&gt;&lt;/b&gt;&lt;/div&gt;&lt;div style=&quot;text-align: center&quot;&gt;&lt;font color=&quot;#000000&quot;&gt;[%Technology%]&lt;/font&gt;&lt;/div&gt;&lt;/div&gt;" Description="Makes API calls" Technology="HTTP/REST" UID="" Type="Connection" Format="JSON" id="ekK7P1Wmv2pGepNzAtNq-0">
                    <mxCell style="endArrow=blockThin;html=1;fontSize=10;fontColor=#404040;strokeWidth=1;endFill=1;strokeColor=#828282;elbow=vertical;metaEdit=1;endSize=10;startSize=10;jumpStyle=line;jumpSize=16;rounded=1;edgeStyle=orthogonalEdgeStyle;exitX=0.5;exitY=1;exitDx=0;exitDy=0;" parent="AVTp8zRlv71y_wTY7c-L-1" source="74amKj05ZpYrs_921tMG-1" target="ekK7P1Wmv2pGepNzAtNq-1" edge="1">
                        <mxGeometry x="0.3315" width="240" relative="1" as="geometry">
                            <mxPoint x="561" y="380" as="sourcePoint"/>
                            <mxPoint x="720" y="380" as="targetPoint"/>
                            <mxPoint as="offset"/>
                        </mxGeometry>
                    </mxCell>
                </object>
                <object placeholders="1" label="&lt;div style=&quot;text-align: left&quot;&gt;&lt;div style=&quot;text-align: center&quot;&gt;&lt;b&gt;&lt;font color=&quot;#000000&quot;&gt;%Description%&lt;/font&gt;&lt;/b&gt;&lt;/div&gt;&lt;div style=&quot;text-align: center&quot;&gt;&lt;font color=&quot;#000000&quot;&gt;[%Technology%]&lt;/font&gt;&lt;/div&gt;&lt;/div&gt;" Description="Makes API calls" Technology="HTTP/REST" UID="" Type="Connection" Format="JSON" id="ekK7P1Wmv2pGepNzAtNq-2">
                    <mxCell style="endArrow=blockThin;html=1;fontSize=10;fontColor=#404040;strokeWidth=1;endFill=1;strokeColor=#828282;elbow=vertical;metaEdit=1;endSize=10;startSize=10;jumpStyle=line;jumpSize=16;rounded=1;edgeStyle=orthogonalEdgeStyle;exitX=0.5;exitY=1;exitDx=0;exitDy=0;" parent="AVTp8zRlv71y_wTY7c-L-1" source="74amKj05ZpYrs_921tMG-0" target="ekK7P1Wmv2pGepNzAtNq-6" edge="1">
                        <mxGeometry x="0.3315" width="240" relative="1" as="geometry">
                            <mxPoint x="590" y="331" as="sourcePoint"/>
                            <mxPoint x="300.0588235294117" y="440" as="targetPoint"/>
                            <mxPoint as="offset"/>
                        </mxGeometry>
                    </mxCell>
                </object>
                <object label="&lt;font size=&quot;1&quot; style=&quot;&quot;&gt;&lt;b style=&quot;font-size: 16px;&quot;&gt;%Name%&lt;/b&gt;&lt;/font&gt;&lt;div&gt;&lt;font style=&quot;font-size: 11px;&quot;&gt;[External software system]&lt;/font&gt;&lt;/div&gt;&lt;br&gt;&lt;div&gt;&lt;font style=&quot;font-size: 12px;&quot;&gt;%Description%&lt;/font&gt;&lt;/div&gt;" Name="E-mail server" Description="Internal Microsoft Exchange Server" placeholders="1" UID="" Type="External service" id="ekK7P1Wmv2pGepNzAtNq-4">
                    <mxCell style="rounded=1;whiteSpace=wrap;html=1;labelBackgroundColor=none;fillColor=#8C8496;fontColor=#ffffff;align=center;arcSize=10;strokeColor=#736782;metaEdit=1;resizable=1;points=[[0.25,0,0],[0.5,0,0],[0.75,0,0],[1,0.25,0],[1,0.5,0],[1,0.75,0],[0.75,1,0],[0.5,1,0],[0.25,1,0],[0,0.75,0],[0,0.5,0],[0,0.25,0]];fontSize=16;backgroundOutline=0;collapsible=0;dropTarget=0;movableLabel=0;perimeter=rectanglePerimeter;snapToPoint=0;autosize=0;treeMoving=0;enumerate=0;rotatable=1;editable=1;movable=1;deletable=1;locked=0;connectable=1;" parent="AVTp8zRlv71y_wTY7c-L-1" vertex="1">
                        <mxGeometry x="840" y="440" width="200" height="120" as="geometry"/>
                    </mxCell>
                </object>
                <object placeholders="1" label="&lt;div style=&quot;text-align: left&quot;&gt;&lt;div style=&quot;text-align: center&quot;&gt;&lt;b&gt;&lt;font color=&quot;#000000&quot;&gt;%Description%&lt;/font&gt;&lt;/b&gt;&lt;/div&gt;&lt;div style=&quot;text-align: center&quot;&gt;&lt;font color=&quot;#000000&quot;&gt;[%Technology%]&lt;/font&gt;&lt;/div&gt;&lt;/div&gt;" Description="Send messages" Technology="TCP/SMTP" UID="" Type="Connection" Format="HTML" id="ekK7P1Wmv2pGepNzAtNq-5">
                    <mxCell style="endArrow=blockThin;html=1;fontSize=10;fontColor=#404040;strokeWidth=1;endFill=1;strokeColor=#828282;elbow=vertical;metaEdit=1;endSize=10;startSize=10;jumpStyle=line;jumpSize=16;rounded=1;edgeStyle=orthogonalEdgeStyle;entryX=0;entryY=0.5;entryDx=0;entryDy=0;entryPerimeter=0;exitX=1;exitY=0.25;exitDx=0;exitDy=0;exitPerimeter=0;" parent="AVTp8zRlv71y_wTY7c-L-1" source="ekK7P1Wmv2pGepNzAtNq-9" target="ekK7P1Wmv2pGepNzAtNq-4" edge="1">
                        <mxGeometry width="240" relative="1" as="geometry">
                            <mxPoint x="590" y="331" as="sourcePoint"/>
                            <mxPoint x="590" y="450" as="targetPoint"/>
                            <mxPoint as="offset"/>
                            <Array as="points">
                                <mxPoint x="720" y="670"/>
                                <mxPoint x="720" y="500"/>
                            </Array>
                        </mxGeometry>
                    </mxCell>
                </object>
                <object placeholders="1" label="&lt;font style=&quot;font-size: 16px&quot;&gt;&lt;b&gt;%Name%&lt;/b&gt;&lt;/font&gt;&lt;div&gt;&lt;font style=&quot;font-size: 11px;&quot;&gt;[%Type%:&amp;nbsp;%Technology%]&lt;/font&gt;&lt;/div&gt;&lt;br&gt;&lt;div&gt;&lt;font style=&quot;&quot;&gt;&lt;font style=&quot;font-size: 12px;&quot;&gt;%Description%&lt;/font&gt;&lt;/font&gt;&lt;/div&gt;" Name="Loyalty Database" Description="" Technology="Oracle Database 12" Type="Storage" UID="OracleDB" Parent="Loyalty" id="ekK7P1Wmv2pGepNzAtNq-12">
                    <mxCell style="shape=cylinder3;size=15;whiteSpace=wrap;html=1;boundedLbl=1;rounded=0;labelBackgroundColor=none;fillColor=#23A2D9;fontSize=12;fontColor=#ffffff;align=center;strokeColor=#0077CC;metaEdit=1;points=[[0.5,0,0],[1,0.25,0],[1,0.5,0],[1,0.75,0],[0.5,1,0],[0,0.75,0],[0,0.5,0],[0,0.25,0]];resizable=1;rotatable=0;" parent="AVTp8zRlv71y_wTY7c-L-1" vertex="1">
                        <mxGeometry x="160" y="920" width="200" height="120" as="geometry"/>
                    </mxCell>
                </object>
                <object placeholders="1" label="&lt;div style=&quot;text-align: left&quot;&gt;&lt;div style=&quot;text-align: center&quot;&gt;&lt;b&gt;&lt;font color=&quot;#000000&quot;&gt;%Description%&lt;/font&gt;&lt;/b&gt;&lt;/div&gt;&lt;div style=&quot;text-align: center&quot;&gt;&lt;font color=&quot;#000000&quot;&gt;[%Technology%]&lt;/font&gt;&lt;/div&gt;&lt;/div&gt;" Description="Makes SQL requests" Technology="TCP" UID="" Type="Connection" Format="SQL" id="ekK7P1Wmv2pGepNzAtNq-13">
                    <mxCell style="endArrow=blockThin;html=1;fontSize=10;fontColor=#404040;strokeWidth=1;endFill=1;strokeColor=#828282;elbow=vertical;metaEdit=1;endSize=10;startSize=10;jumpStyle=line;jumpSize=16;rounded=1;edgeStyle=orthogonalEdgeStyle;exitX=0.5;exitY=1;exitDx=0;exitDy=0;exitPerimeter=0;" parent="AVTp8zRlv71y_wTY7c-L-1" source="ekK7P1Wmv2pGepNzAtNq-8" target="ekK7P1Wmv2pGepNzAtNq-12" edge="1">
                        <mxGeometry x="0.375" width="240" relative="1" as="geometry">
                            <mxPoint x="260" y="740" as="sourcePoint"/>
                            <mxPoint x="270" y="650" as="targetPoint"/>
                            <mxPoint y="-1" as="offset"/>
                        </mxGeometry>
                    </mxCell>
                </object>
                <object placeholders="1" label="&lt;font style=&quot;font-size: 16px&quot;&gt;&lt;b&gt;%Name%&lt;/b&gt;&lt;/font&gt;&lt;div&gt;&lt;font style=&quot;font-size: 11px;&quot;&gt;[%Type%:&amp;nbsp;%Technology%]&lt;/font&gt;&lt;/div&gt;&lt;br&gt;&lt;div&gt;&lt;font style=&quot;&quot;&gt;&lt;font style=&quot;font-size: 12px;&quot;&gt;%Description%&lt;/font&gt;&lt;/font&gt;&lt;/div&gt;" Description="" Technology="Kafka" Name="Message broker" Type="Message broker" UID="Kafka" Parent="Loyalty" id="ekK7P1Wmv2pGepNzAtNq-14">
                    <mxCell style="shape=cylinder3;size=15;direction=south;whiteSpace=wrap;html=1;boundedLbl=1;rounded=0;labelBackgroundColor=none;fillColor=#23A2D9;fontSize=12;fontColor=#ffffff;align=center;strokeColor=#0077CC;metaEdit=1;points=[[0.5,0,0],[1,0.25,0],[1,0.5,0],[1,0.75,0],[0.5,1,0],[0,0.75,0],[0,0.5,0],[0,0.25,0]];resizable=1;shadow=0;rotatable=0;" parent="AVTp8zRlv71y_wTY7c-L-1" vertex="1">
                        <mxGeometry x="479" y="920" width="200" height="120" as="geometry"/>
                    </mxCell>
                </object>
                <object placeholders="1" label="&lt;div style=&quot;text-align: left&quot;&gt;&lt;div style=&quot;text-align: center&quot;&gt;&lt;b&gt;&lt;font color=&quot;#000000&quot;&gt;%Description%&lt;/font&gt;&lt;/b&gt;&lt;/div&gt;&lt;div style=&quot;text-align: center&quot;&gt;&lt;font color=&quot;#000000&quot;&gt;[%Technology%]&lt;/font&gt;&lt;/div&gt;&lt;/div&gt;" Description="Send messages" Technology="TCP" UID="" Type="Connection" Format="JSON" id="ekK7P1Wmv2pGepNzAtNq-15">
                    <mxCell style="endArrow=blockThin;html=1;fontSize=10;fontColor=#404040;strokeWidth=1;endFill=1;strokeColor=#828282;elbow=vertical;metaEdit=1;endSize=10;startSize=10;jumpStyle=line;jumpSize=16;rounded=1;edgeStyle=orthogonalEdgeStyle;exitX=0.5;exitY=1;exitDx=0;exitDy=0;exitPerimeter=0;" parent="AVTp8zRlv71y_wTY7c-L-1" source="ekK7P1Wmv2pGepNzAtNq-9" target="ekK7P1Wmv2pGepNzAtNq-14" edge="1">
                        <mxGeometry x="0.5033" width="240" relative="1" as="geometry">
                            <mxPoint x="270" y="770" as="sourcePoint"/>
                            <mxPoint x="270" y="930" as="targetPoint"/>
                            <mxPoint as="offset"/>
                        </mxGeometry>
                    </mxCell>
                </object>
                <object label="&lt;font size=&quot;1&quot; style=&quot;&quot;&gt;&lt;b style=&quot;font-size: 16px;&quot;&gt;%Name%&lt;/b&gt;&lt;/font&gt;&lt;div&gt;&lt;font style=&quot;font-size: 11px;&quot;&gt;[External software system]&lt;/font&gt;&lt;/div&gt;&lt;br&gt;&lt;div&gt;&lt;font style=&quot;font-size: 12px;&quot;&gt;%Description%&lt;/font&gt;&lt;/div&gt;" Name="E-mail server" Description="Internal Microsoft Exchange Server" placeholders="1" UID="" Type="External service" id="jH8qxpBugUFFJdhJ1NNs-0">
                    <mxCell style="rounded=1;whiteSpace=wrap;html=1;labelBackgroundColor=none;fillColor=#8C8496;fontColor=#ffffff;align=center;arcSize=10;strokeColor=#736782;metaEdit=1;resizable=1;points=[[0.25,0,0],[0.5,0,0],[0.75,0,0],[1,0.25,0],[1,0.5,0],[1,0.75,0],[0.75,1,0],[0.5,1,0],[0.25,1,0],[0,0.75,0],[0,0.5,0],[0,0.25,0]];fontSize=16;backgroundOutline=0;collapsible=0;dropTarget=0;movableLabel=0;perimeter=rectanglePerimeter;snapToPoint=0;autosize=0;treeMoving=0;enumerate=0;rotatable=1;editable=1;movable=1;deletable=1;locked=0;connectable=1;" parent="AVTp8zRlv71y_wTY7c-L-1" vertex="1">
                        <mxGeometry x="840" y="440" width="200" height="120" as="geometry"/>
                    </mxCell>
                </object>
                <object label="&lt;font size=&quot;1&quot; style=&quot;&quot;&gt;&lt;b style=&quot;font-size: 16px;&quot;&gt;%Name%&lt;/b&gt;&lt;/font&gt;&lt;div&gt;&lt;font style=&quot;font-size: 11px;&quot;&gt;[External software system]&lt;/font&gt;&lt;/div&gt;&lt;br&gt;&lt;div&gt;&lt;font style=&quot;font-size: 12px;&quot;&gt;%Description%&lt;/font&gt;&lt;/div&gt;" Name="Push service" Description="" placeholders="1" UID="PushService" Type="External system" id="LreJ7XaIPDLRMSOKZF-l-0">
                    <mxCell style="rounded=1;whiteSpace=wrap;html=1;labelBackgroundColor=none;fillColor=#8C8496;fontColor=#ffffff;align=center;arcSize=10;strokeColor=#736782;metaEdit=1;resizable=1;points=[[0.25,0,0],[0.5,0,0],[0.75,0,0],[1,0.25,0],[1,0.5,0],[1,0.75,0],[0.75,1,0],[0.5,1,0],[0.25,1,0],[0,0.75,0],[0,0.5,0],[0,0.25,0]];fontSize=16;backgroundOutline=0;collapsible=0;dropTarget=0;movableLabel=0;perimeter=rectanglePerimeter;snapToPoint=0;autosize=0;treeMoving=0;enumerate=0;rotatable=1;editable=1;movable=1;deletable=1;locked=0;connectable=1;" parent="AVTp8zRlv71y_wTY7c-L-1" vertex="1">
                        <mxGeometry x="840" y="670" width="200" height="120" as="geometry"/>
                    </mxCell>
                </object>
                <object placeholders="1" label="&lt;div style=&quot;text-align: left&quot;&gt;&lt;div style=&quot;text-align: center&quot;&gt;&lt;b&gt;&lt;font color=&quot;#000000&quot;&gt;%Description%&lt;/font&gt;&lt;/b&gt;&lt;/div&gt;&lt;div style=&quot;text-align: center&quot;&gt;&lt;font color=&quot;#000000&quot;&gt;[%Technology%]&lt;/font&gt;&lt;/div&gt;&lt;/div&gt;" Description="Send messages" Technology="TCP/SMTP" UID="" Type="Connection" Format="HTML" id="LreJ7XaIPDLRMSOKZF-l-1">
                    <mxCell style="endArrow=blockThin;html=1;fontSize=10;fontColor=#404040;strokeWidth=1;endFill=1;strokeColor=#828282;elbow=vertical;metaEdit=1;endSize=10;startSize=10;jumpStyle=line;jumpSize=16;rounded=1;edgeStyle=orthogonalEdgeStyle;entryX=0;entryY=0.5;entryDx=0;entryDy=0;entryPerimeter=0;exitX=1;exitY=0.75;exitDx=0;exitDy=0;exitPerimeter=0;" parent="AVTp8zRlv71y_wTY7c-L-1" source="ekK7P1Wmv2pGepNzAtNq-9" target="LreJ7XaIPDLRMSOKZF-l-0" edge="1">
                        <mxGeometry width="240" relative="1" as="geometry">
                            <mxPoint x="680" y="700" as="sourcePoint"/>
                            <mxPoint x="850" y="510" as="targetPoint"/>
                            <mxPoint as="offset"/>
                        </mxGeometry>
                    </mxCell>
                </object>
            </root>
        </mxGraphModel>
    </diagram>
    <diagram id="VwK4R-163Wa0Mv7vSpYe" name="deployment">
        <mxGraphModel dx="1284" dy="613" grid="1" gridSize="10" guides="1" tooltips="1" connect="1" arrows="1" fold="1" page="1" pageScale="1" pageWidth="1169" pageHeight="827" math="0" shadow="0">
            <root>
                <mxCell id="0"/>
                <mxCell id="1" parent="0"/>
                <object placeholders="1" label="&lt;font style=&quot;font-size: 16px&quot;&gt;&lt;b&gt;&lt;div style=&quot;text-align: left&quot;&gt;%Name%&lt;/div&gt;&lt;/b&gt;&lt;/font&gt;&lt;div style=&quot;text-align: left&quot;&gt;[%NodeType%]&lt;/div&gt;" Name="Datacenter" NodeType="Segment" id="wNYMdcJmZEyQlPLakDN8-1">
                    <mxCell style="rounded=1;fontSize=11;whiteSpace=wrap;html=1;arcSize=20;fillColor=none;strokeColor=#999999;fontColor=#333333;labelBackgroundColor=none;align=left;verticalAlign=top;labelBorderColor=none;spacingTop=0;spacing=10;metaEdit=1;rotatable=0;perimeter=rectanglePerimeter;noLabel=0;labelPadding=0;allowArrows=0;connectable=0;expand=0;recursiveResize=0;editable=1;pointerEvents=0;absoluteArcSize=1;points=[[0.25,0,0],[0.5,0,0],[0.75,0,0],[1,0.25,0],[1,0.5,0],[1,0.75,0],[0.75,1,0],[0.5,1,0],[0.25,1,0],[0,0.75,0],[0,0.5,0],[0,0.25,0]];container=1;collapsible=0;" parent="1" vertex="1">
                        <mxGeometry x="80" y="160" width="1500" height="1140" as="geometry">
                            <mxRectangle x="680" y="640" width="160" height="80" as="alternateBounds"/>
                        </mxGeometry>
                    </mxCell>
                </object>
                <object placeholders="1" label="&lt;font style=&quot;font-size: 16px&quot;&gt;&lt;b&gt;&lt;div style=&quot;text-align: left&quot;&gt;%Name%&lt;/div&gt;&lt;/b&gt;&lt;/font&gt;&lt;div style=&quot;text-align: left&quot;&gt;[%NodeType%]&lt;/div&gt;" Name="Containerization Platform" NodeType="Platform" id="wNYMdcJmZEyQlPLakDN8-2">
                    <mxCell style="rounded=1;fontSize=11;whiteSpace=wrap;html=1;arcSize=20;fillColor=none;strokeColor=#999999;fontColor=#333333;labelBackgroundColor=none;align=left;verticalAlign=top;labelBorderColor=none;spacingTop=0;spacing=10;metaEdit=1;rotatable=0;perimeter=rectanglePerimeter;noLabel=0;labelPadding=0;allowArrows=0;connectable=0;expand=0;recursiveResize=0;editable=1;pointerEvents=0;absoluteArcSize=1;points=[[0.25,0,0],[0.5,0,0],[0.75,0,0],[1,0.25,0],[1,0.5,0],[1,0.75,0],[0.75,1,0],[0.5,1,0],[0.25,1,0],[0,0.75,0],[0,0.5,0],[0,0.25,0]];container=1;collapsible=0;" parent="wNYMdcJmZEyQlPLakDN8-1" vertex="1">
                        <mxGeometry x="40" y="60" width="800" height="1040" as="geometry">
                            <mxRectangle x="680" y="640" width="160" height="80" as="alternateBounds"/>
                        </mxGeometry>
                    </mxCell>
                </object>
                <object placeholders="1" label="&lt;font style=&quot;font-size: 16px&quot;&gt;&lt;b&gt;&lt;div style=&quot;text-align: left&quot;&gt;%Name%&lt;/div&gt;&lt;/b&gt;&lt;/font&gt;&lt;div style=&quot;text-align: left&quot;&gt;[%NodeType%]&lt;/div&gt;" Name="DEV" NodeType="Cluster" id="wNYMdcJmZEyQlPLakDN8-3">
                    <mxCell style="rounded=1;fontSize=11;whiteSpace=wrap;html=1;arcSize=20;fillColor=none;strokeColor=#999999;fontColor=#333333;labelBackgroundColor=none;align=left;verticalAlign=top;labelBorderColor=none;spacingTop=0;spacing=10;metaEdit=1;rotatable=0;perimeter=rectanglePerimeter;noLabel=0;labelPadding=0;allowArrows=0;connectable=0;expand=0;recursiveResize=0;editable=1;pointerEvents=0;absoluteArcSize=1;points=[[0.25,0,0],[0.5,0,0],[0.75,0,0],[1,0.25,0],[1,0.5,0],[1,0.75,0],[0.75,1,0],[0.5,1,0],[0.25,1,0],[0,0.75,0],[0,0.5,0],[0,0.25,0]];container=1;collapsible=0;" parent="wNYMdcJmZEyQlPLakDN8-2" vertex="1">
                        <mxGeometry x="40" y="60" width="720" height="220" as="geometry">
                            <mxRectangle x="680" y="640" width="160" height="80" as="alternateBounds"/>
                        </mxGeometry>
                    </mxCell>
                </object>
                <object placeholders="1" label="&lt;font style=&quot;font-size: 16px&quot;&gt;&lt;b&gt;%Name%&lt;/b&gt;&lt;/font&gt;&lt;div&gt;&lt;font style=&quot;font-size: 11px;&quot;&gt;[Container: %Technology%]&lt;/font&gt;&lt;/div&gt;&lt;br&gt;&lt;div&gt;&lt;font style=&quot;font-size: 12px;&quot;&gt;%Description%&lt;/font&gt;&lt;/div&gt;" Name="Loyalty service" Description="10.1.231.11" Technology="Express, NestJS" id="wNYMdcJmZEyQlPLakDN8-4">
                    <mxCell style="rounded=1;whiteSpace=wrap;html=1;labelBackgroundColor=none;fillColor=#23A2D9;fontColor=#ffffff;align=center;arcSize=6;strokeColor=#0E7DAD;metaEdit=1;resizable=1;points=[[0.25,0,0],[0.5,0,0],[0.75,0,0],[1,0.25,0],[1,0.5,0],[1,0.75,0],[0.75,1,0],[0.5,1,0],[0.25,1,0],[0,0.75,0],[0,0.5,0],[0,0.25,0]];fontSize=16;resizeWidth=0;resizeHeight=0;fixedWidth=0;portConstraintRotation=0;rotatable=0;" parent="wNYMdcJmZEyQlPLakDN8-3" vertex="1">
                        <mxGeometry x="40" y="60" width="200" height="120" as="geometry"/>
                    </mxCell>
                </object>
                <object placeholders="1" label="&lt;font style=&quot;font-size: 16px&quot;&gt;&lt;b&gt;%Name%&lt;/b&gt;&lt;/font&gt;&lt;div&gt;&lt;font style=&quot;font-size: 11px;&quot;&gt;[Container: %Technology%]&lt;/font&gt;&lt;/div&gt;&lt;br&gt;&lt;div&gt;&lt;font style=&quot;font-size: 12px;&quot;&gt;%Description%&lt;/font&gt;&lt;/div&gt;" Name="Mobile application" Description="10.1.231.12" Technology="Swift" id="wNYMdcJmZEyQlPLakDN8-6">
                    <mxCell style="rounded=1;whiteSpace=wrap;html=1;labelBackgroundColor=none;fillColor=#23A2D9;fontColor=#ffffff;align=center;arcSize=6;strokeColor=#0E7DAD;metaEdit=1;resizable=1;points=[[0.25,0,0],[0.5,0,0],[0.75,0,0],[1,0.25,0],[1,0.5,0],[1,0.75,0],[0.75,1,0],[0.5,1,0],[0.25,1,0],[0,0.75,0],[0,0.5,0],[0,0.25,0]];fontSize=16;resizeWidth=0;resizeHeight=0;fixedWidth=0;portConstraintRotation=0;rotatable=0;" parent="wNYMdcJmZEyQlPLakDN8-3" vertex="1">
                        <mxGeometry x="260" y="60" width="200" height="120" as="geometry"/>
                    </mxCell>
                </object>
                <object placeholders="1" label="&lt;font style=&quot;font-size: 16px&quot;&gt;&lt;b&gt;%Name%&lt;/b&gt;&lt;/font&gt;&lt;div&gt;&lt;font style=&quot;font-size: 11px;&quot;&gt;[Container: %Technology%]&lt;/font&gt;&lt;/div&gt;&lt;br&gt;&lt;div&gt;&lt;font style=&quot;font-size: 12px;&quot;&gt;%Description%&lt;/font&gt;&lt;/div&gt;" Name="Web application" Description="10.1.231.13" Technology="Typescript, React" id="wNYMdcJmZEyQlPLakDN8-7">
                    <mxCell style="rounded=1;whiteSpace=wrap;html=1;labelBackgroundColor=none;fillColor=#23A2D9;fontColor=#ffffff;align=center;arcSize=6;strokeColor=#0E7DAD;metaEdit=1;resizable=1;points=[[0.25,0,0],[0.5,0,0],[0.75,0,0],[1,0.25,0],[1,0.5,0],[1,0.75,0],[0.75,1,0],[0.5,1,0],[0.25,1,0],[0,0.75,0],[0,0.5,0],[0,0.25,0]];fontSize=16;resizeWidth=0;resizeHeight=0;fixedWidth=0;portConstraintRotation=0;rotatable=0;" parent="wNYMdcJmZEyQlPLakDN8-3" vertex="1">
                        <mxGeometry x="480" y="60" width="200" height="120" as="geometry"/>
                    </mxCell>
                </object>
                <object placeholders="1" label="&lt;font style=&quot;font-size: 16px&quot;&gt;&lt;b&gt;&lt;div style=&quot;text-align: left&quot;&gt;%Name%&lt;/div&gt;&lt;/b&gt;&lt;/font&gt;&lt;div style=&quot;text-align: left&quot;&gt;[%NodeType%]&lt;/div&gt;" Name="TEST" NodeType="Cluster" id="wNYMdcJmZEyQlPLakDN8-8">
                    <mxCell style="rounded=1;fontSize=11;whiteSpace=wrap;html=1;arcSize=20;fillColor=none;strokeColor=#999999;fontColor=#333333;labelBackgroundColor=none;align=left;verticalAlign=top;labelBorderColor=none;spacingTop=0;spacing=10;metaEdit=1;rotatable=0;perimeter=rectanglePerimeter;noLabel=0;labelPadding=0;allowArrows=0;connectable=0;expand=0;recursiveResize=0;editable=1;pointerEvents=0;absoluteArcSize=1;points=[[0.25,0,0],[0.5,0,0],[0.75,0,0],[1,0.25,0],[1,0.5,0],[1,0.75,0],[0.75,1,0],[0.5,1,0],[0.25,1,0],[0,0.75,0],[0,0.5,0],[0,0.25,0]];container=1;collapsible=0;" parent="wNYMdcJmZEyQlPLakDN8-2" vertex="1">
                        <mxGeometry x="40" y="300" width="720" height="220" as="geometry">
                            <mxRectangle x="680" y="640" width="160" height="80" as="alternateBounds"/>
                        </mxGeometry>
                    </mxCell>
                </object>
                <object placeholders="1" label="&lt;font style=&quot;font-size: 16px&quot;&gt;&lt;b&gt;%Name%&lt;/b&gt;&lt;/font&gt;&lt;div&gt;&lt;font style=&quot;font-size: 11px;&quot;&gt;[Container: %Technology%]&lt;/font&gt;&lt;/div&gt;&lt;br&gt;&lt;div&gt;&lt;font style=&quot;font-size: 12px;&quot;&gt;%Description%&lt;/font&gt;&lt;/div&gt;" Name="Loyalty service" Description="10.1.231.21" Technology="Express, NestJS" id="wNYMdcJmZEyQlPLakDN8-9">
                    <mxCell style="rounded=1;whiteSpace=wrap;html=1;labelBackgroundColor=none;fillColor=#23A2D9;fontColor=#ffffff;align=center;arcSize=6;strokeColor=#0E7DAD;metaEdit=1;resizable=1;points=[[0.25,0,0],[0.5,0,0],[0.75,0,0],[1,0.25,0],[1,0.5,0],[1,0.75,0],[0.75,1,0],[0.5,1,0],[0.25,1,0],[0,0.75,0],[0,0.5,0],[0,0.25,0]];fontSize=16;resizeWidth=0;resizeHeight=0;fixedWidth=0;portConstraintRotation=0;rotatable=0;" parent="wNYMdcJmZEyQlPLakDN8-8" vertex="1">
                        <mxGeometry x="40" y="60" width="200" height="120" as="geometry"/>
                    </mxCell>
                </object>
                <object placeholders="1" label="&lt;font style=&quot;font-size: 16px&quot;&gt;&lt;b&gt;%Name%&lt;/b&gt;&lt;/font&gt;&lt;div&gt;&lt;font style=&quot;font-size: 11px;&quot;&gt;[Container: %Technology%]&lt;/font&gt;&lt;/div&gt;&lt;br&gt;&lt;div&gt;&lt;font style=&quot;font-size: 12px;&quot;&gt;%Description%&lt;/font&gt;&lt;/div&gt;" Name="Mobile application" Description="10.1.231.22" Technology="Swift" id="wNYMdcJmZEyQlPLakDN8-11">
                    <mxCell style="rounded=1;whiteSpace=wrap;html=1;labelBackgroundColor=none;fillColor=#23A2D9;fontColor=#ffffff;align=center;arcSize=6;strokeColor=#0E7DAD;metaEdit=1;resizable=1;points=[[0.25,0,0],[0.5,0,0],[0.75,0,0],[1,0.25,0],[1,0.5,0],[1,0.75,0],[0.75,1,0],[0.5,1,0],[0.25,1,0],[0,0.75,0],[0,0.5,0],[0,0.25,0]];fontSize=16;resizeWidth=0;resizeHeight=0;fixedWidth=0;portConstraintRotation=0;rotatable=0;" parent="wNYMdcJmZEyQlPLakDN8-8" vertex="1">
                        <mxGeometry x="260" y="60" width="200" height="120" as="geometry"/>
                    </mxCell>
                </object>
                <object placeholders="1" label="&lt;font style=&quot;font-size: 16px&quot;&gt;&lt;b&gt;%Name%&lt;/b&gt;&lt;/font&gt;&lt;div&gt;&lt;font style=&quot;font-size: 11px;&quot;&gt;[Container: %Technology%]&lt;/font&gt;&lt;/div&gt;&lt;br&gt;&lt;div&gt;&lt;font style=&quot;font-size: 12px;&quot;&gt;%Description%&lt;/font&gt;&lt;/div&gt;" Name="Web application" Description="10.1.231.23" Technology="Typescript, React" id="wNYMdcJmZEyQlPLakDN8-12">
                    <mxCell style="rounded=1;whiteSpace=wrap;html=1;labelBackgroundColor=none;fillColor=#23A2D9;fontColor=#ffffff;align=center;arcSize=6;strokeColor=#0E7DAD;metaEdit=1;resizable=1;points=[[0.25,0,0],[0.5,0,0],[0.75,0,0],[1,0.25,0],[1,0.5,0],[1,0.75,0],[0.75,1,0],[0.5,1,0],[0.25,1,0],[0,0.75,0],[0,0.5,0],[0,0.25,0]];fontSize=16;resizeWidth=0;resizeHeight=0;fixedWidth=0;portConstraintRotation=0;rotatable=0;" parent="wNYMdcJmZEyQlPLakDN8-8" vertex="1">
                        <mxGeometry x="480" y="60" width="200" height="120" as="geometry"/>
                    </mxCell>
                </object>
                <object placeholders="1" label="&lt;font style=&quot;font-size: 16px&quot;&gt;&lt;b&gt;&lt;div style=&quot;text-align: left&quot;&gt;%Name%&lt;/div&gt;&lt;/b&gt;&lt;/font&gt;&lt;div style=&quot;text-align: left&quot;&gt;[%NodeType%]&lt;/div&gt;" Name="PREPROD" NodeType="Cluster" id="wNYMdcJmZEyQlPLakDN8-23">
                    <mxCell style="rounded=1;fontSize=11;whiteSpace=wrap;html=1;arcSize=20;fillColor=none;strokeColor=#999999;fontColor=#333333;labelBackgroundColor=none;align=left;verticalAlign=top;labelBorderColor=none;spacingTop=0;spacing=10;metaEdit=1;rotatable=0;perimeter=rectanglePerimeter;noLabel=0;labelPadding=0;allowArrows=0;connectable=0;expand=0;recursiveResize=0;editable=1;pointerEvents=0;absoluteArcSize=1;points=[[0.25,0,0],[0.5,0,0],[0.75,0,0],[1,0.25,0],[1,0.5,0],[1,0.75,0],[0.75,1,0],[0.5,1,0],[0.25,1,0],[0,0.75,0],[0,0.5,0],[0,0.25,0]];container=1;collapsible=0;" parent="wNYMdcJmZEyQlPLakDN8-2" vertex="1">
                        <mxGeometry x="40" y="540" width="720" height="220" as="geometry">
                            <mxRectangle x="680" y="640" width="160" height="80" as="alternateBounds"/>
                        </mxGeometry>
                    </mxCell>
                </object>
                <object placeholders="1" label="&lt;font style=&quot;font-size: 16px&quot;&gt;&lt;b&gt;%Name%&lt;/b&gt;&lt;/font&gt;&lt;div&gt;&lt;font style=&quot;font-size: 11px;&quot;&gt;[Container: %Technology%]&lt;/font&gt;&lt;/div&gt;&lt;br&gt;&lt;div&gt;&lt;font style=&quot;font-size: 12px;&quot;&gt;%Description%&lt;/font&gt;&lt;/div&gt;" Name="Loyalty service" Description="10.1.231.31" Technology="Express, NestJS" id="wNYMdcJmZEyQlPLakDN8-24">
                    <mxCell style="rounded=1;whiteSpace=wrap;html=1;labelBackgroundColor=none;fillColor=#23A2D9;fontColor=#ffffff;align=center;arcSize=6;strokeColor=#0E7DAD;metaEdit=1;resizable=1;points=[[0.25,0,0],[0.5,0,0],[0.75,0,0],[1,0.25,0],[1,0.5,0],[1,0.75,0],[0.75,1,0],[0.5,1,0],[0.25,1,0],[0,0.75,0],[0,0.5,0],[0,0.25,0]];fontSize=16;resizeWidth=0;resizeHeight=0;fixedWidth=0;portConstraintRotation=0;rotatable=0;" parent="wNYMdcJmZEyQlPLakDN8-23" vertex="1">
                        <mxGeometry x="40" y="60" width="200" height="120" as="geometry"/>
                    </mxCell>
                </object>
                <object placeholders="1" label="&lt;font style=&quot;font-size: 16px&quot;&gt;&lt;b&gt;%Name%&lt;/b&gt;&lt;/font&gt;&lt;div&gt;&lt;font style=&quot;font-size: 11px;&quot;&gt;[Container: %Technology%]&lt;/font&gt;&lt;/div&gt;&lt;br&gt;&lt;div&gt;&lt;font style=&quot;font-size: 12px;&quot;&gt;%Description%&lt;/font&gt;&lt;/div&gt;" Name="Mobile application" Description="10.1.231.32" Technology="Swift" id="wNYMdcJmZEyQlPLakDN8-26">
                    <mxCell style="rounded=1;whiteSpace=wrap;html=1;labelBackgroundColor=none;fillColor=#23A2D9;fontColor=#ffffff;align=center;arcSize=6;strokeColor=#0E7DAD;metaEdit=1;resizable=1;points=[[0.25,0,0],[0.5,0,0],[0.75,0,0],[1,0.25,0],[1,0.5,0],[1,0.75,0],[0.75,1,0],[0.5,1,0],[0.25,1,0],[0,0.75,0],[0,0.5,0],[0,0.25,0]];fontSize=16;resizeWidth=0;resizeHeight=0;fixedWidth=0;portConstraintRotation=0;rotatable=0;" parent="wNYMdcJmZEyQlPLakDN8-23" vertex="1">
                        <mxGeometry x="260" y="60" width="200" height="120" as="geometry"/>
                    </mxCell>
                </object>
                <object placeholders="1" label="&lt;font style=&quot;font-size: 16px&quot;&gt;&lt;b&gt;%Name%&lt;/b&gt;&lt;/font&gt;&lt;div&gt;&lt;font style=&quot;font-size: 11px;&quot;&gt;[Container: %Technology%]&lt;/font&gt;&lt;/div&gt;&lt;br&gt;&lt;div&gt;&lt;font style=&quot;font-size: 12px;&quot;&gt;%Description%&lt;/font&gt;&lt;/div&gt;" Name="Web application" Description="10.1.231.33" Technology="Typescript, React" id="wNYMdcJmZEyQlPLakDN8-27">
                    <mxCell style="rounded=1;whiteSpace=wrap;html=1;labelBackgroundColor=none;fillColor=#23A2D9;fontColor=#ffffff;align=center;arcSize=6;strokeColor=#0E7DAD;metaEdit=1;resizable=1;points=[[0.25,0,0],[0.5,0,0],[0.75,0,0],[1,0.25,0],[1,0.5,0],[1,0.75,0],[0.75,1,0],[0.5,1,0],[0.25,1,0],[0,0.75,0],[0,0.5,0],[0,0.25,0]];fontSize=16;resizeWidth=0;resizeHeight=0;fixedWidth=0;portConstraintRotation=0;rotatable=0;" parent="wNYMdcJmZEyQlPLakDN8-23" vertex="1">
                        <mxGeometry x="480" y="60" width="200" height="120" as="geometry"/>
                    </mxCell>
                </object>
                <object placeholders="1" label="&lt;font style=&quot;font-size: 16px&quot;&gt;&lt;b&gt;&lt;div style=&quot;text-align: left&quot;&gt;%Name%&lt;/div&gt;&lt;/b&gt;&lt;/font&gt;&lt;div style=&quot;text-align: left&quot;&gt;[%NodeType%]&lt;/div&gt;" Name="PROD" NodeType="Cluster" id="wNYMdcJmZEyQlPLakDN8-38">
                    <mxCell style="rounded=1;fontSize=11;whiteSpace=wrap;html=1;arcSize=20;fillColor=none;strokeColor=#999999;fontColor=#333333;labelBackgroundColor=none;align=left;verticalAlign=top;labelBorderColor=none;spacingTop=0;spacing=10;metaEdit=1;rotatable=0;perimeter=rectanglePerimeter;noLabel=0;labelPadding=0;allowArrows=0;connectable=0;expand=0;recursiveResize=0;editable=1;pointerEvents=0;absoluteArcSize=1;points=[[0.25,0,0],[0.5,0,0],[0.75,0,0],[1,0.25,0],[1,0.5,0],[1,0.75,0],[0.75,1,0],[0.5,1,0],[0.25,1,0],[0,0.75,0],[0,0.5,0],[0,0.25,0]];container=1;collapsible=0;" parent="wNYMdcJmZEyQlPLakDN8-2" vertex="1">
                        <mxGeometry x="40" y="780" width="720" height="220" as="geometry">
                            <mxRectangle x="680" y="640" width="160" height="80" as="alternateBounds"/>
                        </mxGeometry>
                    </mxCell>
                </object>
                <object placeholders="1" label="&lt;font style=&quot;font-size: 16px&quot;&gt;&lt;b&gt;%Name%&lt;/b&gt;&lt;/font&gt;&lt;div&gt;&lt;font style=&quot;font-size: 11px;&quot;&gt;[Container: %Technology%]&lt;/font&gt;&lt;/div&gt;&lt;br&gt;&lt;div&gt;&lt;font style=&quot;font-size: 12px;&quot;&gt;%Description%&lt;/font&gt;&lt;/div&gt;" Name="Loyalty service" Description="10.1.231.41" Technology="Express, NestJS" id="wNYMdcJmZEyQlPLakDN8-39">
                    <mxCell style="rounded=1;whiteSpace=wrap;html=1;labelBackgroundColor=none;fillColor=#23A2D9;fontColor=#ffffff;align=center;arcSize=6;strokeColor=#0E7DAD;metaEdit=1;resizable=1;points=[[0.25,0,0],[0.5,0,0],[0.75,0,0],[1,0.25,0],[1,0.5,0],[1,0.75,0],[0.75,1,0],[0.5,1,0],[0.25,1,0],[0,0.75,0],[0,0.5,0],[0,0.25,0]];fontSize=16;resizeWidth=0;resizeHeight=0;fixedWidth=0;portConstraintRotation=0;rotatable=0;" parent="wNYMdcJmZEyQlPLakDN8-38" vertex="1">
                        <mxGeometry x="40" y="60" width="200" height="120" as="geometry"/>
                    </mxCell>
                </object>
                <object placeholders="1" label="&lt;font style=&quot;font-size: 16px&quot;&gt;&lt;b&gt;%Name%&lt;/b&gt;&lt;/font&gt;&lt;div&gt;&lt;font style=&quot;font-size: 11px;&quot;&gt;[Container: %Technology%]&lt;/font&gt;&lt;/div&gt;&lt;br&gt;&lt;div&gt;&lt;font style=&quot;font-size: 12px;&quot;&gt;%Description%&lt;/font&gt;&lt;/div&gt;" Name="Mobile application" Description="10.1.231.42" Technology="Swift" id="wNYMdcJmZEyQlPLakDN8-41">
                    <mxCell style="rounded=1;whiteSpace=wrap;html=1;labelBackgroundColor=none;fillColor=#23A2D9;fontColor=#ffffff;align=center;arcSize=6;strokeColor=#0E7DAD;metaEdit=1;resizable=1;points=[[0.25,0,0],[0.5,0,0],[0.75,0,0],[1,0.25,0],[1,0.5,0],[1,0.75,0],[0.75,1,0],[0.5,1,0],[0.25,1,0],[0,0.75,0],[0,0.5,0],[0,0.25,0]];fontSize=16;resizeWidth=0;resizeHeight=0;fixedWidth=0;portConstraintRotation=0;rotatable=0;" parent="wNYMdcJmZEyQlPLakDN8-38" vertex="1">
                        <mxGeometry x="260" y="60" width="200" height="120" as="geometry"/>
                    </mxCell>
                </object>
                <object placeholders="1" label="&lt;font style=&quot;font-size: 16px&quot;&gt;&lt;b&gt;%Name%&lt;/b&gt;&lt;/font&gt;&lt;div&gt;&lt;font style=&quot;font-size: 11px;&quot;&gt;[Container: %Technology%]&lt;/font&gt;&lt;/div&gt;&lt;br&gt;&lt;div&gt;&lt;font style=&quot;font-size: 12px;&quot;&gt;%Description%&lt;/font&gt;&lt;/div&gt;" Name="Web application" Description="10.1.231.43" Technology="Typescript, React" id="wNYMdcJmZEyQlPLakDN8-42">
                    <mxCell style="rounded=1;whiteSpace=wrap;html=1;labelBackgroundColor=none;fillColor=#23A2D9;fontColor=#ffffff;align=center;arcSize=6;strokeColor=#0E7DAD;metaEdit=1;resizable=1;points=[[0.25,0,0],[0.5,0,0],[0.75,0,0],[1,0.25,0],[1,0.5,0],[1,0.75,0],[0.75,1,0],[0.5,1,0],[0.25,1,0],[0,0.75,0],[0,0.5,0],[0,0.25,0]];fontSize=16;resizeWidth=0;resizeHeight=0;fixedWidth=0;portConstraintRotation=0;rotatable=0;" parent="wNYMdcJmZEyQlPLakDN8-38" vertex="1">
                        <mxGeometry x="480" y="60" width="200" height="120" as="geometry"/>
                    </mxCell>
                </object>
                <object placeholders="1" label="&lt;font style=&quot;font-size: 16px&quot;&gt;&lt;b&gt;&lt;div style=&quot;text-align: left&quot;&gt;%Name%&lt;/div&gt;&lt;/b&gt;&lt;/font&gt;&lt;div style=&quot;text-align: left&quot;&gt;[%NodeType%]&lt;/div&gt;" Name="Virtualization Platform" NodeType="Platform" id="uPo5SYfqAqiM5a8rlkM4-1">
                    <mxCell style="rounded=1;fontSize=11;whiteSpace=wrap;html=1;arcSize=20;fillColor=none;strokeColor=#999999;fontColor=#333333;labelBackgroundColor=none;align=left;verticalAlign=top;labelBorderColor=none;spacingTop=0;spacing=10;metaEdit=1;rotatable=0;perimeter=rectanglePerimeter;noLabel=0;labelPadding=0;allowArrows=0;connectable=0;expand=0;recursiveResize=0;editable=1;pointerEvents=0;absoluteArcSize=1;points=[[0.25,0,0],[0.5,0,0],[0.75,0,0],[1,0.25,0],[1,0.5,0],[1,0.75,0],[0.75,1,0],[0.5,1,0],[0.25,1,0],[0,0.75,0],[0,0.5,0],[0,0.25,0]];container=1;collapsible=0;" parent="wNYMdcJmZEyQlPLakDN8-1" vertex="1">
                        <mxGeometry x="880" y="60" width="580" height="1040" as="geometry">
                            <mxRectangle x="680" y="640" width="160" height="80" as="alternateBounds"/>
                        </mxGeometry>
                    </mxCell>
                </object>
                <object placeholders="1" label="&lt;font style=&quot;font-size: 16px&quot;&gt;&lt;b&gt;&lt;div style=&quot;text-align: left&quot;&gt;%Name%&lt;/div&gt;&lt;/b&gt;&lt;/font&gt;&lt;div style=&quot;text-align: left&quot;&gt;[%NodeType%]&lt;/div&gt;" Name="DEV" NodeType="Cluster" id="uPo5SYfqAqiM5a8rlkM4-2">
                    <mxCell style="rounded=1;fontSize=11;whiteSpace=wrap;html=1;arcSize=20;fillColor=none;strokeColor=#999999;fontColor=#333333;labelBackgroundColor=none;align=left;verticalAlign=top;labelBorderColor=none;spacingTop=0;spacing=10;metaEdit=1;rotatable=0;perimeter=rectanglePerimeter;noLabel=0;labelPadding=0;allowArrows=0;connectable=0;expand=0;recursiveResize=0;editable=1;pointerEvents=0;absoluteArcSize=1;points=[[0.25,0,0],[0.5,0,0],[0.75,0,0],[1,0.25,0],[1,0.5,0],[1,0.75,0],[0.75,1,0],[0.5,1,0],[0.25,1,0],[0,0.75,0],[0,0.5,0],[0,0.25,0]];container=1;collapsible=0;" parent="uPo5SYfqAqiM5a8rlkM4-1" vertex="1">
                        <mxGeometry x="40" y="60" width="500" height="220" as="geometry">
                            <mxRectangle x="680" y="640" width="160" height="80" as="alternateBounds"/>
                        </mxGeometry>
                    </mxCell>
                </object>
                <object placeholders="1" label="&lt;font style=&quot;font-size: 16px&quot;&gt;&lt;b&gt;%Name%&lt;/b&gt;&lt;/font&gt;&lt;div&gt;&lt;font style=&quot;font-size: 11px;&quot;&gt;[Container: %Technology%]&lt;/font&gt;&lt;/div&gt;&lt;br&gt;&lt;div&gt;&lt;font style=&quot;font-size: 12px;&quot;&gt;%Description%&lt;/font&gt;&lt;/div&gt;" Name="Loyalty Database" Description="10.1.232.11" Technology="Oracle Database 12" id="uPo5SYfqAqiM5a8rlkM4-3">
                    <mxCell style="rounded=1;whiteSpace=wrap;html=1;labelBackgroundColor=none;fillColor=#23A2D9;fontColor=#ffffff;align=center;arcSize=6;strokeColor=#0E7DAD;metaEdit=1;resizable=1;points=[[0.25,0,0],[0.5,0,0],[0.75,0,0],[1,0.25,0],[1,0.5,0],[1,0.75,0],[0.75,1,0],[0.5,1,0],[0.25,1,0],[0,0.75,0],[0,0.5,0],[0,0.25,0]];fontSize=16;resizeWidth=0;resizeHeight=0;fixedWidth=0;portConstraintRotation=0;rotatable=0;" parent="uPo5SYfqAqiM5a8rlkM4-2" vertex="1">
                        <mxGeometry x="40" y="60" width="200" height="120" as="geometry"/>
                    </mxCell>
                </object>
                <object placeholders="1" label="&lt;font style=&quot;font-size: 16px&quot;&gt;&lt;b&gt;%Name%&lt;/b&gt;&lt;/font&gt;&lt;div&gt;&lt;font style=&quot;font-size: 11px;&quot;&gt;[Container: %Technology%]&lt;/font&gt;&lt;/div&gt;&lt;br&gt;&lt;div&gt;&lt;font style=&quot;font-size: 12px;&quot;&gt;%Description%&lt;/font&gt;&lt;/div&gt;" Name="Message broker" Description="10.1.232.12" Technology="Kafka" id="uPo5SYfqAqiM5a8rlkM4-4">
                    <mxCell style="rounded=1;whiteSpace=wrap;html=1;labelBackgroundColor=none;fillColor=#23A2D9;fontColor=#ffffff;align=center;arcSize=6;strokeColor=#0E7DAD;metaEdit=1;resizable=1;points=[[0.25,0,0],[0.5,0,0],[0.75,0,0],[1,0.25,0],[1,0.5,0],[1,0.75,0],[0.75,1,0],[0.5,1,0],[0.25,1,0],[0,0.75,0],[0,0.5,0],[0,0.25,0]];fontSize=16;resizeWidth=0;resizeHeight=0;fixedWidth=0;portConstraintRotation=0;rotatable=0;" parent="uPo5SYfqAqiM5a8rlkM4-2" vertex="1">
                        <mxGeometry x="260" y="60" width="200" height="120" as="geometry"/>
                    </mxCell>
                </object>
                <object placeholders="1" label="&lt;font style=&quot;font-size: 16px&quot;&gt;&lt;b&gt;&lt;div style=&quot;text-align: left&quot;&gt;%Name%&lt;/div&gt;&lt;/b&gt;&lt;/font&gt;&lt;div style=&quot;text-align: left&quot;&gt;[%NodeType%]&lt;/div&gt;" Name="TEST" NodeType="Cluster" id="uPo5SYfqAqiM5a8rlkM4-7">
                    <mxCell style="rounded=1;fontSize=11;whiteSpace=wrap;html=1;arcSize=20;fillColor=none;strokeColor=#999999;fontColor=#333333;labelBackgroundColor=none;align=left;verticalAlign=top;labelBorderColor=none;spacingTop=0;spacing=10;metaEdit=1;rotatable=0;perimeter=rectanglePerimeter;noLabel=0;labelPadding=0;allowArrows=0;connectable=0;expand=0;recursiveResize=0;editable=1;pointerEvents=0;absoluteArcSize=1;points=[[0.25,0,0],[0.5,0,0],[0.75,0,0],[1,0.25,0],[1,0.5,0],[1,0.75,0],[0.75,1,0],[0.5,1,0],[0.25,1,0],[0,0.75,0],[0,0.5,0],[0,0.25,0]];container=1;collapsible=0;" parent="uPo5SYfqAqiM5a8rlkM4-1" vertex="1">
                        <mxGeometry x="40" y="300" width="500" height="220" as="geometry">
                            <mxRectangle x="680" y="640" width="160" height="80" as="alternateBounds"/>
                        </mxGeometry>
                    </mxCell>
                </object>
                <object placeholders="1" label="&lt;font style=&quot;font-size: 16px&quot;&gt;&lt;b&gt;%Name%&lt;/b&gt;&lt;/font&gt;&lt;div&gt;&lt;font style=&quot;font-size: 11px;&quot;&gt;[Container: %Technology%]&lt;/font&gt;&lt;/div&gt;&lt;br&gt;&lt;div&gt;&lt;font style=&quot;font-size: 12px;&quot;&gt;%Description%&lt;/font&gt;&lt;/div&gt;" Name="Loyalty Database" Description="10.1.232.21" Technology="Oracle Database 12" id="uPo5SYfqAqiM5a8rlkM4-8">
                    <mxCell style="rounded=1;whiteSpace=wrap;html=1;labelBackgroundColor=none;fillColor=#23A2D9;fontColor=#ffffff;align=center;arcSize=6;strokeColor=#0E7DAD;metaEdit=1;resizable=1;points=[[0.25,0,0],[0.5,0,0],[0.75,0,0],[1,0.25,0],[1,0.5,0],[1,0.75,0],[0.75,1,0],[0.5,1,0],[0.25,1,0],[0,0.75,0],[0,0.5,0],[0,0.25,0]];fontSize=16;resizeWidth=0;resizeHeight=0;fixedWidth=0;portConstraintRotation=0;rotatable=0;" parent="uPo5SYfqAqiM5a8rlkM4-7" vertex="1">
                        <mxGeometry x="40" y="60" width="200" height="120" as="geometry"/>
                    </mxCell>
                </object>
                <object placeholders="1" label="&lt;font style=&quot;font-size: 16px&quot;&gt;&lt;b&gt;%Name%&lt;/b&gt;&lt;/font&gt;&lt;div&gt;&lt;font style=&quot;font-size: 11px;&quot;&gt;[Container: %Technology%]&lt;/font&gt;&lt;/div&gt;&lt;br&gt;&lt;div&gt;&lt;font style=&quot;font-size: 12px;&quot;&gt;%Description%&lt;/font&gt;&lt;/div&gt;" Name="Message broker" Description="10.1.232.22" Technology="MongoDB" id="uPo5SYfqAqiM5a8rlkM4-9">
                    <mxCell style="rounded=1;whiteSpace=wrap;html=1;labelBackgroundColor=none;fillColor=#23A2D9;fontColor=#ffffff;align=center;arcSize=6;strokeColor=#0E7DAD;metaEdit=1;resizable=1;points=[[0.25,0,0],[0.5,0,0],[0.75,0,0],[1,0.25,0],[1,0.5,0],[1,0.75,0],[0.75,1,0],[0.5,1,0],[0.25,1,0],[0,0.75,0],[0,0.5,0],[0,0.25,0]];fontSize=16;resizeWidth=0;resizeHeight=0;fixedWidth=0;portConstraintRotation=0;rotatable=0;" parent="uPo5SYfqAqiM5a8rlkM4-7" vertex="1">
                        <mxGeometry x="260" y="60" width="200" height="120" as="geometry"/>
                    </mxCell>
                </object>
                <object placeholders="1" label="&lt;font style=&quot;font-size: 16px&quot;&gt;&lt;b&gt;&lt;div style=&quot;text-align: left&quot;&gt;%Name%&lt;/div&gt;&lt;/b&gt;&lt;/font&gt;&lt;div style=&quot;text-align: left&quot;&gt;[%NodeType%]&lt;/div&gt;" Name="PREPROD" NodeType="Cluster" id="uPo5SYfqAqiM5a8rlkM4-12">
                    <mxCell style="rounded=1;fontSize=11;whiteSpace=wrap;html=1;arcSize=20;fillColor=none;strokeColor=#999999;fontColor=#333333;labelBackgroundColor=none;align=left;verticalAlign=top;labelBorderColor=none;spacingTop=0;spacing=10;metaEdit=1;rotatable=0;perimeter=rectanglePerimeter;noLabel=0;labelPadding=0;allowArrows=0;connectable=0;expand=0;recursiveResize=0;editable=1;pointerEvents=0;absoluteArcSize=1;points=[[0.25,0,0],[0.5,0,0],[0.75,0,0],[1,0.25,0],[1,0.5,0],[1,0.75,0],[0.75,1,0],[0.5,1,0],[0.25,1,0],[0,0.75,0],[0,0.5,0],[0,0.25,0]];container=1;collapsible=0;" parent="uPo5SYfqAqiM5a8rlkM4-1" vertex="1">
                        <mxGeometry x="40" y="540" width="500" height="220" as="geometry">
                            <mxRectangle x="680" y="640" width="160" height="80" as="alternateBounds"/>
                        </mxGeometry>
                    </mxCell>
                </object>
                <object placeholders="1" label="&lt;font style=&quot;font-size: 16px&quot;&gt;&lt;b&gt;%Name%&lt;/b&gt;&lt;/font&gt;&lt;div&gt;&lt;font style=&quot;font-size: 11px;&quot;&gt;[Container: %Technology%]&lt;/font&gt;&lt;/div&gt;&lt;br&gt;&lt;div&gt;&lt;font style=&quot;font-size: 12px;&quot;&gt;%Description%&lt;/font&gt;&lt;/div&gt;" Name="Loyalty Database" Description="10.1.232.31" Technology="Oracle Database 12" id="uPo5SYfqAqiM5a8rlkM4-13">
                    <mxCell style="rounded=1;whiteSpace=wrap;html=1;labelBackgroundColor=none;fillColor=#23A2D9;fontColor=#ffffff;align=center;arcSize=6;strokeColor=#0E7DAD;metaEdit=1;resizable=1;points=[[0.25,0,0],[0.5,0,0],[0.75,0,0],[1,0.25,0],[1,0.5,0],[1,0.75,0],[0.75,1,0],[0.5,1,0],[0.25,1,0],[0,0.75,0],[0,0.5,0],[0,0.25,0]];fontSize=16;resizeWidth=0;resizeHeight=0;fixedWidth=0;portConstraintRotation=0;rotatable=0;" parent="uPo5SYfqAqiM5a8rlkM4-12" vertex="1">
                        <mxGeometry x="40" y="60" width="200" height="120" as="geometry"/>
                    </mxCell>
                </object>
                <object placeholders="1" label="&lt;font style=&quot;font-size: 16px&quot;&gt;&lt;b&gt;%Name%&lt;/b&gt;&lt;/font&gt;&lt;div&gt;&lt;font style=&quot;font-size: 11px;&quot;&gt;[Container: %Technology%]&lt;/font&gt;&lt;/div&gt;&lt;br&gt;&lt;div&gt;&lt;font style=&quot;font-size: 12px;&quot;&gt;%Description%&lt;/font&gt;&lt;/div&gt;" Name="Message broker" Description="10.1.232.32" Technology="Kafka" id="uPo5SYfqAqiM5a8rlkM4-14">
                    <mxCell style="rounded=1;whiteSpace=wrap;html=1;labelBackgroundColor=none;fillColor=#23A2D9;fontColor=#ffffff;align=center;arcSize=6;strokeColor=#0E7DAD;metaEdit=1;resizable=1;points=[[0.25,0,0],[0.5,0,0],[0.75,0,0],[1,0.25,0],[1,0.5,0],[1,0.75,0],[0.75,1,0],[0.5,1,0],[0.25,1,0],[0,0.75,0],[0,0.5,0],[0,0.25,0]];fontSize=16;resizeWidth=0;resizeHeight=0;fixedWidth=0;portConstraintRotation=0;rotatable=0;" parent="uPo5SYfqAqiM5a8rlkM4-12" vertex="1">
                        <mxGeometry x="260" y="60" width="200" height="120" as="geometry"/>
                    </mxCell>
                </object>
                <object placeholders="1" label="&lt;font style=&quot;font-size: 16px&quot;&gt;&lt;b&gt;&lt;div style=&quot;text-align: left&quot;&gt;%Name%&lt;/div&gt;&lt;/b&gt;&lt;/font&gt;&lt;div style=&quot;text-align: left&quot;&gt;[%NodeType%]&lt;/div&gt;" Name="PROD" NodeType="Cluster" id="uPo5SYfqAqiM5a8rlkM4-17">
                    <mxCell style="rounded=1;fontSize=11;whiteSpace=wrap;html=1;arcSize=20;fillColor=none;strokeColor=#999999;fontColor=#333333;labelBackgroundColor=none;align=left;verticalAlign=top;labelBorderColor=none;spacingTop=0;spacing=10;metaEdit=1;rotatable=0;perimeter=rectanglePerimeter;noLabel=0;labelPadding=0;allowArrows=0;connectable=0;expand=0;recursiveResize=0;editable=1;pointerEvents=0;absoluteArcSize=1;points=[[0.25,0,0],[0.5,0,0],[0.75,0,0],[1,0.25,0],[1,0.5,0],[1,0.75,0],[0.75,1,0],[0.5,1,0],[0.25,1,0],[0,0.75,0],[0,0.5,0],[0,0.25,0]];container=1;collapsible=0;" parent="uPo5SYfqAqiM5a8rlkM4-1" vertex="1">
                        <mxGeometry x="40" y="780" width="500" height="220" as="geometry">
                            <mxRectangle x="680" y="640" width="160" height="80" as="alternateBounds"/>
                        </mxGeometry>
                    </mxCell>
                </object>
                <object placeholders="1" label="&lt;font style=&quot;font-size: 16px&quot;&gt;&lt;b&gt;%Name%&lt;/b&gt;&lt;/font&gt;&lt;div&gt;&lt;font style=&quot;font-size: 11px;&quot;&gt;[Container: %Technology%]&lt;/font&gt;&lt;/div&gt;&lt;br&gt;&lt;div&gt;&lt;font style=&quot;font-size: 12px;&quot;&gt;%Description%&lt;/font&gt;&lt;/div&gt;" Name="Loyalty Database" Description="10.1.232.41" Technology="Oracle Database 12" id="uPo5SYfqAqiM5a8rlkM4-18">
                    <mxCell style="rounded=1;whiteSpace=wrap;html=1;labelBackgroundColor=none;fillColor=#23A2D9;fontColor=#ffffff;align=center;arcSize=6;strokeColor=#0E7DAD;metaEdit=1;resizable=1;points=[[0.25,0,0],[0.5,0,0],[0.75,0,0],[1,0.25,0],[1,0.5,0],[1,0.75,0],[0.75,1,0],[0.5,1,0],[0.25,1,0],[0,0.75,0],[0,0.5,0],[0,0.25,0]];fontSize=16;resizeWidth=0;resizeHeight=0;fixedWidth=0;portConstraintRotation=0;rotatable=0;" parent="uPo5SYfqAqiM5a8rlkM4-17" vertex="1">
                        <mxGeometry x="40" y="60" width="200" height="120" as="geometry"/>
                    </mxCell>
                </object>
                <object placeholders="1" label="&lt;font style=&quot;font-size: 16px&quot;&gt;&lt;b&gt;%Name%&lt;/b&gt;&lt;/font&gt;&lt;div&gt;&lt;font style=&quot;font-size: 11px;&quot;&gt;[Container: %Technology%]&lt;/font&gt;&lt;/div&gt;&lt;br&gt;&lt;div&gt;&lt;font style=&quot;font-size: 12px;&quot;&gt;%Description%&lt;/font&gt;&lt;/div&gt;" Name="Message broker" Description="10.1.232.42" Technology="Kafka" id="uPo5SYfqAqiM5a8rlkM4-19">
                    <mxCell style="rounded=1;whiteSpace=wrap;html=1;labelBackgroundColor=none;fillColor=#23A2D9;fontColor=#ffffff;align=center;arcSize=6;strokeColor=#0E7DAD;metaEdit=1;resizable=1;points=[[0.25,0,0],[0.5,0,0],[0.75,0,0],[1,0.25,0],[1,0.5,0],[1,0.75,0],[0.75,1,0],[0.5,1,0],[0.25,1,0],[0,0.75,0],[0,0.5,0],[0,0.25,0]];fontSize=16;resizeWidth=0;resizeHeight=0;fixedWidth=0;portConstraintRotation=0;rotatable=0;" parent="uPo5SYfqAqiM5a8rlkM4-17" vertex="1">
                        <mxGeometry x="260" y="60" width="200" height="120" as="geometry"/>
                    </mxCell>
                </object>
                <object placeholders="1" label="&lt;font style=&quot;font-size: 16px&quot;&gt;&lt;b&gt;&lt;div style=&quot;text-align: left&quot;&gt;[Deployment]: %Name%&lt;/div&gt;&lt;/b&gt;&lt;/font&gt;&lt;div style=&quot;text-align: left&quot;&gt;&lt;font color=&quot;#4f5a5b&quot;&gt;%Description%&lt;/font&gt;&lt;/div&gt;" Name="Loyalty program deployment" Description="Deployment diagram for VMs and K8S" id="Ywi-cIw4Gk-9faiU1ydn-1">
                    <mxCell style="text;html=1;strokeColor=none;fillColor=none;align=left;verticalAlign=top;whiteSpace=wrap;rounded=0;metaEdit=1;allowArrows=0;resizable=1;rotatable=0;connectable=0;recursiveResize=0;expand=0;pointerEvents=0;points=[[0.25,0,0],[0.5,0,0],[0.75,0,0],[1,0.25,0],[1,0.5,0],[1,0.75,0],[0.75,1,0],[0.5,1,0],[0.25,1,0],[0,0.75,0],[0,0.5,0],[0,0.25,0]];" parent="1" vertex="1">
                        <mxGeometry x="80" y="80" width="440" height="40" as="geometry"/>
                    </mxCell>
                </object>
            </root>
        </mxGraphModel>
    </diagram>
    <diagram id="eFWmTW25zlH_oakUQsdO" name="minimal">
        <mxGraphModel dx="265" dy="844" grid="1" gridSize="10" guides="1" tooltips="1" connect="1" arrows="1" fold="1" page="1" pageScale="1" pageWidth="1169" pageHeight="827" math="0" shadow="0">
            <root>
                <mxCell id="0"/>
                <mxCell id="1" parent="0"/>
                <object placeholders="1" label="&lt;b&gt;Person&lt;/b&gt;" Name="Container name" Description="Description" Technology="Spring" id="tgQk3DSCpQMKaRqgOjy4-1">
                    <mxCell style="rounded=1;whiteSpace=wrap;html=1;labelBackgroundColor=none;fillColor=#083F75;fontColor=#ffffff;align=center;arcSize=6;strokeColor=#0D5091;metaEdit=0;resizable=1;points=[[0.25,0,0],[0.5,0,0],[0.75,0,0],[1,0.25,0],[1,0.5,0],[1,0.75,0],[0.75,1,0],[0.5,1,0],[0.25,1,0],[0,0.75,0],[0,0.5,0],[0,0.25,0]];fontSize=16;resizeWidth=0;resizeHeight=0;fixedWidth=0;portConstraintRotation=0;rotatable=0;" parent="1" vertex="1">
                        <mxGeometry x="1280" y="160" width="200" height="80" as="geometry"/>
                    </mxCell>
                </object>
                <object placeholders="1" label="&lt;div style=&quot;text-align: left&quot;&gt;&lt;div style=&quot;text-align: center&quot;&gt;&lt;b&gt;&lt;font color=&quot;#000000&quot;&gt;%Description%&lt;/font&gt;&lt;/b&gt;&lt;/div&gt;&lt;div style=&quot;text-align: center&quot;&gt;&lt;font color=&quot;#000000&quot;&gt;[%Technology%]&lt;/font&gt;&lt;/div&gt;&lt;/div&gt;" Description="Makes API calls" Technology="JSON/HTTPS" id="tgQk3DSCpQMKaRqgOjy4-31">
                    <mxCell style="endArrow=block;html=1;fontSize=10;fontColor=#404040;strokeWidth=1;endFill=1;strokeColor=#828282;elbow=vertical;metaEdit=1;endSize=8;startSize=8;jumpStyle=arc;jumpSize=16;rounded=0;exitX=1;exitY=0.5;exitDx=0;exitDy=0;exitPerimeter=0;fontStyle=0;comic=0;" parent="1" source="9-YEJfVk1d7dl6Q3YVFC-4" target="tgQk3DSCpQMKaRqgOjy4-29" edge="1">
                        <mxGeometry x="0.1904" y="3" width="240" relative="1" as="geometry">
                            <mxPoint x="1550" y="350" as="sourcePoint"/>
                            <mxPoint x="1540" y="830" as="targetPoint"/>
                            <mxPoint as="offset"/>
                        </mxGeometry>
                    </mxCell>
                </object>
                <object placeholders="1" label="&lt;div style=&quot;text-align: left&quot;&gt;&lt;div style=&quot;text-align: center&quot;&gt;&lt;b&gt;&lt;font color=&quot;#000000&quot;&gt;%Description%&lt;/font&gt;&lt;/b&gt;&lt;/div&gt;&lt;div style=&quot;text-align: center&quot;&gt;&lt;font color=&quot;#000000&quot;&gt;[%Technology%]&lt;/font&gt;&lt;/div&gt;&lt;/div&gt;" Description="Makes API calls" Technology="3348/TCP" id="G2UgCzt36AaHlSNWoe9l-7">
                    <mxCell style="endArrow=block;html=1;fontSize=10;fontColor=#404040;strokeWidth=1;endFill=1;strokeColor=#828282;metaEdit=1;endSize=8;startSize=8;jumpStyle=arc;jumpSize=16;rounded=0;edgeStyle=orthogonalEdgeStyle;entryX=0.5;entryY=1;entryDx=0;entryDy=0;entryPerimeter=0;fontStyle=0;comic=0;exitX=1;exitY=0.75;exitDx=0;exitDy=0;exitPerimeter=0;" parent="1" source="9-YEJfVk1d7dl6Q3YVFC-4" target="G2UgCzt36AaHlSNWoe9l-6" edge="1">
                        <mxGeometry x="0.3959" width="240" relative="1" as="geometry">
                            <mxPoint x="1550" y="350" as="sourcePoint"/>
                            <mxPoint x="1574" y="960" as="targetPoint"/>
                            <mxPoint as="offset"/>
                        </mxGeometry>
                    </mxCell>
                </object>
                <object placeholders="1" label="&lt;font style=&quot;font-size: 16px&quot;&gt;&lt;b&gt;&lt;div style=&quot;text-align: left&quot;&gt;%Name%&lt;/div&gt;&lt;/b&gt;&lt;/font&gt;&lt;div style=&quot;text-align: left&quot;&gt;[Software system]&lt;/div&gt;" Name="System name" id="_I2SKXx7QLhe5HPxlcn8-7">
                    <mxCell style="rounded=1;fontSize=11;whiteSpace=wrap;html=1;dashed=1;arcSize=20;fillColor=none;strokeColor=#666666;fontColor=#333333;labelBackgroundColor=none;align=left;verticalAlign=top;labelBorderColor=none;spacingTop=0;spacing=10;dashPattern=8 4;metaEdit=1;rotatable=0;perimeter=rectanglePerimeter;noLabel=0;labelPadding=0;allowArrows=0;connectable=0;expand=0;recursiveResize=0;editable=1;pointerEvents=0;absoluteArcSize=1;points=[[0.25,0,0],[0.5,0,0],[0.75,0,0],[1,0.25,0],[1,0.5,0],[1,0.75,0],[0.75,1,0],[0.5,1,0],[0.25,1,0],[0,0.75,0],[0,0.5,0],[0,0.25,0]];container=0;collapsible=0;" parent="1" vertex="1">
                        <mxGeometry x="1710" y="240" width="280" height="480" as="geometry">
                            <mxRectangle x="1710" y="140" width="160" height="80" as="alternateBounds"/>
                        </mxGeometry>
                    </mxCell>
                </object>
                <mxCell id="_6B1ZO839ynPvYweuD-6-1" style="rounded=0;orthogonalLoop=1;jettySize=auto;html=1;entryX=0.5;entryY=1;entryDx=0;entryDy=0;entryPerimeter=0;strokeColor=#828282;endArrow=block;endFill=1;endSize=8;startSize=8;exitX=0.5;exitY=0;exitDx=0;exitDy=0;exitPerimeter=0;startArrow=blockThin;startFill=1;fontSize=10;fontColor=#404040;strokeWidth=1;fontStyle=0;comic=0;edgeStyle=orthogonalEdgeStyle;" parent="1" source="tgQk3DSCpQMKaRqgOjy4-21" target="tgQk3DSCpQMKaRqgOjy4-4" edge="1">
                    <mxGeometry relative="1" as="geometry">
                        <mxPoint x="1550" y="350" as="sourcePoint"/>
                    </mxGeometry>
                </mxCell>
                <mxCell id="_6B1ZO839ynPvYweuD-6-2" value="&lt;b&gt;Send messages&lt;/b&gt;&lt;br&gt;[JSON/HTTP]" style="edgeLabel;html=1;align=center;verticalAlign=middle;resizable=0;points=[];" parent="_6B1ZO839ynPvYweuD-6-1" vertex="1" connectable="0">
                    <mxGeometry x="0.2067" y="1" relative="1" as="geometry">
                        <mxPoint x="1" as="offset"/>
                    </mxGeometry>
                </mxCell>
                <object placeholders="1" label="&lt;b style=&quot;border-color: var(--border-color);&quot;&gt;External system&lt;/b&gt;" Name="Container name" Description="Description" Technology="Spring" id="tgQk3DSCpQMKaRqgOjy4-21">
                    <mxCell style="rounded=1;whiteSpace=wrap;html=1;labelBackgroundColor=none;fillColor=#8C8496;fontColor=#ffffff;align=center;arcSize=6;strokeColor=#736782;metaEdit=0;resizable=1;points=[[0.25,0,0],[0.5,0,0],[0.75,0,0],[1,0.25,0],[1,0.5,0],[1,0.75,0],[0.75,1,0],[0.5,1,0],[0.25,1,0],[0,0.75,0],[0,0.5,0],[0,0.25,0]];fontSize=16;resizeWidth=0;resizeHeight=0;fixedWidth=0;portConstraintRotation=0;rotatable=0;" parent="1" vertex="1">
                        <mxGeometry x="2120" y="320" width="200" height="80" as="geometry"/>
                    </mxCell>
                </object>
                <mxCell id="yWmW9ioO5UUUZJf2p5ef-7" style="rounded=0;orthogonalLoop=1;jettySize=auto;html=1;strokeColor=#828282;endArrow=block;endFill=1;endSize=8;startSize=8;exitX=1;exitY=0.5;exitDx=0;exitDy=0;exitPerimeter=0;fontSize=10;fontColor=#404040;strokeWidth=1;fontStyle=0;comic=0;" parent="1" source="tgQk3DSCpQMKaRqgOjy4-29" target="tgQk3DSCpQMKaRqgOjy4-21" edge="1">
                    <mxGeometry relative="1" as="geometry">
                        <mxPoint x="2050" y="300" as="sourcePoint"/>
                        <mxPoint x="2310" y="140" as="targetPoint"/>
                    </mxGeometry>
                </mxCell>
                <mxCell id="yWmW9ioO5UUUZJf2p5ef-8" value="&lt;b&gt;Makes API requests&lt;/b&gt;&lt;br&gt;[JSON/HTTP]" style="edgeLabel;html=1;align=center;verticalAlign=middle;resizable=0;points=[];" parent="yWmW9ioO5UUUZJf2p5ef-7" vertex="1" connectable="0">
                    <mxGeometry x="0.2067" y="1" relative="1" as="geometry">
                        <mxPoint x="-23" y="1" as="offset"/>
                    </mxGeometry>
                </mxCell>
                <object placeholders="1" label="&lt;b&gt;External person&lt;/b&gt;" Name="Container name" Description="Description" Technology="Spring" id="tgQk3DSCpQMKaRqgOjy4-4">
                    <mxCell style="rounded=1;whiteSpace=wrap;html=1;labelBackgroundColor=none;fillColor=#6C6477;fontColor=#ffffff;align=center;arcSize=6;strokeColor=#4D4D4D;metaEdit=0;resizable=1;points=[[0.25,0,0],[0.5,0,0],[0.75,0,0],[1,0.25,0],[1,0.5,0],[1,0.75,0],[0.75,1,0],[0.5,1,0],[0.25,1,0],[0,0.75,0],[0,0.5,0],[0,0.25,0]];fontSize=16;resizeWidth=0;resizeHeight=0;fixedWidth=0;portConstraintRotation=0;rotatable=0;" parent="1" vertex="1">
                        <mxGeometry x="2120" y="120" width="200" height="80" as="geometry"/>
                    </mxCell>
                </object>
                <object placeholders="1" label="&lt;b style=&quot;border-color: var(--border-color);&quot;&gt;Microservice&lt;/b&gt;" Name="Container name" Description="Description" Technology="Spring" id="tgQk3DSCpQMKaRqgOjy4-29">
                    <mxCell style="rounded=1;whiteSpace=wrap;html=1;labelBackgroundColor=none;fillColor=#23A2D9;fontColor=#ffffff;align=center;arcSize=6;strokeColor=#0E7DAD;metaEdit=0;resizable=1;points=[[0.25,0,0],[0.5,0,0],[0.75,0,0],[1,0.25,0],[1,0.5,0],[1,0.75,0],[0.75,1,0],[0.5,1,0],[0.25,1,0],[0,0.75,0],[0,0.5,0],[0,0.25,0]];fontSize=16;resizeWidth=0;resizeHeight=0;fixedWidth=0;portConstraintRotation=0;rotatable=0;" parent="1" vertex="1">
                        <mxGeometry x="1760" y="320" width="200" height="80" as="geometry"/>
                    </mxCell>
                </object>
                <mxCell id="G2UgCzt36AaHlSNWoe9l-3" value="&lt;font color=&quot;#ffffff&quot;&gt;&lt;span style=&quot;font-size: 16px;&quot;&gt;&lt;b&gt;PostgreSQL&lt;/b&gt;&lt;/span&gt;&lt;/font&gt;" style="shape=cylinder3;whiteSpace=wrap;html=1;boundedLbl=1;backgroundOutline=1;size=9.352912454044429;fillColor=#23A2D9;strokeColor=#0E7DAD;" parent="1" vertex="1">
                    <mxGeometry x="1760" y="480" width="200" height="80" as="geometry"/>
                </mxCell>
                <mxCell id="G2UgCzt36AaHlSNWoe9l-6" value="&lt;font color=&quot;#ffffff&quot;&gt;&lt;span style=&quot;font-size: 16px;&quot;&gt;&lt;b&gt;Redis&lt;/b&gt;&lt;/span&gt;&lt;/font&gt;" style="shape=cylinder3;whiteSpace=wrap;html=1;boundedLbl=1;backgroundOutline=1;size=9.352912454044429;fillColor=#23A2D9;strokeColor=#0E7DAD;direction=south;" parent="1" vertex="1">
                    <mxGeometry x="1760" y="600" width="200" height="80" as="geometry"/>
                </mxCell>
                <mxCell id="yWmW9ioO5UUUZJf2p5ef-10" style="rounded=0;orthogonalLoop=1;jettySize=auto;html=1;strokeColor=#828282;endArrow=block;endFill=1;endSize=8;startSize=8;exitX=0.5;exitY=1;exitDx=0;exitDy=0;exitPerimeter=0;entryX=0.5;entryY=0;entryDx=0;entryDy=0;entryPerimeter=0;fontSize=10;fontColor=#404040;strokeWidth=1;fontStyle=0;comic=0;edgeStyle=orthogonalEdgeStyle;" parent="1" source="tgQk3DSCpQMKaRqgOjy4-29" target="G2UgCzt36AaHlSNWoe9l-3" edge="1">
                    <mxGeometry relative="1" as="geometry">
                        <mxPoint x="2010" y="510" as="sourcePoint"/>
                        <mxPoint x="2160" y="590" as="targetPoint"/>
                    </mxGeometry>
                </mxCell>
                <mxCell id="yWmW9ioO5UUUZJf2p5ef-11" value="&lt;b&gt;Makes SQL requests&lt;/b&gt;&lt;br&gt;[3488/TCP]" style="edgeLabel;html=1;align=center;verticalAlign=middle;resizable=0;points=[];" parent="yWmW9ioO5UUUZJf2p5ef-10" vertex="1" connectable="0">
                    <mxGeometry x="0.2067" y="1" relative="1" as="geometry">
                        <mxPoint x="-1" y="-10" as="offset"/>
                    </mxGeometry>
                </mxCell>
                <object placeholders="1" label="&lt;b&gt;System&lt;/b&gt;" Name="Container name" Description="Description" Technology="Spring" id="9-YEJfVk1d7dl6Q3YVFC-4">
                    <mxCell style="rounded=1;whiteSpace=wrap;html=1;labelBackgroundColor=none;fillColor=#1061B0;fontColor=#ffffff;align=center;arcSize=6;strokeColor=#06315C;metaEdit=0;resizable=1;points=[[0.25,0,0],[0.5,0,0],[0.75,0,0],[1,0.25,0],[1,0.5,0],[1,0.75,0],[0.75,1,0],[0.5,1,0],[0.25,1,0],[0,0.75,0],[0,0.5,0],[0,0.25,0]];fontSize=16;resizeWidth=0;resizeHeight=0;fixedWidth=0;portConstraintRotation=0;rotatable=0;" parent="1" vertex="1">
                        <mxGeometry x="1280" y="320" width="200" height="80" as="geometry"/>
                    </mxCell>
                </object>
                <object placeholders="1" label="&lt;b style=&quot;border-color: var(--border-color);&quot;&gt;Module&lt;/b&gt;" Name="Container name" Description="Description" Technology="Spring" id="9-YEJfVk1d7dl6Q3YVFC-8">
                    <mxCell style="rounded=1;whiteSpace=wrap;html=1;labelBackgroundColor=none;fillColor=#63BEF2;fontColor=#ffffff;align=center;arcSize=6;strokeColor=#2086C9;metaEdit=0;resizable=1;points=[[0.25,0,0],[0.5,0,0],[0.75,0,0],[1,0.25,0],[1,0.5,0],[1,0.75,0],[0.75,1,0],[0.5,1,0],[0.25,1,0],[0,0.75,0],[0,0.5,0],[0,0.25,0]];fontSize=16;resizeWidth=0;resizeHeight=0;fixedWidth=0;portConstraintRotation=0;rotatable=0;" parent="1" vertex="1">
                        <mxGeometry x="1760" y="120" width="200" height="80" as="geometry"/>
                    </mxCell>
                </object>
                <mxCell id="HrBRSpDTGGmb36a_Sdic-1" style="rounded=0;orthogonalLoop=1;jettySize=auto;html=1;strokeColor=#828282;endArrow=block;endFill=1;endSize=8;startSize=8;exitX=0.5;exitY=0;exitDx=0;exitDy=0;exitPerimeter=0;entryX=0.5;entryY=1;entryDx=0;entryDy=0;entryPerimeter=0;fontSize=10;fontColor=#404040;strokeWidth=1;fontStyle=0;comic=0;edgeStyle=orthogonalEdgeStyle;" parent="1" source="tgQk3DSCpQMKaRqgOjy4-29" target="9-YEJfVk1d7dl6Q3YVFC-8" edge="1">
                    <mxGeometry relative="1" as="geometry">
                        <mxPoint x="1870" y="310" as="sourcePoint"/>
                        <mxPoint x="2030" y="310" as="targetPoint"/>
                    </mxGeometry>
                </mxCell>
                <mxCell id="HrBRSpDTGGmb36a_Sdic-4" style="edgeStyle=orthogonalEdgeStyle;rounded=0;orthogonalLoop=1;jettySize=auto;html=1;entryX=0.5;entryY=0;entryDx=0;entryDy=0;entryPerimeter=0;endArrow=block;strokeColor=#828282;endFill=1;endSize=8;startSize=8;fontSize=10;fontColor=#404040;strokeWidth=1;fontStyle=0;comic=0;" parent="1" source="tgQk3DSCpQMKaRqgOjy4-1" target="9-YEJfVk1d7dl6Q3YVFC-4" edge="1">
                    <mxGeometry relative="1" as="geometry"/>
                </mxCell>
            </root>
        </mxGraphModel>
    </diagram>
    <diagram id="D1We78Rjxg0t5vu61QGQ" name="shapes">
        <mxGraphModel dx="2607" dy="1535" grid="1" gridSize="10" guides="1" tooltips="1" connect="1" arrows="1" fold="1" page="1" pageScale="1" pageWidth="1169" pageHeight="827" math="0" shadow="0">
            <root>
                <mxCell id="0"/>
                <mxCell id="1" parent="0"/>
                <object placeholders="1" label="&lt;font style=&quot;font-size: 16px&quot;&gt;&lt;b&gt;%Name%&lt;/b&gt;&lt;/font&gt;&lt;div&gt;[%Type%]&lt;/div&gt;&lt;br&gt;&lt;div&gt;&lt;font style=&quot;font-size: 11px&quot;&gt;%Description%&lt;/font&gt;&lt;/div&gt;" Name="Person name" Description="Description" Type="Person" UID="" id="dX2h5AL-QH6hP2mIYu4_-1">
                    <mxCell style="html=1;fontSize=11;dashed=0;whiteSpace=wrap;fillColor=#083F75;strokeColor=#06315C;fontColor=#ffffff;shape=mxgraph.c4.person2;align=center;metaEdit=1;points=[[0,0.55,0,0,0],[0,0.68,0,0,0],[0,0.81,0,0,0],[0.25,1,0,0,0],[0.5,0,0,0,0],[0.5,1,0,0,0],[0.75,1,0,0,0],[1,0.53,0,0,0],[1,0.68,0,0,0],[1,0.81,0,0,0]];resizable=1;autosize=0;resizeWidth=0;fillStyle=auto;rotatable=0;strokeWidth=1;" vertex="1" parent="1">
                        <mxGeometry x="320" y="49.5" width="200" height="190" as="geometry"/>
                    </mxCell>
                </object>
                <object placeholders="1" label="&lt;font size=&quot;1&quot; style=&quot;&quot;&gt;&lt;b style=&quot;font-size: 16px;&quot;&gt;%Name%&lt;/b&gt;&lt;/font&gt;&lt;div&gt;&lt;font style=&quot;font-size: 11px;&quot;&gt;[%Type%]&lt;/font&gt;&lt;/div&gt;&lt;br&gt;&lt;div&gt;&lt;font style=&quot;font-size: 12px;&quot;&gt;%Description%&lt;/font&gt;&lt;/div&gt;" Name="System name" Description="Description" Type="Software system" UID="" id="dX2h5AL-QH6hP2mIYu4_-2">
                    <mxCell style="rounded=1;whiteSpace=wrap;html=1;labelBackgroundColor=none;fillColor=#1061B0;fontColor=#ffffff;align=center;arcSize=10;strokeColor=#0A131F;metaEdit=1;resizable=1;points=[[0.25,0,0],[0.5,0,0],[0.75,0,0],[1,0.25,0],[1,0.5,0],[1,0.75,0],[0.75,1,0],[0.5,1,0],[0.25,1,0],[0,0.75,0],[0,0.5,0],[0,0.25,0]];fontSize=16;backgroundOutline=0;collapsible=0;dropTarget=0;movableLabel=0;perimeter=rectanglePerimeter;snapToPoint=0;autosize=0;treeMoving=0;enumerate=0;rotatable=0;" vertex="1" parent="1">
                        <mxGeometry x="320" y="280" width="200" height="120" as="geometry"/>
                    </mxCell>
                </object>
                <object placeholders="1" label="&lt;font style=&quot;font-size: 16px&quot;&gt;&lt;b&gt;%Name%&lt;/b&gt;&lt;/font&gt;&lt;div&gt;&lt;font style=&quot;font-size: 11px;&quot;&gt;[%Type%: %Technology%]&lt;/font&gt;&lt;/div&gt;&lt;br&gt;&lt;div&gt;&lt;font style=&quot;font-size: 12px;&quot;&gt;%Description%&lt;/font&gt;&lt;/div&gt;" Name="Component name" Description="Description" Technology="Spring" Type="Component" UID="" Parent="XXX" id="dX2h5AL-QH6hP2mIYu4_-3">
                    <mxCell style="rounded=1;whiteSpace=wrap;html=1;labelBackgroundColor=none;fillColor=#23A2D9;fontColor=#ffffff;align=center;arcSize=6;strokeColor=#0077CC;metaEdit=1;resizable=1;points=[[0.25,0,0],[0.5,0,0],[0.75,0,0],[1,0.25,0],[1,0.5,0],[1,0.75,0],[0.75,1,0],[0.5,1,0],[0.25,1,0],[0,0.75,0],[0,0.5,0],[0,0.25,0]];fontSize=16;resizeWidth=0;resizeHeight=0;fixedWidth=0;portConstraintRotation=0;rotatable=0;" vertex="1" parent="1">
                        <mxGeometry x="320" y="440" width="200" height="120" as="geometry"/>
                    </mxCell>
                </object>
                <object placeholders="1" label="&lt;font style=&quot;font-size: 16px&quot;&gt;&lt;b&gt;%Name%&lt;/b&gt;&lt;/font&gt;&lt;div&gt;&lt;font style=&quot;font-size: 11px;&quot;&gt;[%Type%: %Technology%]&lt;/font&gt;&lt;/div&gt;&lt;br&gt;&lt;div&gt;&lt;font style=&quot;font-size: 12px;&quot;&gt;%Description%&lt;/font&gt;&lt;/div&gt;" Name="Module name" Description="Description" Technology="Spring " Type="Module" UID="" id="dX2h5AL-QH6hP2mIYu4_-4">
                    <mxCell style="rounded=1;whiteSpace=wrap;html=1;labelBackgroundColor=none;fillColor=#63BEF2;fontColor=#ffffff;align=center;arcSize=0;strokeColor=#2086C9;metaEdit=1;resizable=1;points=[[0.25,0,0],[0.5,0,0],[0.75,0,0],[1,0.25,0],[1,0.5,0],[1,0.75,0],[0.75,1,0],[0.5,1,0],[0.25,1,0],[0,0.75,0],[0,0.5,0],[0,0.25,0]];fontSize=16;movableLabel=0;movable=1;backgroundOutline=0;rotatable=0;gradientColor=none;" vertex="1" parent="1">
                        <mxGeometry x="320" y="1240" width="200" height="120" as="geometry"/>
                    </mxCell>
                </object>
                <object placeholders="1" label="&lt;font style=&quot;font-size: 16px&quot;&gt;&lt;b&gt;%Name%&lt;/b&gt;&lt;/font&gt;&lt;div&gt;[&lt;span style=&quot;background-color: initial;&quot;&gt;%Type%&lt;/span&gt;&lt;span style=&quot;background-color: initial;&quot;&gt;]&lt;/span&gt;&lt;/div&gt;&lt;br&gt;&lt;div&gt;&lt;font style=&quot;font-size: 11px&quot;&gt;%Description%&lt;/font&gt;&lt;/div&gt;" Name="External person name" Description="Description" UID="" Type="External person" id="dX2h5AL-QH6hP2mIYu4_-5">
                    <mxCell style="html=1;fontSize=11;dashed=0;whiteSpace=wrap;fillColor=#6C6477;strokeColor=#4D4D4D;fontColor=#ffffff;shape=mxgraph.c4.person2;align=center;metaEdit=1;points=[[0,0.68,0,-2,0],[0.01,0.52,0,0,0],[0.01,0.84,0,0,0],[0.25,1,0,0,0],[0.5,0,0,0,0],[0.5,1,0,0,0],[0.75,1,0,0,0],[0.98,0.52,0,0,0],[0.98,0.84,0,0,0],[1,0.68,0,0,0]];resizable=1;rotatable=0;" vertex="1" parent="1">
                        <mxGeometry x="600" y="49.5" width="200" height="190" as="geometry"/>
                    </mxCell>
                </object>
                <object placeholders="1" label="&lt;font style=&quot;font-size: 16px&quot;&gt;&lt;b&gt;&lt;div style=&quot;text-align: left&quot;&gt;%Name%&lt;/div&gt;&lt;/b&gt;&lt;/font&gt;&lt;div style=&quot;text-align: left&quot;&gt;[%Type%]&lt;/div&gt;" Name="Component name" UID="" Type="Component" id="dX2h5AL-QH6hP2mIYu4_-6">
                    <mxCell style="rounded=1;fontSize=11;whiteSpace=wrap;html=1;dashed=1;arcSize=20;fillColor=none;strokeColor=#666666;fontColor=#333333;labelBackgroundColor=none;align=left;verticalAlign=top;labelBorderColor=none;spacingTop=0;spacing=10;dashPattern=8 4;metaEdit=1;rotatable=0;perimeter=rectanglePerimeter;noLabel=0;labelPadding=0;allowArrows=0;connectable=0;expand=0;recursiveResize=0;editable=1;pointerEvents=0;absoluteArcSize=1;points=[[0.25,0,0],[0.5,0,0],[0.75,0,0],[1,0.25,0],[1,0.5,0],[1,0.75,0],[0.75,1,0],[0.5,1,0],[0.25,1,0],[0,0.75,0],[0,0.5,0],[0,0.25,0]];container=1;" vertex="1" parent="1">
                        <mxGeometry x="600" y="600" width="200" height="120" as="geometry">
                            <mxRectangle x="680" y="640" width="160" height="80" as="alternateBounds"/>
                        </mxGeometry>
                    </mxCell>
                </object>
                <object placeholders="1" label="&lt;font style=&quot;font-size: 16px&quot;&gt;&lt;b&gt;&lt;div style=&quot;text-align: left&quot;&gt;%Name%&lt;/div&gt;&lt;/b&gt;&lt;/font&gt;&lt;div style=&quot;text-align: left&quot;&gt;[%Type%]&lt;/div&gt;" Name="System name" UID="" Type="System" Parent="XXX" id="dX2h5AL-QH6hP2mIYu4_-7">
                    <mxCell style="rounded=1;fontSize=11;whiteSpace=wrap;html=1;dashed=1;arcSize=20;fillColor=none;strokeColor=#666666;fontColor=#333333;labelBackgroundColor=none;align=left;verticalAlign=top;labelBorderColor=none;spacingTop=0;spacing=10;dashPattern=8 4;metaEdit=1;rotatable=0;perimeter=rectanglePerimeter;noLabel=0;labelPadding=0;allowArrows=0;connectable=0;expand=0;recursiveResize=0;editable=1;pointerEvents=0;absoluteArcSize=1;points=[[0.25,0,0],[0.5,0,0],[0.75,0,0],[1,0.25,0],[1,0.5,0],[1,0.75,0],[0.75,1,0],[0.5,1,0],[0.25,1,0],[0,0.75,0],[0,0.5,0],[0,0.25,0]];container=1;" vertex="1" parent="1">
                        <mxGeometry x="600" y="440" width="200" height="120" as="geometry">
                            <mxRectangle x="680" y="520" width="160" height="80" as="alternateBounds"/>
                        </mxGeometry>
                    </mxCell>
                </object>
                <object placeholders="1" label="&lt;font style=&quot;font-size: 16px&quot;&gt;&lt;b&gt;%Name%&lt;/b&gt;&lt;/font&gt;&lt;div&gt;&lt;font style=&quot;font-size: 11px;&quot;&gt;[%Type%:&amp;nbsp;%Technology%]&lt;/font&gt;&lt;/div&gt;&lt;br&gt;&lt;div&gt;&lt;font style=&quot;&quot;&gt;&lt;font style=&quot;font-size: 12px;&quot;&gt;%Description%&lt;/font&gt;&lt;/font&gt;&lt;/div&gt;" Description="Description" Technology="Kafka" Name="Message broker name" Type="Message broker" UID="" id="dX2h5AL-QH6hP2mIYu4_-8">
                    <mxCell style="shape=cylinder3;size=15;direction=south;whiteSpace=wrap;html=1;boundedLbl=1;rounded=0;labelBackgroundColor=none;fillColor=#23A2D9;fontSize=12;fontColor=#ffffff;align=center;strokeColor=#0077CC;metaEdit=1;points=[[0.5,0,0],[1,0.25,0],[1,0.5,0],[1,0.75,0],[0.5,1,0],[0,0.75,0],[0,0.5,0],[0,0.25,0]];resizable=1;shadow=0;rotatable=0;" vertex="1" parent="1">
                        <mxGeometry x="320" y="760" width="200" height="120" as="geometry"/>
                    </mxCell>
                </object>
                <object placeholders="1" label="&lt;div style=&quot;text-align: left&quot;&gt;&lt;div style=&quot;text-align: center&quot;&gt;&lt;b&gt;&lt;font color=&quot;#000000&quot;&gt;%Description%&lt;/font&gt;&lt;/b&gt;&lt;/div&gt;&lt;/div&gt;" Description="Использует" UID="" Type="ConnectionPerson" id="dX2h5AL-QH6hP2mIYu4_-9">
                    <mxCell style="endArrow=block;html=1;fontSize=10;fontColor=#404040;strokeWidth=1;endFill=1;strokeColor=#828282;elbow=vertical;metaEdit=1;endSize=8;startSize=8;jumpStyle=line;jumpSize=16;rounded=0;edgeStyle=orthogonalEdgeStyle;fontStyle=0;comic=0;" edge="1" parent="1">
                        <mxGeometry x="-0.1321" width="240" relative="1" as="geometry">
                            <mxPoint x="882" y="378.18" as="sourcePoint"/>
                            <mxPoint x="1082" y="378.18" as="targetPoint"/>
                            <mxPoint as="offset"/>
                        </mxGeometry>
                    </mxCell>
                </object>
                <object label="&lt;font size=&quot;1&quot; style=&quot;&quot;&gt;&lt;b style=&quot;font-size: 16px;&quot;&gt;%Name%&lt;/b&gt;&lt;/font&gt;&lt;div&gt;&lt;font style=&quot;font-size: 11px;&quot;&gt;[External software system]&lt;/font&gt;&lt;/div&gt;&lt;br&gt;&lt;div&gt;&lt;font style=&quot;font-size: 12px;&quot;&gt;%Description%&lt;/font&gt;&lt;/div&gt;" Name="External system name" Description="Description" placeholders="1" UID="" Type="External system" id="dX2h5AL-QH6hP2mIYu4_-10">
                    <mxCell style="rounded=1;whiteSpace=wrap;html=1;labelBackgroundColor=none;fillColor=#8C8496;fontColor=#ffffff;align=center;arcSize=10;strokeColor=#736782;metaEdit=1;resizable=1;points=[[0.25,0,0],[0.5,0,0],[0.75,0,0],[1,0.25,0],[1,0.5,0],[1,0.75,0],[0.75,1,0],[0.5,1,0],[0.25,1,0],[0,0.75,0],[0,0.5,0],[0,0.25,0]];fontSize=16;backgroundOutline=0;collapsible=0;dropTarget=0;movableLabel=0;perimeter=rectanglePerimeter;snapToPoint=0;autosize=0;treeMoving=0;enumerate=0;rotatable=1;editable=1;movable=1;deletable=1;locked=0;connectable=1;" vertex="1" parent="1">
                        <mxGeometry x="600" y="280" width="200" height="120" as="geometry"/>
                    </mxCell>
                </object>
                <object placeholders="1" label="&lt;div style=&quot;text-align: left&quot;&gt;&lt;div style=&quot;text-align: center&quot;&gt;&lt;b&gt;&lt;font color=&quot;#000000&quot;&gt;%Description%&lt;/font&gt;&lt;/b&gt;&lt;/div&gt;&lt;div style=&quot;text-align: center&quot;&gt;&lt;font color=&quot;#000000&quot;&gt;[%Technology%]&lt;/font&gt;&lt;/div&gt;&lt;/div&gt;" Description="Makes API calls" Technology="JSON/HTTPS" UID="" Type="Connection" Format="JSON" id="dX2h5AL-QH6hP2mIYu4_-11">
                    <mxCell style="endArrow=block;html=1;fontSize=10;fontColor=#404040;strokeWidth=1;endFill=1;strokeColor=#828282;elbow=vertical;metaEdit=1;endSize=8;startSize=8;jumpStyle=line;jumpSize=16;rounded=0;edgeStyle=orthogonalEdgeStyle;fontStyle=0;comic=0;" edge="1" parent="1">
                        <mxGeometry x="-0.1321" width="240" relative="1" as="geometry">
                            <mxPoint x="882" y="338.1799999999999" as="sourcePoint"/>
                            <mxPoint x="1082" y="338.1799999999999" as="targetPoint"/>
                            <mxPoint as="offset"/>
                        </mxGeometry>
                    </mxCell>
                </object>
                <object placeholders="1" label="&lt;font style=&quot;font-size: 16px&quot;&gt;&lt;b&gt;%Name%&lt;/b&gt;&lt;/font&gt;&lt;div&gt;&lt;font style=&quot;font-size: 11px;&quot;&gt;[%Type%:&amp;nbsp;%Technology%]&lt;/font&gt;&lt;/div&gt;&lt;br&gt;&lt;div&gt;&lt;font style=&quot;&quot;&gt;&lt;font style=&quot;font-size: 12px;&quot;&gt;%Description%&lt;/font&gt;&lt;/font&gt;&lt;/div&gt;" Name="Storage name" Description="Description" Technology="Oracle Database 12" Type="Storage" UID="" Parent="XXX" id="dX2h5AL-QH6hP2mIYu4_-15">
                    <mxCell style="shape=cylinder3;size=15;whiteSpace=wrap;html=1;boundedLbl=1;rounded=0;labelBackgroundColor=none;fillColor=#23A2D9;fontSize=12;fontColor=#ffffff;align=center;strokeColor=#0077CC;metaEdit=1;points=[[0.5,0,0],[1,0.25,0],[1,0.5,0],[1,0.75,0],[0.5,1,0],[0,0.75,0],[0,0.5,0],[0,0.25,0]];resizable=1;rotatable=0;" vertex="1" parent="1">
                        <mxGeometry x="320" y="600" width="200" height="120" as="geometry"/>
                    </mxCell>
                </object>
                <object placeholders="1" label="&lt;font style=&quot;font-size: 16px&quot;&gt;&lt;b&gt;&lt;div style=&quot;text-align: left&quot;&gt;[System context]: %Name%&lt;/div&gt;&lt;/b&gt;&lt;/font&gt;&lt;div style=&quot;text-align: left&quot;&gt;&lt;font color=&quot;#4f5a5b&quot;&gt;%Description%&lt;/font&gt;&lt;/div&gt;" Name="Title" Description="Description" UID="" Type="Title" id="dX2h5AL-QH6hP2mIYu4_-17">
                    <mxCell style="text;html=1;strokeColor=#666666;fillColor=none;align=left;verticalAlign=top;whiteSpace=wrap;rounded=0;metaEdit=1;allowArrows=0;resizable=1;rotatable=0;connectable=0;recursiveResize=0;expand=0;pointerEvents=0;points=[[0.25,0,0],[0.5,0,0],[0.75,0,0],[1,0.25,0],[1,0.5,0],[1,0.75,0],[0.75,1,0],[0.5,1,0],[0.25,1,0],[0,0.75,0],[0,0.5,0],[0,0.25,0]];dashed=1;" vertex="1" parent="1">
                        <mxGeometry x="880" y="40.58" width="260" height="40" as="geometry"/>
                    </mxCell>
                </object>
                <object placeholders="1" label="&lt;font style=&quot;font-size: 16px&quot;&gt;&lt;b&gt;&lt;div style=&quot;text-align: left&quot;&gt;[Containers]: %Name%&lt;/div&gt;&lt;/b&gt;&lt;/font&gt;&lt;div style=&quot;text-align: left&quot;&gt;&lt;font color=&quot;#4f5a5b&quot;&gt;%Description%&lt;/font&gt;&lt;/div&gt;" Name="Title" Description="Description" UID="" Type="Title" id="dX2h5AL-QH6hP2mIYu4_-18">
                    <mxCell style="text;html=1;strokeColor=#666666;fillColor=none;align=left;verticalAlign=top;whiteSpace=wrap;rounded=0;metaEdit=1;allowArrows=0;resizable=1;rotatable=0;connectable=0;recursiveResize=0;expand=0;pointerEvents=0;points=[[0.25,0,0],[0.5,0,0],[0.75,0,0],[1,0.25,0],[1,0.5,0],[1,0.75,0],[0.75,1,0],[0.5,1,0],[0.25,1,0],[0,0.75,0],[0,0.5,0],[0,0.25,0]];dashed=1;" vertex="1" parent="1">
                        <mxGeometry x="880" y="120.08" width="260" height="40" as="geometry"/>
                    </mxCell>
                </object>
                <object placeholders="1" label="&lt;font style=&quot;font-size: 16px&quot;&gt;&lt;b&gt;&lt;div style=&quot;text-align: left&quot;&gt;[Components]: %Name%&lt;/div&gt;&lt;/b&gt;&lt;/font&gt;&lt;div style=&quot;text-align: left&quot;&gt;&lt;font color=&quot;#4f5a5b&quot;&gt;%Description%&lt;/font&gt;&lt;/div&gt;" Name="Title" Description="Description" UID="" Type="Title" id="dX2h5AL-QH6hP2mIYu4_-19">
                    <mxCell style="text;html=1;strokeColor=#666666;fillColor=none;align=left;verticalAlign=top;whiteSpace=wrap;rounded=0;metaEdit=1;allowArrows=0;resizable=1;rotatable=0;connectable=0;recursiveResize=0;expand=0;pointerEvents=0;points=[[0.25,0,0],[0.5,0,0],[0.75,0,0],[1,0.25,0],[1,0.5,0],[1,0.75,0],[0.75,1,0],[0.5,1,0],[0.25,1,0],[0,0.75,0],[0,0.5,0],[0,0.25,0]];dashed=1;" vertex="1" parent="1">
                        <mxGeometry x="880" y="200.08" width="260" height="40" as="geometry"/>
                    </mxCell>
                </object>
                <object placeholders="1" label="&lt;b&gt;Person&lt;/b&gt;" Name="Container name" Description="Description" Technology="Spring" UID="" Type="" id="dX2h5AL-QH6hP2mIYu4_-20">
                    <mxCell style="rounded=1;whiteSpace=wrap;html=1;labelBackgroundColor=none;fillColor=#083F75;fontColor=#ffffff;align=center;arcSize=6;strokeColor=#06315C;metaEdit=0;resizable=1;points=[[0.25,0,0],[0.5,0,0],[0.75,0,0],[1,0.25,0],[1,0.5,0],[1,0.75,0],[0.75,1,0],[0.5,1,0],[0.25,1,0],[0,0.75,0],[0,0.5,0],[0,0.25,0]];fontSize=16;resizeWidth=0;resizeHeight=0;fixedWidth=0;portConstraintRotation=0;rotatable=0;" vertex="1" parent="1">
                        <mxGeometry x="40" y="120.58000000000001" width="200" height="80" as="geometry"/>
                    </mxCell>
                </object>
                <object placeholders="1" label="&lt;b&gt;Removed element&lt;/b&gt;" Name="Container name" Description="Description" Technology="Spring" UID="" Type="" id="dX2h5AL-QH6hP2mIYu4_-21">
                    <mxCell style="rounded=1;whiteSpace=wrap;html=1;labelBackgroundColor=none;fillColor=#e74c3c;fontColor=#ffffff;align=center;arcSize=6;strokeColor=#c0392b;metaEdit=0;resizable=1;points=[[0.25,0,0],[0.5,0,0],[0.75,0,0],[1,0.25,0],[1,0.5,0],[1,0.75,0],[0.75,1,0],[0.5,1,0],[0.25,1,0],[0,0.75,0],[0,0.5,0],[0,0.25,0]];fontSize=16;resizeWidth=0;resizeHeight=0;fixedWidth=0;portConstraintRotation=0;rotatable=0;" vertex="1" parent="1">
                        <mxGeometry x="40" y="520.58" width="200" height="80" as="geometry"/>
                    </mxCell>
                </object>
                <object placeholders="1" label="&lt;b&gt;Added element&lt;/b&gt;" Name="Container name" Description="Description" Technology="Spring" UID="" Type="" id="dX2h5AL-QH6hP2mIYu4_-22">
                    <mxCell style="rounded=1;whiteSpace=wrap;html=1;labelBackgroundColor=none;fillColor=#2ecc71;fontColor=#ffffff;align=center;arcSize=6;strokeColor=#229954;metaEdit=0;resizable=1;points=[[0.25,0,0],[0.5,0,0],[0.75,0,0],[1,0.25,0],[1,0.5,0],[1,0.75,0],[0.75,1,0],[0.5,1,0],[0.25,1,0],[0,0.75,0],[0,0.5,0],[0,0.25,0]];fontSize=16;resizeWidth=0;resizeHeight=0;fixedWidth=0;portConstraintRotation=0;rotatable=0;" vertex="1" parent="1">
                        <mxGeometry x="40" y="620.58" width="200" height="80" as="geometry"/>
                    </mxCell>
                </object>
                <object placeholders="1" label="&lt;b&gt;External person&lt;/b&gt;" Name="Container name" Description="Description" Technology="Spring" UID="" Type="" id="dX2h5AL-QH6hP2mIYu4_-23">
                    <mxCell style="rounded=1;whiteSpace=wrap;html=1;labelBackgroundColor=none;fillColor=#6C6477;fontColor=#ffffff;align=center;arcSize=6;strokeColor=#4D4D4D;metaEdit=0;resizable=1;points=[[0.25,0,0],[0.5,0,0],[0.75,0,0],[1,0.25,0],[1,0.5,0],[1,0.75,0],[0.75,1,0],[0.5,1,0],[0.25,1,0],[0,0.75,0],[0,0.5,0],[0,0.25,0]];fontSize=16;resizeWidth=0;resizeHeight=0;fixedWidth=0;portConstraintRotation=0;rotatable=0;" vertex="1" parent="1">
                        <mxGeometry x="40" y="720.58" width="200" height="80" as="geometry"/>
                    </mxCell>
                </object>
                <object placeholders="1" label="&lt;b style=&quot;border-color: var(--border-color);&quot;&gt;External system&lt;/b&gt;" Name="Container name" Description="Description" Technology="Spring" UID="" Type="" id="dX2h5AL-QH6hP2mIYu4_-24">
                    <mxCell style="rounded=1;whiteSpace=wrap;html=1;labelBackgroundColor=none;fillColor=#8C8496;fontColor=#ffffff;align=center;arcSize=6;strokeColor=#736782;metaEdit=0;resizable=1;points=[[0.25,0,0],[0.5,0,0],[0.75,0,0],[1,0.25,0],[1,0.5,0],[1,0.75,0],[0.75,1,0],[0.5,1,0],[0.25,1,0],[0,0.75,0],[0,0.5,0],[0,0.25,0]];fontSize=16;resizeWidth=0;resizeHeight=0;fixedWidth=0;portConstraintRotation=0;rotatable=0;" vertex="1" parent="1">
                        <mxGeometry x="40" y="820.58" width="200" height="80" as="geometry"/>
                    </mxCell>
                </object>
                <object placeholders="1" label="&lt;b style=&quot;border-color: var(--border-color);&quot;&gt;Additional&lt;/b&gt;" Name="Container name" Description="Description" Technology="Spring" UID="" Type="" id="dX2h5AL-QH6hP2mIYu4_-25">
                    <mxCell style="rounded=1;whiteSpace=wrap;html=1;labelBackgroundColor=none;fillColor=#b3c2c5;fontColor=#ffffff;align=center;arcSize=6;strokeColor=#8a9ea1;metaEdit=0;resizable=1;points=[[0.25,0,0],[0.5,0,0],[0.75,0,0],[1,0.25,0],[1,0.5,0],[1,0.75,0],[0.75,1,0],[0.5,1,0],[0.25,1,0],[0,0.75,0],[0,0.5,0],[0,0.25,0]];fontSize=16;resizeWidth=0;resizeHeight=0;fixedWidth=0;portConstraintRotation=0;rotatable=0;" vertex="1" parent="1">
                        <mxGeometry x="40" y="920.58" width="200" height="80" as="geometry"/>
                    </mxCell>
                </object>
                <object placeholders="1" label="&lt;b&gt;System&lt;/b&gt;" Name="Container name" Description="Description" Technology="Spring" UID="" Type="" id="dX2h5AL-QH6hP2mIYu4_-26">
                    <mxCell style="rounded=1;whiteSpace=wrap;html=1;labelBackgroundColor=none;fillColor=#1061B0;fontColor=#ffffff;align=center;arcSize=6;strokeColor=#0D5091;metaEdit=0;resizable=1;points=[[0.25,0,0],[0.5,0,0],[0.75,0,0],[1,0.25,0],[1,0.5,0],[1,0.75,0],[0.75,1,0],[0.5,1,0],[0.25,1,0],[0,0.75,0],[0,0.5,0],[0,0.25,0]];fontSize=16;resizeWidth=0;resizeHeight=0;fixedWidth=0;portConstraintRotation=0;rotatable=0;" vertex="1" parent="1">
                        <mxGeometry x="40" y="220.58" width="200" height="80" as="geometry"/>
                    </mxCell>
                </object>
                <object placeholders="1" label="&lt;b&gt;Component&lt;/b&gt;" Name="Container name" Description="Description" Technology="Spring" UID="" Type="" id="dX2h5AL-QH6hP2mIYu4_-27">
                    <mxCell style="rounded=1;whiteSpace=wrap;html=1;labelBackgroundColor=none;fillColor=#23A2D9;fontColor=#ffffff;align=center;arcSize=6;strokeColor=#0077CC;metaEdit=0;resizable=1;points=[[0.25,0,0],[0.5,0,0],[0.75,0,0],[1,0.25,0],[1,0.5,0],[1,0.75,0],[0.75,1,0],[0.5,1,0],[0.25,1,0],[0,0.75,0],[0,0.5,0],[0,0.25,0]];fontSize=16;resizeWidth=0;resizeHeight=0;fixedWidth=0;portConstraintRotation=0;rotatable=0;" vertex="1" parent="1">
                        <mxGeometry x="40" y="320.58000000000004" width="200" height="80" as="geometry"/>
                    </mxCell>
                </object>
                <object placeholders="1" label="&lt;b&gt;Module&lt;/b&gt;" Name="Container name" Description="Description" Technology="Spring" UID="" Type="" id="dX2h5AL-QH6hP2mIYu4_-28">
                    <mxCell style="rounded=1;whiteSpace=wrap;html=1;labelBackgroundColor=none;fillColor=#63BEF2;fontColor=#ffffff;align=center;arcSize=6;strokeColor=#2086C9;metaEdit=0;resizable=1;points=[[0.25,0,0],[0.5,0,0],[0.75,0,0],[1,0.25,0],[1,0.5,0],[1,0.75,0],[0.75,1,0],[0.5,1,0],[0.25,1,0],[0,0.75,0],[0,0.5,0],[0,0.25,0]];fontSize=16;resizeWidth=0;resizeHeight=0;fixedWidth=0;portConstraintRotation=0;rotatable=0;" vertex="1" parent="1">
                        <mxGeometry x="40" y="420.58000000000004" width="200" height="80" as="geometry"/>
                    </mxCell>
                </object>
                <mxCell id="dX2h5AL-QH6hP2mIYu4_-35" value="Legend" style="shape=table;startSize=30;container=1;collapsible=0;childLayout=tableLayout;fontSize=16;align=left;verticalAlign=top;fillColor=none;strokeColor=none;fontColor=#4D4D4D;fontStyle=1;spacingLeft=6;spacing=0;resizable=0;metaEdit=1;" vertex="1" parent="1">
                    <mxGeometry x="880" y="440" width="180" height="210" as="geometry"/>
                </mxCell>
                <mxCell id="dX2h5AL-QH6hP2mIYu4_-36" value="" style="shape=tableRow;horizontal=0;startSize=0;swimlaneHead=0;swimlaneBody=0;strokeColor=inherit;top=0;left=0;bottom=0;right=0;collapsible=0;dropTarget=0;fillColor=none;points=[[0,0.5],[1,0.5]];portConstraint=eastwest;fontSize=12;metaEdit=1;" vertex="1" parent="dX2h5AL-QH6hP2mIYu4_-35">
                    <mxGeometry y="30" width="180" height="30" as="geometry"/>
                </mxCell>
                <mxCell id="dX2h5AL-QH6hP2mIYu4_-37" value="Person" style="shape=partialRectangle;html=1;whiteSpace=wrap;connectable=0;strokeColor=inherit;overflow=hidden;fillColor=#083F75;top=0;left=0;bottom=0;right=0;pointerEvents=1;fontSize=12;align=left;fontColor=#FFFFFF;gradientColor=none;spacingLeft=10;spacingRight=4;metaEdit=1;" vertex="1" parent="dX2h5AL-QH6hP2mIYu4_-36">
                    <mxGeometry width="180" height="30" as="geometry">
                        <mxRectangle width="180" height="30" as="alternateBounds"/>
                    </mxGeometry>
                </mxCell>
                <mxCell id="dX2h5AL-QH6hP2mIYu4_-38" value="" style="shape=tableRow;horizontal=0;startSize=0;swimlaneHead=0;swimlaneBody=0;strokeColor=inherit;top=0;left=0;bottom=0;right=0;collapsible=0;dropTarget=0;fillColor=none;points=[[0,0.5],[1,0.5]];portConstraint=eastwest;fontSize=12;metaEdit=1;" vertex="1" parent="dX2h5AL-QH6hP2mIYu4_-35">
                    <mxGeometry y="60" width="180" height="30" as="geometry"/>
                </mxCell>
                <mxCell id="dX2h5AL-QH6hP2mIYu4_-39" value="Software System" style="shape=partialRectangle;html=1;whiteSpace=wrap;connectable=0;strokeColor=inherit;overflow=hidden;fillColor=#1061B0;top=0;left=0;bottom=0;right=0;pointerEvents=1;fontSize=12;align=left;fontColor=#FFFFFF;gradientColor=none;spacingLeft=10;spacingRight=4;metaEdit=1;" vertex="1" parent="dX2h5AL-QH6hP2mIYu4_-38">
                    <mxGeometry width="180" height="30" as="geometry">
                        <mxRectangle width="180" height="30" as="alternateBounds"/>
                    </mxGeometry>
                </mxCell>
                <mxCell id="dX2h5AL-QH6hP2mIYu4_-40" value="" style="shape=tableRow;horizontal=0;startSize=0;swimlaneHead=0;swimlaneBody=0;strokeColor=inherit;top=0;left=0;bottom=0;right=0;collapsible=0;dropTarget=0;fillColor=none;points=[[0,0.5],[1,0.5]];portConstraint=eastwest;fontSize=12;metaEdit=1;" vertex="1" parent="dX2h5AL-QH6hP2mIYu4_-35">
                    <mxGeometry y="90" width="180" height="30" as="geometry"/>
                </mxCell>
                <object label="Component" id="dX2h5AL-QH6hP2mIYu4_-41">
                    <mxCell style="shape=partialRectangle;html=1;whiteSpace=wrap;connectable=0;strokeColor=inherit;overflow=hidden;fillColor=#23A2D9;top=0;left=0;bottom=0;right=0;pointerEvents=1;fontSize=12;align=left;fontColor=#FFFFFF;gradientColor=none;spacingLeft=10;spacingRight=4;metaEdit=1;" vertex="1" parent="dX2h5AL-QH6hP2mIYu4_-40">
                        <mxGeometry width="180" height="30" as="geometry">
                            <mxRectangle width="180" height="30" as="alternateBounds"/>
                        </mxGeometry>
                    </mxCell>
                </object>
                <mxCell id="dX2h5AL-QH6hP2mIYu4_-42" value="" style="shape=tableRow;horizontal=0;startSize=0;swimlaneHead=0;swimlaneBody=0;strokeColor=inherit;top=0;left=0;bottom=0;right=0;collapsible=0;dropTarget=0;fillColor=none;points=[[0,0.5],[1,0.5]];portConstraint=eastwest;fontSize=12;metaEdit=1;" vertex="1" parent="dX2h5AL-QH6hP2mIYu4_-35">
                    <mxGeometry y="120" width="180" height="30" as="geometry"/>
                </mxCell>
                <object label="Module" id="dX2h5AL-QH6hP2mIYu4_-43">
                    <mxCell style="shape=partialRectangle;html=1;whiteSpace=wrap;connectable=0;strokeColor=inherit;overflow=hidden;fillColor=#63BEF2;top=0;left=0;bottom=0;right=0;pointerEvents=1;fontSize=12;align=left;fontColor=#FFFFFF;gradientColor=none;spacingLeft=10;spacingRight=4;metaEdit=1;" vertex="1" parent="dX2h5AL-QH6hP2mIYu4_-42">
                        <mxGeometry width="180" height="30" as="geometry">
                            <mxRectangle width="180" height="30" as="alternateBounds"/>
                        </mxGeometry>
                    </mxCell>
                </object>
                <mxCell id="dX2h5AL-QH6hP2mIYu4_-44" value="" style="shape=tableRow;horizontal=0;startSize=0;swimlaneHead=0;swimlaneBody=0;strokeColor=inherit;top=0;left=0;bottom=0;right=0;collapsible=0;dropTarget=0;fillColor=none;points=[[0,0.5],[1,0.5]];portConstraint=eastwest;fontSize=12;metaEdit=1;" vertex="1" parent="dX2h5AL-QH6hP2mIYu4_-35">
                    <mxGeometry y="150" width="180" height="30" as="geometry"/>
                </mxCell>
                <mxCell id="dX2h5AL-QH6hP2mIYu4_-45" value="External Person" style="shape=partialRectangle;html=1;whiteSpace=wrap;connectable=0;strokeColor=inherit;overflow=hidden;fillColor=#6C6477;top=0;left=0;bottom=0;right=0;pointerEvents=1;fontSize=12;align=left;fontColor=#FFFFFF;gradientColor=none;spacingLeft=10;spacingRight=4;metaEdit=1;" vertex="1" parent="dX2h5AL-QH6hP2mIYu4_-44">
                    <mxGeometry width="180" height="30" as="geometry">
                        <mxRectangle width="180" height="30" as="alternateBounds"/>
                    </mxGeometry>
                </mxCell>
                <mxCell id="dX2h5AL-QH6hP2mIYu4_-46" value="" style="shape=tableRow;horizontal=0;startSize=0;swimlaneHead=0;swimlaneBody=0;strokeColor=inherit;top=0;left=0;bottom=0;right=0;collapsible=0;dropTarget=0;fillColor=none;points=[[0,0.5],[1,0.5]];portConstraint=eastwest;fontSize=12;metaEdit=1;" vertex="1" parent="dX2h5AL-QH6hP2mIYu4_-35">
                    <mxGeometry y="180" width="180" height="30" as="geometry"/>
                </mxCell>
                <mxCell id="dX2h5AL-QH6hP2mIYu4_-47" value="External Software System" style="shape=partialRectangle;html=1;whiteSpace=wrap;connectable=0;strokeColor=inherit;overflow=hidden;fillColor=#8C8496;top=0;left=0;bottom=0;right=0;pointerEvents=1;fontSize=12;align=left;fontColor=#FFFFFF;gradientColor=none;spacingLeft=10;spacingRight=4;metaEdit=1;" vertex="1" parent="dX2h5AL-QH6hP2mIYu4_-46">
                    <mxGeometry width="180" height="30" as="geometry">
                        <mxRectangle width="180" height="30" as="alternateBounds"/>
                    </mxGeometry>
                </mxCell>
                <mxCell id="dX2h5AL-QH6hP2mIYu4_-54" value="Цвета" style="text;strokeColor=none;align=center;fillColor=none;html=1;verticalAlign=middle;whiteSpace=wrap;rounded=0;fontSize=16;" vertex="1" parent="1">
                    <mxGeometry x="40" y="40.58000000000001" width="200" height="80" as="geometry"/>
                </mxCell>
                <object placeholders="1" label="&lt;div style=&quot;text-align: left&quot;&gt;&lt;div style=&quot;text-align: center&quot;&gt;&lt;b&gt;&lt;font color=&quot;#000000&quot;&gt;%Description%&lt;/font&gt;&lt;/b&gt;&lt;/div&gt;&lt;div style=&quot;text-align: center&quot;&gt;&lt;font color=&quot;#000000&quot;&gt;[%Technology%]&lt;/font&gt;&lt;/div&gt;&lt;/div&gt;" Description="Sends messages" Technology="JSON/TCP" UID="" Type="Connection" Format="JSON" id="dX2h5AL-QH6hP2mIYu4_-57">
                    <mxCell style="endArrow=blockThin;html=1;fontSize=10;fontColor=#404040;strokeWidth=1;endFill=1;strokeColor=#828282;elbow=vertical;metaEdit=1;endSize=10;startSize=10;jumpStyle=line;jumpSize=16;rounded=1;edgeStyle=orthogonalEdgeStyle;dashed=1;" edge="1" parent="1">
                        <mxGeometry x="-0.1321" width="240" relative="1" as="geometry">
                            <mxPoint x="881" y="298.1799999999999" as="sourcePoint"/>
                            <mxPoint x="1081" y="298.1799999999999" as="targetPoint"/>
                            <mxPoint as="offset"/>
                        </mxGeometry>
                    </mxCell>
                </object>
                <object Name="Web application name" placeholders="1" Description="Description" Technology="Typescript" label="&lt;font style=&quot;font-size: 16px; text-wrap: wrap; border-color: var(--border-color);&quot;&gt;&lt;b style=&quot;border-color: var(--border-color);&quot;&gt;%Name%&lt;/b&gt;&lt;/font&gt;&lt;div style=&quot;font-size: 16px; text-wrap: wrap; border-color: var(--border-color); line-height: 100%;&quot;&gt;&lt;font style=&quot;border-color: var(--border-color); font-size: 11px;&quot;&gt;[%Type%: %Technology%]&lt;/font&gt;&lt;/div&gt;&lt;br style=&quot;font-size: 16px; text-wrap: wrap; border-color: var(--border-color);&quot;&gt;&lt;div style=&quot;font-size: 16px; text-wrap: wrap; border-color: var(--border-color); line-height: 100%;&quot;&gt;&lt;font style=&quot;border-color: var(--border-color); font-size: 12px;&quot;&gt;%Description%&lt;/font&gt;&lt;/div&gt;" Type="Web application" UID="" Parent="XXX" id="dX2h5AL-QH6hP2mIYu4_-58">
                    <mxCell style="shape=image;image=data:image/svg+xml,PD94bWwgdmVyc2lvbj0iMS4wIiBlbmNvZGluZz0iVVRGLTgiPz4KPCFET0NUWVBFIHN2ZyBQVUJMSUMgIi0vL1czQy8vRFREIFNWRyAxLjEvL0VOIiAiaHR0cDovL3d3dy53My5vcmcvR3JhcGhpY3MvU1ZHLzEuMS9EVEQvc3ZnMTEuZHRkIj4KPHN2ZyB4bWxucz0iaHR0cDovL3d3dy53My5vcmcvMjAwMC9zdmciIHhtbG5zOnhsaW5rPSJodHRwOi8vd3d3LnczLm9yZy8xOTk5L3hsaW5rIiB2ZXJzaW9uPSIxLjEiIHdpZHRoPSIyMDFweCIgaGVpZ2h0PSIxMjBweCIgdmlld0JveD0iLTAuNSAtMC41IDIwMSAxMjAiPjxkZWZzLz48Zz48Zy8+PGc+PHJlY3QgeD0iMCIgeT0iMCIgd2lkdGg9IjIwMCIgaGVpZ2h0PSIxMjAiIHJ4PSI4LjQiIHJ5PSI4LjQiIGZpbGw9IiMxMThhY2QiIHN0cm9rZT0ibm9uZSIgcG9pbnRlci1ldmVudHM9ImFsbCIvPjwvZz48Zz48cmVjdCB4PSI2IiB5PSIyMCIgd2lkdGg9IjE4OSIgaGVpZ2h0PSI5NSIgcng9IjIuODUiIHJ5PSIyLjg1IiBmaWxsPSIjMjNhMmQ5IiBzdHJva2U9Im5vbmUiIHBvaW50ZXItZXZlbnRzPSJhbGwiLz48L2c+PGc+PHJlY3QgeD0iNTAiIHk9IjUiIHdpZHRoPSIxNDUiIGhlaWdodD0iMTAiIHJ4PSI1IiByeT0iNSIgZmlsbD0iIzIzYTJkOSIgc3Ryb2tlPSJub25lIiBwb2ludGVyLWV2ZW50cz0iYWxsIi8+PC9nPjxnPjxlbGxpcHNlIGN4PSIxMSIgY3k9IjEwIiByeD0iNSIgcnk9IjUiIGZpbGw9IiMyM2EyZDkiIHN0cm9rZT0ibm9uZSIgcG9pbnRlci1ldmVudHM9ImFsbCIvPjwvZz48Zz48ZWxsaXBzZSBjeD0iMjQiIGN5PSIxMCIgcng9IjUiIHJ5PSI1IiBmaWxsPSIjMjNhMmQ5IiBzdHJva2U9Im5vbmUiIHBvaW50ZXItZXZlbnRzPSJhbGwiLz48L2c+PGc+PGVsbGlwc2UgY3g9IjM3IiBjeT0iMTAiIHJ4PSI1IiByeT0iNSIgZmlsbD0iIzIzYTJkOSIgc3Ryb2tlPSJub25lIiBwb2ludGVyLWV2ZW50cz0iYWxsIi8+PC9nPjwvZz48L3N2Zz4=;fontColor=#FFFFFF;fontSize=13;strokeWidth=2;metaEdit=1;editable=1;movable=1;resizable=1;rotatable=1;deletable=1;locked=0;connectable=1;html=1;align=center;autosize=0;fillOpacity=100;imageAspect=1;perimeter=rectanglePerimeter;fixDash=0;container=0;recursiveResize=1;expand=1;backgroundOutline=0;fixedWidth=0;resizeWidth=0;resizeHeight=0;imageBorder=none;imageBackground=none;aspect=fixed;verticalAlign=middle;horizontal=1;spacingTop=0;whiteSpace=wrap;" vertex="1" parent="1">
                        <mxGeometry x="320" y="1081" width="201" height="120" as="geometry"/>
                    </mxCell>
                </object>
                <object label="&lt;font style=&quot;color: rgb(255, 255, 255); text-wrap: wrap; font-size: 16px; border-color: var(--border-color);&quot;&gt;&lt;b style=&quot;border-color: var(--border-color);&quot;&gt;%Name%&lt;/b&gt;&lt;/font&gt;&lt;div style=&quot;color: rgb(255, 255, 255); text-wrap: wrap; font-size: 16px; border-color: var(--border-color); line-height: 16px;&quot;&gt;&lt;font style=&quot;border-color: var(--border-color); font-size: 11px;&quot;&gt;[%Type%: %Technology%]&lt;/font&gt;&lt;/div&gt;&lt;br style=&quot;color: rgb(255, 255, 255); text-wrap: wrap; font-size: 16px; border-color: var(--border-color);&quot;&gt;&lt;div style=&quot;color: rgb(255, 255, 255); text-wrap: wrap; font-size: 16px; border-color: var(--border-color); line-height: 16px;&quot;&gt;&lt;font style=&quot;border-color: var(--border-color); font-size: 12px;&quot;&gt;%Description%&lt;/font&gt;&lt;/div&gt;" placeholders="1" Description="Description" Name="Mobile application name" Technology="Swift" Type="Mobile application" UID="" Parent="XXX" id="dX2h5AL-QH6hP2mIYu4_-59">
                    <mxCell style="shape=image;aspect=fixed;image=data:image/svg+xml,PD94bWwgdmVyc2lvbj0iMS4wIiBlbmNvZGluZz0iVVRGLTgiPz4KPCFET0NUWVBFIHN2ZyBQVUJMSUMgIi0vL1czQy8vRFREIFNWRyAxLjEvL0VOIiAiaHR0cDovL3d3dy53My5vcmcvR3JhcGhpY3MvU1ZHLzEuMS9EVEQvc3ZnMTEuZHRkIj4KPHN2ZyB4bWxucz0iaHR0cDovL3d3dy53My5vcmcvMjAwMC9zdmciIHhtbG5zOnhsaW5rPSJodHRwOi8vd3d3LnczLm9yZy8xOTk5L3hsaW5rIiB2ZXJzaW9uPSIxLjEiIHdpZHRoPSIyMDFweCIgaGVpZ2h0PSIxMjFweCIgdmlld0JveD0iLTAuNSAtMC41IDIwMSAxMjEiPjxkZWZzLz48Zz48Zy8+PGc+PHJlY3QgeD0iMCIgeT0iMCIgd2lkdGg9IjIwMCIgaGVpZ2h0PSIxMjAiIHJ4PSI4LjQiIHJ5PSI4LjQiIGZpbGw9IiMxMThhY2QiIHN0cm9rZT0ibm9uZSIgcG9pbnRlci1ldmVudHM9ImFsbCIvPjwvZz48Zz48ZyB0cmFuc2Zvcm09InRyYW5zbGF0ZSgtMC41IC0wLjUpIj48c3dpdGNoPjxmb3JlaWduT2JqZWN0IHBvaW50ZXItZXZlbnRzPSJub25lIiB3aWR0aD0iMTAwJSIgaGVpZ2h0PSIxMDAlIiByZXF1aXJlZEZlYXR1cmVzPSJodHRwOi8vd3d3LnczLm9yZy9UUi9TVkcxMS9mZWF0dXJlI0V4dGVuc2liaWxpdHkiIHN0eWxlPSJvdmVyZmxvdzogdmlzaWJsZTsgdGV4dC1hbGlnbjogbGVmdDsiPjxkaXYgeG1sbnM9Imh0dHA6Ly93d3cudzMub3JnLzE5OTkveGh0bWwiIHN0eWxlPSJkaXNwbGF5OiBmbGV4OyBhbGlnbi1pdGVtczogdW5zYWZlIGNlbnRlcjsganVzdGlmeS1jb250ZW50OiB1bnNhZmUgY2VudGVyOyB3aWR0aDogMTk4cHg7IGhlaWdodDogMXB4OyBwYWRkaW5nLXRvcDogNjBweDsgbWFyZ2luLWxlZnQ6IDFweDsiPjxkaXYgZGF0YS1kcmF3aW8tY29sb3JzPSJjb2xvcjogcmdiKDAsIDAsIDApOyAiIHN0eWxlPSJib3gtc2l6aW5nOiBib3JkZXItYm94OyBmb250LXNpemU6IDBweDsgdGV4dC1hbGlnbjogY2VudGVyOyI+PGRpdiBzdHlsZT0iZGlzcGxheTogaW5saW5lLWJsb2NrOyBmb250LXNpemU6IDE2cHg7IGZvbnQtZmFtaWx5OiBIZWx2ZXRpY2E7IGNvbG9yOiByZ2IoMCwgMCwgMCk7IGxpbmUtaGVpZ2h0OiAxLjI7IHBvaW50ZXItZXZlbnRzOiBhbGw7IHdoaXRlLXNwYWNlOiBub3JtYWw7IG92ZXJmbG93LXdyYXA6IG5vcm1hbDsiPjxmb250IHN0eWxlPSJib3JkZXItY29sb3I6IHZhcigtLWJvcmRlci1jb2xvcik7IGNvbG9yOiByZ2IoMjU1LCAyNTUsIDI1NSk7Ij48YiBzdHlsZT0iYm9yZGVyLWNvbG9yOiB2YXIoLS1ib3JkZXItY29sb3IpOyI+JU5hbWUlPC9iPjwvZm9udD48ZGl2IHN0eWxlPSJib3JkZXItY29sb3I6IHZhcigtLWJvcmRlci1jb2xvcik7IGNvbG9yOiByZ2IoMjU1LCAyNTUsIDI1NSk7IGZvbnQtc2l6ZTogMTJweDsiPltDb250YWluZXI6wqAlVGVjaG5vbG9neSVdPC9kaXY+PGJyIHN0eWxlPSJib3JkZXItY29sb3I6IHZhcigtLWJvcmRlci1jb2xvcik7IGNvbG9yOiByZ2IoMjU1LCAyNTUsIDI1NSk7IGZvbnQtc2l6ZTogMTJweDsiIC8+PGRpdiBzdHlsZT0iYm9yZGVyLWNvbG9yOiB2YXIoLS1ib3JkZXItY29sb3IpOyBmb250LXNpemU6IDEycHg7Ij48Zm9udCBzdHlsZT0iYm9yZGVyLWNvbG9yOiB2YXIoLS1ib3JkZXItY29sb3IpOyBmb250LXNpemU6IDExcHg7Ij48Zm9udCBzdHlsZT0iYm9yZGVyLWNvbG9yOiB2YXIoLS1ib3JkZXItY29sb3IpOyIgY29sb3I9IiNmZmZmZmYiPiVEZXNjcmlwdGlvbiU8L2ZvbnQ+PC9mb250PjwvZGl2PjwvZGl2PjwvZGl2PjwvZGl2PjwvZm9yZWlnbk9iamVjdD48dGV4dCB4PSIxMDAiIHk9IjY1IiBmaWxsPSJyZ2IoMCwgMCwgMCkiIGZvbnQtZmFtaWx5PSJIZWx2ZXRpY2EiIGZvbnQtc2l6ZT0iMTZweCIgdGV4dC1hbmNob3I9Im1pZGRsZSI+JU5hbWUlLi4uPC90ZXh0Pjwvc3dpdGNoPjwvZz48L2c+PGc+PHJlY3QgeD0iMjAiIHk9IjUiIHdpZHRoPSIxNjAiIGhlaWdodD0iMTEwIiByeD0iMy4zIiByeT0iMy4zIiBmaWxsPSIjMjNhMmQ5IiBzdHJva2U9Im5vbmUiIHBvaW50ZXItZXZlbnRzPSJhbGwiLz48L2c+PGc+PGVsbGlwc2UgY3g9IjEwIiBjeT0iNjAiIHJ4PSI1IiByeT0iNSIgZmlsbD0iIzIzYTJkOSIgc3Ryb2tlPSJub25lIiBwb2ludGVyLWV2ZW50cz0iYWxsIi8+PC9nPjxnPjxyZWN0IHg9IjE4OS4yNSIgeT0iNTAiIHdpZHRoPSIxLjUiIGhlaWdodD0iMjAiIHJ4PSIwLjMyIiByeT0iMC4zMiIgZmlsbD0iIzIzYTJkOSIgc3Ryb2tlPSJub25lIiBwb2ludGVyLWV2ZW50cz0iYWxsIi8+PC9nPjwvZz48L3N2Zz4=;html=1;whiteSpace=wrap;metaEdit=1;" vertex="1" parent="1">
                        <mxGeometry x="321" y="920" width="201" height="121" as="geometry"/>
                    </mxCell>
                </object>
                <object placeholders="1" label="&lt;font style=&quot;font-size: 16px&quot;&gt;&lt;b&gt;&lt;div style=&quot;text-align: left&quot;&gt;%Name%&lt;/div&gt;&lt;/b&gt;&lt;/font&gt;&lt;div style=&quot;text-align: left&quot;&gt;[%Type%]&lt;/div&gt;" Name="Group name" UID="" Type="Group" id="dX2h5AL-QH6hP2mIYu4_-61">
                    <mxCell style="rounded=1;fontSize=11;whiteSpace=wrap;html=1;dashed=1;arcSize=20;fillColor=none;strokeColor=#666666;fontColor=#333333;labelBackgroundColor=none;align=left;verticalAlign=top;labelBorderColor=none;spacingTop=0;spacing=10;dashPattern=8 4;metaEdit=1;rotatable=0;perimeter=rectanglePerimeter;noLabel=0;labelPadding=0;allowArrows=0;connectable=0;expand=0;recursiveResize=0;editable=1;pointerEvents=0;absoluteArcSize=1;points=[[0.25,0,0],[0.5,0,0],[0.75,0,0],[1,0.25,0],[1,0.5,0],[1,0.75,0],[0.75,1,0],[0.5,1,0],[0.25,1,0],[0,0.75,0],[0,0.5,0],[0,0.25,0]];container=1;" vertex="1" parent="1">
                        <mxGeometry x="600" y="760" width="200" height="120" as="geometry">
                            <mxRectangle x="680" y="640" width="160" height="80" as="alternateBounds"/>
                        </mxGeometry>
                    </mxCell>
                </object>
            </root>
        </mxGraphModel>
    </diagram>
</mxfile>